<svg width="32" height="22" viewBox="0 0 32 22" fill="none" xmlns="http://www.w3.org/2000/svg">
<path d="M11.3729 11.8971H3.84679C3.44717 11.8971 3.18067 11.6306 3.11422 11.231L1.38235 0.640831C1.31589 0.307662 0.982721 0.04139 0.583093 0.107848C0.250147 0.174529 -0.0163479 0.507475 0.0503328 0.84065L1.78198 11.4976C1.98179 12.4966 2.84772 13.2292 3.84679 13.2292H6.71087V20.4893L4.11329 20.4891C3.71366 20.4891 3.44717 20.7556 3.44717 21.1552C3.44717 21.5548 3.71366 21.8213 4.11329 21.8213H10.6403C11.04 21.8213 11.3065 21.5548 11.3065 21.1552C11.3065 20.7556 11.04 20.4891 10.6403 20.4891H8.04277V13.2296H11.3729C11.7725 13.2296 12.039 12.9631 12.039 12.5634C12.039 12.1638 11.7061 11.8973 11.3729 11.8973V11.8971Z" fill="#64748B"/>
<path d="M31.488 0.108184C31.0884 0.0417257 30.7552 0.307997 30.6888 0.641167L28.9571 11.2981C28.8905 11.6977 28.5575 11.9642 28.2246 11.9642L20.6979 11.964C20.2982 11.964 20.0317 12.2305 20.0317 12.6301C20.0317 13.0297 20.2982 13.2962 20.6979 13.2962H24.028V20.5563H21.4304C21.0308 20.5563 20.7643 20.8228 20.7643 21.2224C20.7643 21.6221 21.0308 21.8886 21.4304 21.8886H27.9575C28.3571 21.8886 28.6236 21.6221 28.6236 21.2224C28.6236 20.8228 28.3571 20.5563 27.9575 20.5563L25.3599 20.5561V13.2298H28.1573C29.1564 13.2298 30.0223 12.4972 30.2221 11.4981L31.9538 0.84122C32.0871 0.50805 31.8206 0.175098 31.4877 0.108417L31.488 0.108184Z" fill="#64748B"/>
<path d="M25.7595 7.50117C26.1592 7.50117 26.4257 7.23468 26.4257 6.83505C26.4257 6.43542 26.1592 6.16893 25.7595 6.16893H22.1629V4.30415C23.8281 3.9712 25.0934 2.50583 25.0934 0.774185C25.0934 0.374557 24.8269 0.108063 24.4273 0.108063H18.6327C18.2331 0.108063 17.9666 0.44101 17.9666 0.840637C17.9666 2.57228 19.2321 4.03766 20.8971 4.3706V6.23561H11.306L11.3065 4.30415C12.9717 3.9712 14.237 2.50583 14.237 0.774185C14.237 0.374557 13.9705 0.108063 13.5709 0.108063H7.77629C7.37666 0.108063 7.11017 0.44101 7.11017 0.840637C7.11017 2.57228 8.37573 4.03766 10.0407 4.3706V6.23561L6.31114 6.23583C5.91151 6.23583 5.64502 6.50232 5.64502 6.90195C5.64502 7.30158 5.91151 7.56807 6.31114 7.56807L12.7052 7.56785L14.1706 21.0884C14.2372 21.4213 14.5035 21.6878 14.8367 21.6878H17.1678C17.5007 21.6878 17.7672 21.4213 17.8339 21.0884L19.3655 7.50106L25.7595 7.50117ZM19.3655 1.44053H23.6283C23.3618 2.37292 22.4961 3.03904 21.497 3.03904C20.4979 3.03904 19.632 2.37292 19.3655 1.44053ZM8.44254 1.44053H12.7053C12.4388 2.37292 11.5731 3.03904 10.574 3.03904C9.57474 3.03904 8.70903 2.37292 8.44254 1.44053ZM16.5681 20.2892H15.4359L14.0372 7.50117H18.0335L16.5681 20.2892Z" fill="#64748B"/>
</svg>
