<svg width="24" height="24" viewBox="0 0 24 24" fill="none" xmlns="http://www.w3.org/2000/svg">
<mask id="mask0_294_3879" style="mask-type:alpha" maskUnits="userSpaceOnUse" x="0" y="0" width="24" height="24">
<rect width="24" height="24" fill="#D9D9D9"/>
</mask>
<g mask="url(#mask0_294_3879)">
<path d="M17 22V19H14V17H17V14H19V17H22V19H19V22H17ZM5 20C4.45 20 3.979 19.8043 3.587 19.413C3.19567 19.021 3 18.55 3 18V6C3 5.45 3.19567 4.97933 3.587 4.588C3.979 4.196 4.45 4 5 4H6V2H8V4H14V2H16V4H17C17.55 4 18.021 4.196 18.413 4.588C18.8043 4.97933 19 5.45 19 6V12.1C18.6667 12.05 18.3333 12.025 18 12.025C17.6667 12.025 17.3333 12.05 17 12.1V10H5V18H12C12 18.3333 12.025 18.6667 12.075 19C12.125 19.3333 12.2167 19.6667 12.35 20H5ZM5 8H17V6H5V8Z" fill="#14B8A6"/>
</g>
</svg>
