<svg width="20" height="21" viewBox="0 0 20 21" fill="none" xmlns="http://www.w3.org/2000/svg">
<mask id="mask0_277_1584" style="mask-type:alpha" maskUnits="userSpaceOnUse" x="0" y="0" width="20" height="21">
<rect y="0.5" width="20" height="20" fill="#D9D9D9"/>
</mask>
<g mask="url(#mask0_277_1584)">
<path d="M8.83299 16.938L7.54199 15.771C5.98599 14.3683 4.61799 13.0073 3.43799 11.688C2.25733 10.368 1.66699 8.90932 1.66699 7.31199C1.66699 6.00665 2.10799 4.90965 2.98999 4.02099C3.87133 3.13232 4.97199 2.68799 6.29199 2.68799C7.04199 2.68799 7.73633 2.84399 8.37499 3.15599C9.01366 3.46865 9.55533 3.86799 9.99999 4.35399C10.4307 3.86799 10.9653 3.46865 11.604 3.15599C12.2427 2.84399 12.9373 2.68799 13.688 2.68799C15.0073 2.68799 16.1113 3.13232 17 4.02099C17.8887 4.90965 18.333 6.00665 18.333 7.31199C18.333 8.90932 17.7323 10.3747 16.531 11.708C15.3297 13.0413 13.9097 14.4513 12.271 15.938L11.167 16.938C10.8337 17.2433 10.4447 17.3923 9.99999 17.385C9.55533 17.3783 9.16633 17.2293 8.83299 16.938ZM9.16699 6.04199C8.93033 5.65265 8.55166 5.28799 8.03099 4.94799C7.51033 4.60799 6.93066 4.43799 6.29199 4.43799C5.45866 4.43799 4.77099 4.70865 4.22899 5.24999C3.68766 5.79132 3.41699 6.47865 3.41699 7.31199C3.41699 8.03465 3.67033 8.79166 4.17699 9.58299C4.68433 10.375 5.29199 11.146 5.99999 11.896C6.70799 12.646 7.43366 13.344 8.17699 13.99C8.92033 14.6353 9.52799 15.1803 9.99999 15.625C10.4587 15.2083 11.0593 14.67 11.802 14.01C12.5453 13.3507 13.271 12.6423 13.979 11.885C14.6877 11.1283 15.2987 10.354 15.812 9.56199C16.326 8.77066 16.583 8.02065 16.583 7.31199C16.583 6.47865 16.3087 5.79132 15.76 5.24999C15.212 4.70865 14.5213 4.43799 13.688 4.43799C13.0487 4.43799 12.479 4.60799 11.979 4.94799C11.479 5.28799 11.104 5.65265 10.854 6.04199C10.7567 6.19465 10.6317 6.31265 10.479 6.39599C10.3263 6.47932 10.1667 6.52099 9.99999 6.52099C9.84733 6.52099 9.69466 6.47932 9.54199 6.39599C9.38866 6.31265 9.26366 6.19465 9.16699 6.04199Z" fill="#64748B"/>
</g>
</svg>
