<svg width="24" height="25" viewBox="0 0 24 25" fill="none" xmlns="http://www.w3.org/2000/svg">
<mask id="mask0_249_3407" style="mask-type:alpha" maskUnits="userSpaceOnUse" x="0" y="0" width="24" height="25">
<rect y="0.5" width="24" height="24" fill="#D9D9D9"/>
</mask>
<g mask="url(#mask0_249_3407)">
<path d="M11.3 14.8L8.70001 12.2C8.38335 11.8833 8.31268 11.521 8.48801 11.113C8.66268 10.7043 8.97501 10.5 9.42501 10.5H14.575C15.025 10.5 15.3373 10.7043 15.512 11.113C15.6873 11.521 15.6167 11.8833 15.3 12.2L12.7 14.8C12.6 14.9 12.4917 14.975 12.375 15.025C12.2583 15.075 12.1333 15.1 12 15.1C11.8667 15.1 11.7417 15.075 11.625 15.025C11.5083 14.975 11.4 14.9 11.3 14.8Z" fill="#64748B"/>
</g>
</svg>
