<svg width="48" height="48" viewBox="0 0 48 48" fill="none" xmlns="http://www.w3.org/2000/svg">
<mask id="mask0_486_2368" style="mask-type:alpha" maskUnits="userSpaceOnUse" x="0" y="0" width="48" height="48">
<rect width="48" height="48" fill="#D9D9D9"/>
</mask>
<g mask="url(#mask0_486_2368)">
<path d="M6.99977 42.95C6.39977 43.1833 5.86644 43.0667 5.39977 42.6C4.93311 42.1333 4.81644 41.6 5.04977 41L11.6998 22.45C12.0664 21.3833 12.7914 20.7333 13.8748 20.5C14.9581 20.2667 15.8831 20.5333 16.6498 21.3L26.7498 31.3C27.5498 32.0667 27.8331 32.9917 27.5998 34.075C27.3664 35.1583 26.7164 35.8833 25.6498 36.25L6.99977 42.95ZM9.04977 38.95L24.7498 33.35L14.5998 23.15L9.04977 38.95ZM26.9998 24.9C26.7664 24.6667 26.6498 24.3833 26.6498 24.05C26.6498 23.7167 26.7664 23.4333 26.9998 23.2L38.1498 12.05C39.2164 10.9833 40.5664 10.4417 42.1998 10.425C43.8331 10.4083 45.1831 10.9333 46.2498 12L46.2998 12.05C46.5331 12.2833 46.6498 12.55 46.6498 12.85C46.6498 13.15 46.5164 13.4333 46.2498 13.7C46.0164 13.9333 45.7331 14.05 45.3998 14.05C45.0664 14.05 44.7831 13.9333 44.5498 13.7L44.4498 13.6C43.8164 12.9667 43.0831 12.6417 42.2498 12.625C41.4164 12.6083 40.6664 12.9333 39.9998 13.6L28.6498 24.95C28.4164 25.1833 28.1498 25.3 27.8498 25.3C27.5498 25.3 27.2664 25.1667 26.9998 24.9ZM19.0498 17.15C18.8164 16.9167 18.6998 16.6333 18.6998 16.3C18.6998 15.9667 18.8164 15.6833 19.0498 15.45L19.6998 14.8C20.4664 14.0333 20.8248 13.1583 20.7748 12.175C20.7248 11.1917 20.3664 10.3667 19.6998 9.70001L19.0998 9.10001C18.8664 8.86668 18.7498 8.60001 18.7498 8.30001C18.7498 8.00001 18.8831 7.71668 19.1498 7.45001C19.3831 7.21668 19.6664 7.10001 19.9998 7.10001C20.3331 7.10001 20.6164 7.21668 20.8498 7.45001L21.2998 7.90001C22.4664 9.06668 23.0414 10.525 23.0248 12.275C23.0081 14.025 22.4164 15.4833 21.2498 16.65L20.6998 17.2C20.4664 17.4333 20.1998 17.55 19.8998 17.55C19.5998 17.55 19.3164 17.4167 19.0498 17.15ZM23.0998 21C22.8664 20.7667 22.7498 20.4833 22.7498 20.15C22.7498 19.8167 22.8664 19.5333 23.0998 19.3L29.8498 12.55C30.4831 11.9167 30.7914 11.1083 30.7748 10.125C30.7581 9.14168 30.4331 8.33335 29.7998 7.70001L27.5498 5.45001C27.3164 5.21668 27.1998 4.95001 27.1998 4.65001C27.1998 4.35001 27.3331 4.06668 27.5998 3.80001C27.8331 3.56668 28.1164 3.45001 28.4498 3.45001C28.7831 3.45001 29.0664 3.56668 29.2998 3.80001L31.5998 6.10001C32.6331 7.16668 33.1664 8.50835 33.1998 10.125C33.2331 11.7417 32.7164 13.0833 31.6498 14.15L24.7498 21.05C24.5164 21.2833 24.2498 21.4 23.9498 21.4C23.6498 21.4 23.3664 21.2667 23.0998 21ZM30.9998 28.95C30.7664 28.7167 30.6498 28.4333 30.6498 28.1C30.6498 27.7667 30.7664 27.4833 30.9998 27.25L32.4998 25.75C33.6664 24.5833 35.0664 23.9833 36.6998 23.95C38.3331 23.9167 39.7331 24.4833 40.8998 25.65L42.6498 27.4C42.8831 27.6333 42.9998 27.9 42.9998 28.2C42.9998 28.5 42.8664 28.7833 42.5998 29.05C42.3664 29.2833 42.0831 29.4 41.7498 29.4C41.4164 29.4 41.1331 29.2833 40.8998 29.05L39.1498 27.3C38.3831 26.5333 37.5831 26.15 36.7498 26.15C35.9164 26.15 35.1164 26.5333 34.3498 27.3L32.6498 29C32.4164 29.2333 32.1498 29.35 31.8498 29.35C31.5498 29.35 31.2664 29.2167 30.9998 28.95Z" fill="#F59E0B"/>
</g>
</svg>
