<svg width="32" height="24" viewBox="0 0 32 24" fill="none" xmlns="http://www.w3.org/2000/svg">
<path d="M11.4898 11.3324H3.94559V2.92062C3.94559 1.85238 3.07764 0.984655 2.00963 0.984655C0.941398 0.984655 0.00683594 1.85261 0.00683594 2.92062V21.0127C0.00683594 22.081 0.874791 22.9487 1.9428 22.9487C3.01103 22.9487 3.87876 22.0807 3.87876 21.0127V15.2716H9.48659V21.0127C9.48659 22.081 10.3545 22.9487 11.4225 22.9487C12.4908 22.9487 13.3585 22.0807 13.3585 21.0127L13.3587 13.3352C13.4256 12.2671 12.5576 11.3324 11.4896 11.3324H11.4898ZM2.61059 21.0127C2.61059 21.3465 2.34347 21.6136 2.00975 21.6136C1.67602 21.6136 1.34207 21.3465 1.34207 21.0127V2.92062C1.34207 2.58689 1.60919 2.31978 1.94291 2.31978C2.27663 2.31978 2.54375 2.58689 2.54375 2.92062V21.0127H2.61059ZM12.0907 21.0796C12.0907 21.4133 11.8236 21.6804 11.4898 21.6804C11.1561 21.6804 10.889 21.4133 10.889 21.0796V14.6706C10.889 14.2701 10.6219 14.0029 10.2213 14.0029H3.94571V12.6678H11.4894C11.8231 12.6678 12.0902 12.9349 12.0902 13.2687L12.0907 21.0796Z" fill="#475569"/>
<path d="M30.1161 0.98476C29.0478 0.98476 28.1801 1.85272 28.1801 2.92072L28.1799 11.3325H20.5693C19.501 11.3325 18.6333 12.2004 18.6333 13.2684V21.0124C18.6333 22.0806 19.5013 22.9483 20.5693 22.9483C21.6375 22.9483 22.5052 22.0804 22.5052 21.0124V15.2712H28.113V21.0124C28.113 22.0806 28.981 22.9483 30.049 22.9483C31.1172 22.9483 31.985 22.0804 31.985 21.0124L31.9852 2.92083C32.052 1.85283 31.1841 0.984875 30.1161 0.984875V0.98476ZM21.9046 13.936C21.504 13.936 21.2369 14.2031 21.2369 14.6037V21.0126C21.2369 21.3463 20.9698 21.6134 20.6361 21.6134C20.3024 21.6134 20.0353 21.3463 20.0353 21.0126V13.335C20.0353 13.0013 20.3024 12.7342 20.6361 12.7342H28.1798V14.0027H21.9047L21.9046 13.936ZM30.7169 21.0127C30.7169 21.3464 30.4498 21.6136 30.1161 21.6136C29.7823 21.6136 29.5152 21.3464 29.5152 21.0127V2.92061C29.5152 2.58688 29.7823 2.31977 30.1161 2.31977C30.4498 2.31977 30.7169 2.58688 30.7169 2.92061V21.0127Z" fill="#475569"/>
<path d="M22.6387 8.52845C23.7736 8.52845 24.6415 7.59389 24.6415 6.52566C24.6415 5.45742 23.707 4.52286 22.6387 4.52286H9.42028C8.28544 4.52286 7.41748 5.45742 7.41748 6.52566C7.41748 7.59389 8.35204 8.52845 9.42028 8.52845H14.2938V21.2794C14.2938 22.214 15.0949 23.0151 16.0295 23.0151C16.9641 23.0151 17.7652 22.214 17.7652 21.2794V8.52845H22.6387ZM8.75249 6.52566C8.75249 6.1251 9.08621 5.85798 9.42016 5.85798H22.6386C23.0392 5.85798 23.3063 6.19171 23.3063 6.52566C23.3063 6.92622 22.9726 7.19333 22.6386 7.19333H9.42016C9.0196 7.19333 8.75249 6.92622 8.75249 6.52566ZM16.4301 21.28C16.4301 21.4803 16.2298 21.6805 16.0295 21.6805C15.8292 21.6805 15.6289 21.4803 15.6289 21.28V8.52845H16.4301V21.28Z" fill="#475569"/>
</svg>
