<svg width="26" height="21" viewBox="0 0 26 21" fill="none" xmlns="http://www.w3.org/2000/svg">
<path d="M23.4664 0.000106812H2.13339C0.96 0.000106812 0 0.960107 0 2.1335V11.2C0 12.3734 0.96 13.3334 2.13339 13.3334H23.4669C24.6403 13.3334 25.6003 12.3734 25.6003 11.2V2.1335C25.6001 0.960107 24.6401 0.000106812 23.4667 0.000106812H23.4664ZM2.13339 1.06671H23.4669C24.0535 1.06671 24.5335 1.54671 24.5335 2.13332V5.92011H1.06651V2.13332C1.06651 1.54671 1.54651 1.06671 2.1333 1.06671H2.13339ZM23.4664 12.2667H2.13339C1.54679 12.2667 1.06679 11.7867 1.06679 11.2001L1.06661 6.98671H24.5331V11.2001C24.5333 11.7867 24.0533 12.2667 23.4665 12.2667H23.4664Z" fill="#475569"/>
<path d="M21.6532 7.6802H3.94619C3.03959 7.6802 2.34619 8.42681 2.34619 9.2802C2.34619 10.1336 3.0928 10.8802 3.94619 10.8802H21.6527C22.5593 10.8802 23.2527 10.1336 23.2527 9.2802C23.2529 8.42681 22.5595 7.6802 21.6529 7.6802H21.6532ZM21.6532 9.86681H3.94619C3.62619 9.86681 3.4128 9.6002 3.4128 9.33341C3.4128 9.01341 3.6794 8.80002 3.94619 8.80002H21.6527C21.9727 8.80002 22.1861 9.06662 22.1861 9.33341C22.1861 9.60019 21.9729 9.86681 21.6529 9.86681H21.6532Z" fill="#475569"/>
<path d="M16.5863 5.06671C17.4929 5.06671 18.1863 4.37332 18.1863 3.46671C18.1863 2.56011 17.4929 1.86671 16.5863 1.86671C15.6797 1.86671 14.9863 2.56011 14.9863 3.46671C14.9863 4.37332 15.6797 5.06671 16.5863 5.06671ZM16.5863 2.93332C16.9063 2.93332 17.1197 3.14671 17.1197 3.46671C17.1197 3.78671 16.9063 4.00011 16.5863 4.00011C16.2663 4.00011 16.0529 3.78671 16.0529 3.46671C16.0531 3.14671 16.2663 2.93332 16.5863 2.93332Z" fill="#475569"/>
<path d="M19.0397 4.0002H19.9997C20.3197 4.0002 20.5331 3.7868 20.5331 3.4668C20.5331 3.1468 20.3197 2.93341 19.9997 2.93341H19.0397C18.7197 2.93341 18.5063 3.1468 18.5063 3.4668C18.5063 3.7868 18.7731 4.0002 19.0397 4.0002Z" fill="#475569"/>
<path d="M21.4935 4.0002H22.4001C22.7201 4.0002 22.9335 3.7868 22.9335 3.4668C22.9335 3.1468 22.7201 2.93341 22.4001 2.93341H21.4401C21.1201 2.93341 20.9067 3.1468 20.9067 3.4668C20.9067 3.7868 21.1735 4.0002 21.4935 4.0002Z" fill="#475569"/>
<path d="M9.70635 15.3067C9.91974 15.0933 9.91974 14.7733 9.70635 14.5601C9.49295 14.3467 9.17295 14.3467 8.95974 14.5601C8.05313 15.4667 8.05313 16.9067 8.95974 17.7601C9.43974 18.2401 9.43974 18.9867 8.95974 19.4667C8.74635 19.6801 8.74635 20.0533 8.95974 20.2133C9.27974 20.4799 9.59974 20.3199 9.70635 20.2133C10.613 19.3067 10.613 17.8667 9.70635 17.0133C9.22635 16.5333 9.22635 15.7867 9.70635 15.3067Z" fill="#475569"/>
<path d="M16.6399 15.3067C16.8533 15.0933 16.8533 14.7733 16.6399 14.5601C16.4265 14.3467 16.1065 14.3467 15.8933 14.5601C14.9867 15.4667 14.9867 16.9067 15.8933 17.7601C16.3733 18.2401 16.3733 18.9867 15.8933 19.4667C15.6799 19.6801 15.6799 20.0001 15.8933 20.2133C15.9999 20.3199 16.3199 20.5333 16.6399 20.2133C17.5465 19.3599 17.5465 17.8667 16.6399 17.0133C16.2133 16.5333 16.2133 15.7867 16.6399 15.3067Z" fill="#475569"/>
<path d="M13.1736 15.3067C13.387 15.0933 13.387 14.7733 13.1736 14.5601C12.9602 14.3467 12.6402 14.3467 12.427 14.5601C11.5204 15.4667 11.5204 16.9067 12.427 17.7601C12.907 18.2401 12.907 18.9867 12.427 19.4667C12.2136 19.6801 12.2136 20.0533 12.427 20.2133C12.8004 20.5333 13.067 20.3199 13.1736 20.2133C14.0802 19.3067 14.0802 17.8667 13.1736 17.0133C12.6936 16.5333 12.6936 15.7867 13.1736 15.3067Z" fill="#475569"/>
</svg>
