<svg width="20" height="20" viewBox="0 0 20 20" fill="none" xmlns="http://www.w3.org/2000/svg">
<mask id="mask0_455_1845" style="mask-type:alpha" maskUnits="userSpaceOnUse" x="0" y="0" width="20" height="20">
<rect width="20" height="20" fill="#D9D9D9"/>
</mask>
<g mask="url(#mask0_455_1845)">
<path d="M9.99999 14.167C10.236 14.167 10.441 14.08 10.615 13.906C10.7883 13.7327 10.875 13.528 10.875 13.292V10.021C10.875 9.78499 10.7883 9.58366 10.615 9.41699C10.441 9.25033 10.236 9.16699 9.99999 9.16699C9.76399 9.16699 9.55899 9.25366 9.38499 9.42699C9.21166 9.60099 9.12499 9.80599 9.12499 10.042V13.312C9.12499 13.5487 9.21166 13.7503 9.38499 13.917C9.55899 14.0837 9.76399 14.167 9.99999 14.167ZM9.99999 7.47899C10.236 7.47899 10.441 7.39233 10.615 7.21899C10.7883 7.04499 10.875 6.83999 10.875 6.60399C10.875 6.36799 10.7883 6.16333 10.615 5.98999C10.441 5.81599 10.236 5.72899 9.99999 5.72899C9.76399 5.72899 9.55899 5.81599 9.38499 5.98999C9.21166 6.16333 9.12499 6.36799 9.12499 6.60399C9.12499 6.83999 9.21166 7.04499 9.38499 7.21899C9.55899 7.39233 9.76399 7.47899 9.99999 7.47899ZM9.99999 18.333C8.84733 18.333 7.76399 18.1143 6.74999 17.677C5.73599 17.2397 4.85399 16.646 4.10399 15.896C3.35399 15.146 2.76033 14.264 2.32299 13.25C1.88566 12.236 1.66699 11.1527 1.66699 9.99999C1.66699 8.84733 1.88566 7.76399 2.32299 6.74999C2.76033 5.73599 3.35399 4.85399 4.10399 4.10399C4.85399 3.35399 5.73599 2.76033 6.74999 2.32299C7.76399 1.88566 8.84733 1.66699 9.99999 1.66699C11.1527 1.66699 12.236 1.88566 13.25 2.32299C14.264 2.76033 15.146 3.35399 15.896 4.10399C16.646 4.85399 17.2397 5.73599 17.677 6.74999C18.1143 7.76399 18.333 8.84733 18.333 9.99999C18.333 11.1527 18.1143 12.236 17.677 13.25C17.2397 14.264 16.646 15.146 15.896 15.896C15.146 16.646 14.264 17.2397 13.25 17.677C12.236 18.1143 11.1527 18.333 9.99999 18.333ZM9.99999 16.583C11.8193 16.583 13.3713 15.9407 14.656 14.656C15.9407 13.3713 16.583 11.8193 16.583 9.99999C16.583 8.18066 15.9407 6.62866 14.656 5.34399C13.3713 4.05933 11.8193 3.41699 9.99999 3.41699C8.18066 3.41699 6.62866 4.05933 5.34399 5.34399C4.05933 6.62866 3.41699 8.18066 3.41699 9.99999C3.41699 11.8193 4.05933 13.3713 5.34399 14.656C6.62866 15.9407 8.18066 16.583 9.99999 16.583Z" fill="#94A3B8"/>
</g>
</svg>
