<svg width="32" height="32" viewBox="0 0 32 32" fill="none" xmlns="http://www.w3.org/2000/svg">
<path d="M31.6416 13.9802L28.3721 12.7124V10.4437C28.3721 9.24263 27.438 8.30857 26.2369 8.30857C25.0359 8.30857 24.1018 9.24263 24.1018 10.4437V10.7772L20.5655 9.10903C20.0984 1.56934 17.8296 -0.0320511 16.0281 -0.0320511C14.2265 -0.0320511 11.9578 1.56934 11.4909 9.17595L7.95454 10.8441V10.5106C7.95454 9.30955 7.02048 8.37548 5.81943 8.37548C4.61839 8.37548 3.68432 9.30955 3.68432 10.5106V12.7793L0.414508 13.9801C0.214334 14.1135 0.0141602 14.3805 0.0141602 14.6474V18.9179C0.0141602 19.1181 0.214334 19.6518 0.748055 19.5852L11.6244 17.9836C11.8913 20.9194 12.2249 23.7217 12.7586 26.0575L9.15547 27.9924C8.9553 28.1258 8.82193 28.326 8.82193 28.5929V30.7948C8.82193 31.1952 9.22227 31.5287 9.62262 31.4622L14.2934 30.5947C14.6938 31.3286 15.2275 32.0627 16.095 32.0627C16.7623 32.0627 17.3628 31.5955 17.8966 30.5947L22.5674 31.4622C22.9677 31.529 23.368 31.1952 23.368 30.7948V28.5929C23.368 28.326 23.2347 28.1258 23.0345 27.9924L19.2978 25.9907C19.7649 23.722 20.1653 20.9195 20.432 17.9168L31.2414 19.5182C31.4416 19.5182 31.9753 19.4514 31.9753 18.8509V14.6474C32.0421 14.3805 31.8419 14.1135 31.6418 13.9801L31.6416 13.9802ZM30.7076 18.1171L19.8982 16.5157C19.3645 16.3823 19.1643 16.916 19.1643 17.1162C18.8973 20.4524 18.497 23.722 17.8964 26.191C17.8296 26.4579 17.9632 26.7915 18.23 26.9249L21.9665 28.9266V29.9275L17.6295 29.1268C17.3625 29.06 17.0289 29.1936 16.8956 29.5271C16.3616 30.5948 16.0281 30.6616 16.0281 30.6616C16.0281 30.6616 15.6945 30.5948 15.2274 29.5273C15.094 29.2604 14.8938 29.127 14.6269 29.127C14.5601 29.127 10.1562 29.9277 10.1562 29.9277V28.9268L13.8927 26.9251C14.1597 26.7917 14.2931 26.4579 14.2263 26.1912C13.6258 23.6557 13.2254 20.4531 12.9584 17.1164C12.9584 16.9163 12.8251 16.4491 12.2245 16.5159L1.34881 18.1171V15.0477L4.61839 13.7798C4.88536 13.713 5.01874 13.4463 5.01874 13.1793V10.4437C5.01874 9.97653 5.35228 9.64298 5.81943 9.64298C6.28658 9.64298 6.62013 9.97653 6.62013 10.4437V11.8449C6.62013 12.312 7.15385 12.6456 7.5542 12.4454L12.4252 10.1767C12.6253 10.0433 12.8255 9.84316 12.8255 9.57618C13.0257 4.37189 14.2267 1.30271 16.0283 1.30271C17.8299 1.30271 19.0309 4.37212 19.2979 9.6431C19.2979 9.91007 19.4313 10.1102 19.6982 10.2436L24.5692 12.5123C25.0364 12.7125 25.5033 12.379 25.5033 11.9118V10.5106C25.5033 10.0434 25.8368 9.7099 26.304 9.7099C26.7711 9.7099 27.1047 10.0434 27.1047 10.5106V13.2462C27.1047 13.5132 27.3048 13.7799 27.505 13.8467L30.7746 15.1146L30.7744 18.1172L30.7076 18.1171Z" fill="#475569"/>
</svg>
