<svg width="26" height="24" viewBox="0 0 26 24" fill="none" xmlns="http://www.w3.org/2000/svg">
<path d="M18.7013 15.3065C17.5279 16.4799 15.6613 16.4799 14.4879 15.3065C14.2746 15.0931 13.9546 15.0931 13.7413 15.3065C12.5679 16.4799 10.7013 16.4799 9.52795 15.3065C9.42134 15.1999 9.31455 15.1465 9.15455 15.1465C8.99455 15.1465 8.88794 15.1999 8.78116 15.3065C7.60776 16.4799 5.68776 16.4799 4.56776 15.3065C4.24794 15.1465 3.92794 15.1465 3.71473 15.3065C3.50134 15.4665 3.50134 15.8399 3.71473 16.0531C5.15473 17.4931 7.50134 17.6531 9.10125 16.3731C10.5412 17.4931 12.6212 17.4931 14.1147 16.3731C15.7147 17.5997 18.0081 17.4931 19.5012 16.0531C19.7146 15.8397 19.7146 15.5197 19.5012 15.3065C19.2879 15.0931 18.9146 15.1465 18.7012 15.3065H18.7013Z" fill="#475569"/>
<path d="M15.3952 18.08C14.2218 19.2534 12.3552 19.2534 11.1818 18.08C11.0752 17.9734 10.9684 17.92 10.8084 17.92C10.6484 17.92 10.5418 17.9734 10.435 18.08C9.26159 19.2534 7.39499 19.2534 6.22159 18.08C6.0082 17.8666 5.6882 17.8666 5.47499 18.08C5.26159 18.2934 5.26159 18.6134 5.47499 18.8266C6.91499 20.2666 9.26159 20.4266 10.8615 19.1466C12.4615 20.3732 14.7549 20.2666 16.248 18.8266C16.4614 18.6132 16.4614 18.2932 16.248 18.08C15.9282 17.8666 15.6082 17.8666 15.395 18.08H15.3952Z" fill="#475569"/>
<path d="M19.128 -0.00012207C16.568 -0.00012207 14.168 1.54648 13.1015 3.89327C12.3015 5.59988 11.0749 6.98667 9.52812 7.99988V6.55988C9.52812 5.38648 8.56812 4.42648 7.39472 4.42648C6.22133 4.42648 5.26133 5.38648 5.26133 6.55988V6.77327C5.26133 7.09327 5.47472 7.30667 5.79472 7.30667C6.11472 7.30667 6.32812 7.09327 6.32812 6.77327V6.55988C6.32812 5.97327 6.80812 5.49327 7.39472 5.49327C7.98133 5.49327 8.46133 5.97327 8.46133 6.55988V8.58648C6.86133 9.33309 6.32793 9.17309 4.62133 9.86648V6.55988C4.62133 5.38648 3.66133 4.42648 2.48793 4.42648C1.31454 4.42648 0.35454 5.38648 0.35454 6.55988V6.77327C0.35454 7.09327 0.567935 7.30667 0.887935 7.30667C1.20793 7.30667 1.42133 7.09327 1.42133 6.77327V6.55988C1.42133 5.97327 1.90133 5.49327 2.48793 5.49327C3.07454 5.49327 3.55454 5.97327 3.55454 6.55988L3.5549 10.3465C1.52829 11.4665 0.248292 13.1199 0.0348976 15.04C-0.605102 20.4265 7.7149 23.8935 12.0884 23.8935C18.7019 23.8935 22.3284 17.0135 23.8749 12.9069C24.5683 11.0403 25.6349 7.41346 25.6349 6.34694C25.4749 2.82676 22.5949 -3.06048e-05 19.1279 -3.06048e-05L19.128 -0.00012207ZM8.46151 9.75988V11.6265H4.62151V10.9865C6.27491 10.2399 6.86151 10.3999 8.46151 9.75988ZM22.8615 12.5331C21.4215 16.3731 18.0615 22.8266 12.088 22.8266C8.46142 22.8266 0.514997 19.84 1.10151 15.1466C1.26151 13.76 2.16812 12.48 3.60812 11.5732V13.4932C3.60812 13.8132 3.82151 14.0266 4.14151 14.0266C4.46151 14.0266 4.67491 13.8132 4.67491 13.4932V12.6932H8.51491V13.4932C8.51491 13.8132 8.7283 14.0266 9.0483 14.0266C9.3683 14.0266 9.58169 13.8132 9.58169 13.4932V9.22657C11.5017 8.15997 13.1017 6.45318 14.1151 4.37309C15.0751 2.3997 17.0485 1.1197 19.1816 1.1197C22.0616 1.1197 24.4616 3.4663 24.5681 6.39969C24.5147 7.14648 23.6613 10.3465 22.8613 12.5332L22.8615 12.5331Z" fill="#475569"/>
</svg>
