<svg width="32" height="32" viewBox="0 0 32 32" fill="none" xmlns="http://www.w3.org/2000/svg">
<path d="M31.465 28.5788L27.2736 23.1898C26.8744 22.6576 26.209 22.3914 25.5439 22.3914H17.3605L22.2838 10.7483C22.4833 10.9479 22.6829 11.2141 22.7495 11.5467C22.8162 11.6797 23.0821 12.2121 23.7475 11.8792C25.0781 11.2139 26.076 11.8792 26.4752 12.8772C26.6082 13.2764 27.074 13.4094 27.4732 13.2098C28.4711 12.611 29.5357 12.8772 30.2009 14.2078C30.5335 14.8731 31.3318 14.7399 31.465 14.2078C33.7272 6.95567 28.072 2.83093 25.6768 1.83297L26.0094 0.967985C26.1424 0.635405 25.9428 0.236218 25.6102 0.103004C25.2777 -0.0299821 24.8785 0.169611 24.7453 0.502191L24.3463 1.3674C18.7577 -0.495548 13.2358 2.76455 11.7719 7.08889C11.5723 7.68767 12.2377 8.21984 12.7033 7.88726C13.8342 7.22187 14.9654 7.75428 15.431 8.88523C15.5639 9.28442 16.0297 9.4174 16.4289 9.21781C17.5599 8.55242 18.6911 9.08482 19.1566 10.2158C19.2232 10.4154 19.6224 10.8812 20.1546 10.5484C20.4872 10.3488 20.82 10.2822 21.1526 10.2822L16.0297 22.3906H11.0399L3.85455 13.4762C2.59038 12.0791 1.25983 12.8108 0.860646 13.077C0.394852 13.4096 -0.536508 14.6072 0.461459 16.0043L8.2456 25.7177C8.64479 26.2499 9.24357 26.5161 9.90896 26.5161H24.546L28.1387 31.1067C29.4692 32.5039 30.7334 31.7721 31.1326 31.5059C31.5315 31.1733 32.5295 29.9757 31.4649 28.5786L31.465 28.5788ZM20.0221 9.08539C19.2237 7.75485 17.7599 7.28905 16.3628 7.75485C15.764 6.75688 14.766 6.2247 13.6351 6.2247C15.0988 3.6966 17.9595 2.16623 21.1529 2.16623C26.8744 2.16623 31.465 7.08946 30.5338 12.3455C29.6688 11.5471 28.5379 11.3475 27.4069 11.6801C26.6085 10.3496 25.1448 9.88377 23.7476 10.3496C23.415 9.75078 22.8826 9.35159 22.2839 9.08539C21.5521 8.8858 20.7537 8.81919 20.022 9.08539H20.0221ZM30.2675 30.4419C29.9349 30.7081 29.4025 30.6415 29.1365 30.3089L25.3443 25.5187C25.2113 25.3857 25.0117 25.2525 24.8121 25.2525H9.90873C9.64253 25.2525 9.44294 25.1195 9.24335 24.9199L1.52592 15.2727C1.19335 14.7405 1.52592 14.3413 1.65891 14.2081C1.7919 14.0751 2.25769 13.8089 2.78986 14.3411L10.1081 23.4557C10.2411 23.5886 10.4407 23.7219 10.6403 23.7219H25.6098C25.876 23.7219 26.142 23.8548 26.2752 24.0544L30.4666 29.4435C30.7997 29.9759 30.4669 30.3751 30.2673 30.4417L30.2675 30.4419Z" fill="#475569"/>
</svg>
