<svg width="26" height="22" viewBox="0 0 26 22" fill="none" xmlns="http://www.w3.org/2000/svg">
<path d="M23.1464 10.6665H22.2398C22.1332 9.43992 21.1198 8.47992 19.8932 8.47992H9.22669C7.94669 8.47992 6.88009 9.54653 6.88009 10.8265V15.1999C6.88009 17.1199 7.57348 18.8799 8.85348 20.3199H6.9333C6.6133 20.3199 6.3999 20.5333 6.3999 20.8533C6.3999 21.1733 6.6133 21.3867 6.9333 21.3867H22.2933C22.6133 21.3867 22.8267 21.1733 22.8267 20.8533C22.8267 20.5333 22.6133 20.3199 22.2933 20.3199H20.3199C21.4933 19.0399 22.1865 17.3865 22.2399 15.5734H23.1465C24.5331 15.5734 25.5999 14.4534 25.5999 13.12C25.5999 11.7866 24.4799 10.6666 23.1465 10.6666L23.1464 10.6665ZM21.2264 15.1999C21.2264 17.1733 20.373 19.0399 18.8264 20.3199H10.3999C8.8533 19.0399 7.9999 17.1733 7.9999 15.1999V10.8265C7.9999 10.1331 8.58651 9.54653 9.2799 9.54653H19.9464C20.6398 9.54653 21.2264 10.1331 21.2264 10.8265V15.1999ZM23.1464 14.5065H22.293V11.6799H23.1464C23.893 11.6799 24.533 12.3199 24.533 13.0665C24.5332 13.9199 23.8932 14.5065 23.1464 14.5065Z" fill="#64748B"/>
<path d="M6.4 6.88002C6.4 4.42662 5.01339 2.50662 3.2 2.50662C1.38661 2.50662 0 4.42662 0 6.88002C0 8.64002 0.746606 10.1334 1.81339 10.8266L1.38661 20.0531C1.38661 21.5997 2.72 21.9197 3.2 21.9197C3.68 21.9197 4.96 21.5997 5.0134 20.0531L4.58661 10.8266C5.6534 10.1332 6.40001 8.64002 6.40001 6.88002H6.4ZM1.06651 6.88002C1.06651 5.06662 2.02651 3.57341 3.19991 3.57341C4.3733 3.57341 5.3333 5.12002 5.3333 6.88002C5.3333 8.64002 4.3733 10.1866 3.19991 10.1866C2.02651 10.1866 1.06651 8.69323 1.06651 6.88002ZM3.94651 20.1065C3.94651 20.7465 3.41312 20.8531 3.19991 20.8531C2.98651 20.8531 2.4533 20.7465 2.4533 20.1065L2.87991 11.253H3.19991H3.51991L3.94651 20.1065Z" fill="#64748B"/>
<path d="M10.72 6.98654C10.5066 7.19994 10.5066 7.51994 10.72 7.73315C10.8266 7.83975 11.0934 8.05315 11.4666 7.73315C12.4266 6.93315 12.3732 5.38654 11.4666 4.53315C10.9866 4.05315 10.9866 3.30654 11.4666 2.82654C11.68 2.61315 11.68 2.29315 11.4666 2.07994C11.2532 1.86654 10.9332 1.86654 10.72 2.07994C9.81339 2.98654 9.81339 4.42654 10.72 5.27994C11.2 5.75994 11.2 6.50654 10.72 6.98654Z" fill="#64748B"/>
<path d="M17.7063 6.98654C17.4929 7.19994 17.4929 7.51994 17.7063 7.73315C17.8129 7.83975 18.1329 7.99975 18.4529 7.73315C19.3595 6.87975 19.3595 5.38654 18.4529 4.53315C17.9729 4.05315 17.9729 3.30654 18.4529 2.82654C18.6663 2.61315 18.6663 2.29315 18.4529 2.07994C18.2395 1.86654 17.9195 1.86654 17.7063 2.07994C16.7997 2.98654 16.7997 4.42654 17.7063 5.27994C18.1863 5.75994 18.1863 6.50654 17.7063 6.98654Z" fill="#64748B"/>
<path d="M14.1864 6.98653C13.973 7.19992 13.973 7.51992 14.1864 7.73314C14.293 7.83974 14.5598 8.05314 14.933 7.73314C16.5864 6.02653 15.4664 4.15974 14.933 3.57314C14.5596 3.19974 13.9196 2.07974 14.933 0.906529C15.1464 0.693135 15.1464 0.373135 14.933 0.159924C14.7196 -0.0534706 14.3996 -0.0534706 14.1864 0.159924C13.653 0.693318 12.5864 2.45332 14.1864 4.31992C14.8798 5.11992 14.9332 6.23992 14.1864 6.98653Z" fill="#64748B"/>
</svg>
