<svg width="32" height="24" viewBox="0 0 32 24" fill="none" xmlns="http://www.w3.org/2000/svg">
<path d="M25.7886 16.5114H24.2553L22.3221 8.37812C22.0553 7.31137 21.2553 6.5781 20.1888 6.31135C20.6555 5.71135 20.922 4.91134 20.922 4.11133C20.922 1.97804 19.1888 0.311277 17.122 0.311277C14.9887 0.311277 13.3219 2.04456 13.3219 4.11133C13.3219 5.4446 13.9887 6.5781 14.9887 7.31137C14.522 7.91138 14.2554 8.71139 14.3887 9.5114L9.9219 12.9114C8.92188 13.7114 8.72188 15.1115 9.45515 16.1115L9.85515 16.5115H7.45512C6.98837 16.5115 6.52185 16.7115 6.25511 17.0448C5.58835 16.5115 4.72183 16.1115 3.78833 16.1115C1.65505 16.1115 -0.0117188 17.8448 -0.0117188 19.9115C-0.0117188 22.0448 1.72156 23.7116 3.78833 23.7116C4.7216 23.7116 5.58835 23.3783 6.25511 22.7783C6.58837 23.1116 6.98837 23.3116 7.45512 23.3116H31.3217C31.7217 23.3116 31.9885 23.0448 31.9885 22.6448C31.9885 19.3115 29.1884 16.5116 25.7884 16.5116L25.7886 16.5114ZM17.1216 1.64432C18.5217 1.64432 19.5884 2.77759 19.5884 4.1111C19.5884 5.51112 18.4551 6.57787 17.1216 6.57787C15.7216 6.57787 14.6549 5.4446 14.6549 4.1111C14.5883 2.77759 15.7216 1.64432 17.1216 1.64432ZM10.7216 13.9776L15.5216 10.3108C15.7216 10.1776 15.8549 9.91083 15.7884 9.64408C15.7884 9.64408 15.3216 8.64407 16.3216 7.9108C16.5884 7.97755 17.5217 8.17755 18.7217 7.64406H19.6549C20.3217 7.64406 20.8549 8.11081 21.055 8.71081L22.9217 16.5778H17.4549L16.6551 13.1112C16.5219 12.6445 15.9884 12.4445 15.5884 12.7112L11.9216 15.5112C11.5216 15.8445 10.8548 15.778 10.5883 15.3112C10.1216 14.7112 10.5216 14.1112 10.7216 13.9777V13.9776ZM15.5884 14.3776L16.1216 16.5109H12.7883L15.5884 14.3776ZM3.78822 22.4446C2.3882 22.4446 1.32144 21.3113 1.32144 19.9778C1.32144 18.5778 2.45471 17.511 3.78822 17.511C5.12149 17.511 6.25499 18.6443 6.25499 19.9778C6.32151 21.3113 5.18823 22.4446 3.78822 22.4446ZM7.52152 22.0446C7.38826 22.0446 7.25478 21.9778 7.18826 21.8446C7.52152 21.3113 7.65501 20.6446 7.65501 19.9778C7.65501 19.3111 7.45501 18.6445 7.18826 18.111C7.255 17.9778 7.38826 17.911 7.52152 17.911H25.8549C28.3217 17.911 30.3217 19.7111 30.655 22.1111L7.52152 22.1113V22.0446Z" fill="#475569"/>
</svg>
