<svg width="20" height="26" viewBox="0 0 20 26" fill="none" xmlns="http://www.w3.org/2000/svg">
<path d="M14.72 -1.2415e-07C12 -1.2415e-07 9.76 2.24 9.76 4.96C9.76 5.22661 9.8134 5.54661 9.8134 5.81339H7.41339L6.88 4.05339C6.45339 2.72 5.22661 1.76 3.84 1.76H0.533394C0.213394 1.76 0 1.97339 0 2.29339C0 2.61339 0.213394 2.82679 0.533394 2.82679H3.84C4.8 2.82679 5.6 3.46679 5.86661 4.37339L6.29321 5.81339H4.31982C3.73321 5.81339 3.25321 6.29339 3.25321 6.88V22.56C3.25321 24.2134 4.58661 25.6 6.29321 25.6H10.7732C12.4266 25.6 13.8132 24.2666 13.8132 22.56L13.8134 9.81349C14.08 9.86688 14.4 9.86688 14.6668 9.86688C17.3868 9.86688 19.6268 7.62688 19.6268 4.90688C19.6268 2.1867 17.44 -9.15527e-05 14.7198 -9.15527e-05L14.72 -1.2415e-07ZM12.7468 22.56C12.7468 23.6266 11.8402 24.5334 10.7734 24.5334H6.29339C5.22679 24.5334 4.32 23.68 4.32 22.56V6.88H6.61339L7.84 11.0934L6.61339 12.32C6.50679 12.4266 6.34679 12.8 6.61339 13.0666C6.61339 13.0666 9.06679 15.6266 9.22679 15.5732L9.49339 16.4266L7.78679 14.72C7.57339 14.5066 7.2534 14.5066 7.04018 14.72L4.64018 17.12C4.42679 17.3334 4.42679 17.6534 4.64018 17.8666L7.04018 20.2666C7.14679 20.3732 7.46679 20.5332 7.78679 20.2666L9.9734 18.08L10.8268 21.0134C11.0402 21.4934 11.4134 21.3868 11.4668 21.3868C11.7334 21.2802 11.8934 21.0134 11.8402 20.7468L10.1868 15.0933L12.2134 13.0667C12.4268 12.8533 12.4268 12.5333 12.2134 12.3201L9.8134 9.92009C9.28 9.44009 8.74679 10.2401 8.74679 10.2401L7.73339 6.88009H12.7469L12.7468 22.56ZM9.06679 11.36L9.38679 11.04L11.0402 12.6934L9.8134 13.92L9.06679 11.36ZM8.64001 13.6L7.78661 12.7466L8.2134 12.2666L8.64001 13.6ZM9.0134 17.5466L7.36001 19.2L5.70661 17.5466L7.36001 15.8932L9.0134 17.5466ZM14.7199 8.80009C14.3999 8.80009 14.1333 8.7467 13.8665 8.69349V6.88009C13.8665 6.29349 13.3865 5.81349 12.7999 5.81349H10.9865C10.9331 5.54688 10.8799 5.22688 10.8799 4.96009C10.8799 2.8267 12.6399 1.0667 14.7733 1.0667C16.9067 1.0667 18.6667 2.8267 18.6667 4.96009C18.6667 7.09349 16.8533 8.80009 14.7199 8.80009Z" fill="#64748B"/>
</svg>
