<svg width="93" height="93" viewBox="0 0 93 93" fill="none" xmlns="http://www.w3.org/2000/svg">
<g clip-path="url(#clip0_249_3296)">
<path d="M54.0882 90.1503V75.5121L92.1475 63.2158C92.4987 63.099 92.7332 62.8646 92.85 62.6301C92.9668 62.3957 92.9668 62.0444 92.9668 61.6932L73.7615 2.32063C73.527 1.73493 72.9413 1.38368 72.2389 1.61812L23.0545 17.5445C22.7033 17.6613 22.4688 17.8957 22.352 18.1302C22.2352 18.3646 22.2352 18.7159 22.2352 19.0671L24.6948 26.6786H1.15662C0.45411 26.6786 -0.0147705 27.1466 -0.0147705 27.85V90.2672C-0.0147705 90.9697 0.453295 91.4386 1.15662 91.4386H52.9173C53.6198 91.321 54.0887 90.8521 54.0887 90.1496L54.0882 90.1503ZM32.4236 26.562L31.3699 23.0486L68.8437 10.9867L80.2029 46.1184L54.0884 54.55V27.7328C54.0884 27.0303 53.6203 26.5614 52.917 26.5614L32.4236 26.562ZM27.1541 26.562L24.8122 19.4185L71.8886 4.19459L90.3907 61.3421L54.088 73.0527L54.0888 57.0086L81.9599 47.9912C82.3111 47.8744 82.5456 47.64 82.6624 47.4055C82.7792 47.1711 82.7792 46.8199 82.7792 46.4686L70.7173 9.11191C70.4829 8.52622 69.8972 8.17496 69.1947 8.40941L29.4959 21.2914C28.9102 21.5259 28.559 22.1116 28.7934 22.8141L30.0816 26.6785L27.1541 26.562ZM51.7463 88.9792H2.32772V28.9041H51.7463V88.9792Z" fill="#2DD4BF"/>
<path d="M6.19202 73.7555H47.9987C48.7012 73.7555 49.1701 73.2874 49.1701 72.5841V33.2366C49.1701 32.5341 48.702 32.0653 47.9987 32.0653L6.19202 32.0661C5.48951 32.0661 5.02063 32.5341 5.02063 33.2375V72.4678C5.02145 73.1695 5.48951 73.7552 6.19202 73.7552V73.7555ZM7.36341 34.408H46.828V71.2963H7.36341V34.408Z" fill="#2DD4BF"/>
</g>
<defs>
<clipPath id="clip0_249_3296">
<rect width="93" height="93" fill="white"/>
</clipPath>
</defs>
</svg>
