<svg width="32" height="26" viewBox="0 0 32 26" fill="none" xmlns="http://www.w3.org/2000/svg">
<path d="M31.9225 17.3019C31.9225 14.7781 29.8635 12.7191 27.3397 12.7191L23.4875 6.14391C23.0225 5.28042 21.8935 4.74916 20.6315 4.74916H20.565L18.5725 1.09618C18.4398 0.896932 18.2405 0.764175 17.9748 0.764175H11.7314C11.4657 0.764175 11.2665 0.896932 11.1337 1.09618L9.1412 4.74916H9.07471C7.81272 4.74916 6.68372 5.28042 6.21872 6.14391L2.36649 12.7191H1.37025C0.639741 12.7191 0.0419922 13.3169 0.0419922 14.0474V19.759C0.0419922 20.4895 0.639741 21.0873 1.37025 21.0873H2.89775C2.96424 23.3455 4.82375 25.205 7.14848 25.205C9.47298 25.205 11.3327 23.3453 11.3992 21.0873H20.6313C20.6978 23.3455 22.5573 25.205 24.882 25.205C27.2065 25.205 29.0663 23.3453 29.1327 21.0873H30.6603C31.3908 21.0873 31.9885 20.4895 31.9885 19.759L31.9225 17.3019ZM22.2919 6.8077L25.7456 12.7186H15.5173V6.07674H20.6313C21.362 6.14345 22.0925 6.40896 22.2918 6.80747L22.2919 6.8077ZM12.1302 2.15869H17.5764L19.0376 4.81543H10.6692L12.1302 2.15869ZM7.34818 6.87419C7.61393 6.47569 8.27794 6.14368 9.07494 6.14368H14.1889V12.7855H3.9606L7.34818 6.87419ZM7.14893 23.943C5.55494 23.943 4.22669 22.6148 4.22669 21.0208C4.22669 19.4268 5.55494 18.0985 7.14893 18.0985C8.74293 18.0985 10.0712 19.4268 10.0712 21.0208C10.0714 22.6148 8.74293 23.943 7.14893 23.943ZM24.8161 23.943C23.2221 23.943 21.8938 22.6148 21.8938 21.0208C21.8938 19.4268 23.2221 18.0985 24.8161 18.0985C26.4101 18.0985 27.7383 19.4268 27.7383 21.0208C27.7383 22.6148 26.4764 23.943 24.8161 23.943ZM28.8673 19.8253C28.3361 18.0985 26.7421 16.8365 24.8159 16.8365C22.8899 16.8365 21.2959 18.0985 20.7644 19.8253H11.1338C10.6026 18.0985 9.00856 16.8365 7.08233 16.8365C5.15633 16.8365 3.56233 18.0985 3.03085 19.8253H1.3041V14.1137L27.2731 14.0472C29.0664 14.0472 30.5276 15.5084 30.5276 17.3016V19.7591L28.8673 19.8253Z" fill="#475569"/>
</svg>
