<svg width="20" height="21" viewBox="0 0 20 21" fill="none" xmlns="http://www.w3.org/2000/svg">
<mask id="mask0_244_1941" style="mask-type:alpha" maskUnits="userSpaceOnUse" x="0" y="0" width="20" height="21">
<rect y="0.5" width="20" height="20" fill="#D9D9D9"/>
</mask>
<g mask="url(#mask0_244_1941)">
<path d="M6.708 17.083H13.292V14.625C13.292 13.7083 12.9723 12.9237 12.333 12.271C11.6943 11.6183 10.9167 11.292 10 11.292C9.08333 11.292 8.30567 11.6183 7.667 12.271C7.02767 12.9237 6.708 13.7083 6.708 14.625V17.083ZM15.792 18.833H4.208C3.972 18.833 3.76733 18.7463 3.594 18.573C3.42 18.399 3.333 18.194 3.333 17.958C3.333 17.722 3.42 17.5173 3.594 17.344C3.76733 17.17 3.972 17.083 4.208 17.083H4.958V14.625C4.958 13.7917 5.142 13.014 5.51 12.292C5.878 11.5693 6.39533 10.972 7.062 10.5C6.39533 10.028 5.878 9.43067 5.51 8.708C5.142 7.986 4.958 7.21533 4.958 6.396V3.917H4.208C3.972 3.917 3.76733 3.83 3.594 3.656C3.42 3.48267 3.333 3.278 3.333 3.042C3.333 2.806 3.42 2.601 3.594 2.427C3.76733 2.25367 3.972 2.167 4.208 2.167H15.792C16.028 2.167 16.2327 2.25367 16.406 2.427C16.58 2.601 16.667 2.806 16.667 3.042C16.667 3.278 16.58 3.48267 16.406 3.656C16.2327 3.83 16.028 3.917 15.792 3.917H15.042V6.396C15.042 7.21533 14.858 7.986 14.49 8.708C14.122 9.43067 13.6047 10.028 12.938 10.5C13.6047 10.972 14.122 11.5693 14.49 12.292C14.858 13.014 15.042 13.7917 15.042 14.625V17.083H15.792C16.028 17.083 16.2327 17.17 16.406 17.344C16.58 17.5173 16.667 17.722 16.667 17.958C16.667 18.194 16.58 18.399 16.406 18.573C16.2327 18.7463 16.028 18.833 15.792 18.833Z" fill="#0369A1"/>
</g>
</svg>
