<svg width="28" height="32" viewBox="0 0 28 32" fill="none" xmlns="http://www.w3.org/2000/svg">
<path d="M6.60554 7.65981C6.73868 7.79295 7.13833 8.05946 7.53798 7.65981C7.80448 7.39331 7.80448 6.99366 7.53798 6.72738C6.87182 6.06122 6.87182 5.06211 7.53798 4.39618C8.67023 3.26392 8.67023 1.33214 7.53798 0.199881C7.27147 -0.066627 6.87182 -0.066627 6.60554 0.199881C6.33903 0.466389 6.33903 0.866036 6.60554 1.13232C7.2717 1.79847 7.2717 2.79759 6.60554 3.46352C5.47328 4.66246 5.47328 6.52733 6.60554 7.65981Z" fill="#64748B"/>
<path d="M10.2693 7.65981C10.4024 7.79295 10.8021 7.99278 11.2017 7.65981C11.4682 7.39331 11.4682 6.99366 11.2017 6.72738C10.5356 6.06122 10.5356 5.06211 11.2017 4.39618C12.334 3.26392 12.334 1.33214 11.2017 0.199881C10.9352 -0.066627 10.5356 -0.066627 10.2693 0.199881C10.0028 0.466389 10.0028 0.866036 10.2693 1.13232C10.9354 1.79847 10.9354 2.79759 10.2693 3.46352C9.1368 4.66246 9.1368 6.52733 10.2693 7.65981Z" fill="#64748B"/>
<path d="M13.9988 7.65981C14.132 7.79295 14.5316 7.99278 14.9313 7.65981C15.1978 7.39331 15.1978 6.99366 14.9313 6.72738C14.2651 6.06122 14.2651 5.06211 14.9313 4.39618C16.0635 3.26392 16.0635 1.33214 14.9313 0.199881C14.6647 -0.066627 14.2651 -0.066627 13.9988 0.199881C13.7323 0.466389 13.7323 0.866036 13.9988 1.13232C14.665 1.79847 14.665 2.79759 13.9988 3.46352C12.7999 4.66246 12.7999 6.52733 13.9988 7.65981Z" fill="#64748B"/>
<path d="M13.133 17.1178C12.7333 17.1178 12.4668 17.3843 12.4668 17.7839C12.4668 18.1836 12.7333 18.4501 13.133 18.4501C17.1294 18.4501 20.6595 16.0522 22.125 12.3886C22.2582 12.0556 22.125 11.6559 21.7254 11.5226C21.3924 11.3894 20.9928 11.5226 20.8594 11.9222C19.594 15.053 16.53 17.1176 13.1331 17.1176L13.133 17.1178Z" fill="#64748B"/>
<path d="M26.7877 0.998839C25.9885 0.199545 24.6564 0.199545 23.8571 0.998839L16.197 8.65894H1.277C0.877348 8.65894 0.61084 8.9919 0.61084 9.3251C0.877348 15.7863 5.87294 20.8481 12.0008 21.2477L6.67224 30.9723C6.47241 31.3053 6.60555 31.7049 6.93874 31.9047C7.27171 32.1045 7.67135 31.9714 7.87118 31.6382L13.1333 22.0467L18.3954 31.6382C18.5952 31.9712 18.9949 32.1045 19.3278 31.9047C19.6608 31.7049 19.7941 31.3053 19.5943 30.9723L14.2658 21.2477C23.1242 20.3817 25.4559 12.4555 25.6557 9.32452C25.6557 8.92488 25.3892 8.65837 24.9896 8.65837H22.1253L26.8544 3.92928C27.5873 3.12999 27.5873 1.79791 26.788 0.998611L26.7877 0.998839ZM13.0667 19.9821C7.47165 20.1152 2.60908 15.6527 2.00961 9.99091H24.2568C23.8572 12.3221 22.0588 19.7155 13.0667 19.9821ZM25.8554 2.99708L20.1937 8.65883H18.0623L24.7895 1.93105C25.056 1.66454 25.5888 1.66454 25.8553 1.93105C25.9885 2.06441 26.255 2.46406 25.8553 2.99685L25.8554 2.99708Z" fill="#64748B"/>
</svg>
