<svg width="20" height="21" viewBox="0 0 20 21" fill="none" xmlns="http://www.w3.org/2000/svg">
<mask id="mask0_447_1890" style="mask-type:alpha" maskUnits="userSpaceOnUse" x="0" y="0" width="20" height="21">
<rect y="0.5" width="20" height="20" fill="#D9D9D9"/>
</mask>
<g mask="url(#mask0_447_1890)">
<path d="M6.70801 17.083H13.292V14.625C13.292 13.7083 12.9723 12.9237 12.333 12.271C11.6943 11.6183 10.9167 11.292 10 11.292C9.08334 11.292 8.30567 11.6183 7.66701 12.271C7.02767 12.9237 6.70801 13.7083 6.70801 14.625V17.083ZM15.792 18.833H4.20801C3.97201 18.833 3.76734 18.7463 3.59401 18.573C3.42001 18.399 3.33301 18.194 3.33301 17.958C3.33301 17.722 3.42001 17.5173 3.59401 17.344C3.76734 17.17 3.97201 17.083 4.20801 17.083H4.95801V14.625C4.95801 13.7917 5.14201 13.014 5.51001 12.292C5.87801 11.5693 6.39534 10.972 7.06201 10.5C6.39534 10.028 5.87801 9.43066 5.51001 8.70799C5.14201 7.98599 4.95801 7.21533 4.95801 6.39599V3.91699H4.20801C3.97201 3.91699 3.76734 3.82999 3.59401 3.65599C3.42001 3.48266 3.33301 3.27799 3.33301 3.04199C3.33301 2.80599 3.42001 2.60099 3.59401 2.42699C3.76734 2.25366 3.97201 2.16699 4.20801 2.16699H15.792C16.028 2.16699 16.2327 2.25366 16.406 2.42699C16.58 2.60099 16.667 2.80599 16.667 3.04199C16.667 3.27799 16.58 3.48266 16.406 3.65599C16.2327 3.82999 16.028 3.91699 15.792 3.91699H15.042V6.39599C15.042 7.21533 14.858 7.98599 14.49 8.70799C14.122 9.43066 13.6047 10.028 12.938 10.5C13.6047 10.972 14.122 11.5693 14.49 12.292C14.858 13.014 15.042 13.7917 15.042 14.625V17.083H15.792C16.028 17.083 16.2327 17.17 16.406 17.344C16.58 17.5173 16.667 17.722 16.667 17.958C16.667 18.194 16.58 18.399 16.406 18.573C16.2327 18.7463 16.028 18.833 15.792 18.833Z" fill="#0369A1"/>
</g>
</svg>
