<svg width="32" height="30" viewBox="0 0 32 30" fill="none" xmlns="http://www.w3.org/2000/svg">
<path d="M31.3217 8.28493H30.3217C29.9885 5.35171 27.655 2.95174 24.7218 2.685V1.28502C24.7218 0.885025 24.4551 0.618286 24.0551 0.618286C23.6551 0.618286 23.3883 0.885025 23.3883 1.28502V2.685C20.4551 3.01825 18.0552 5.35171 17.7884 8.28493H16.7884C16.3884 8.28493 16.1217 8.55167 16.1217 8.95166C16.1217 9.35165 16.3884 9.61839 16.7884 9.61839H21.9884L19.1217 14.6851L11.4549 11.4184H11.3216C12.5884 10.4851 13.4549 8.95166 13.4549 7.21843C13.4549 4.41846 11.1216 2.08524 8.25494 2.08524C5.38824 2.08524 3.12176 4.48521 3.12176 7.28517C3.12176 9.0184 3.98849 10.4851 5.32173 11.4184C2.122 12.4184 -0.0112305 15.2848 -0.0112305 18.5514V28.6844C-0.0112305 29.0844 0.255509 29.3512 0.655503 29.3512H14.1222C14.5222 29.3512 14.7889 29.0844 14.7889 28.6844L14.7887 19.3514C20.0554 20.6181 20.1219 20.6846 20.6555 20.6846C21.9222 20.6846 22.9887 19.9514 23.5222 18.8179L26.5221 12.018C26.8554 11.2848 26.8554 10.4848 26.4554 9.68479H31.3218C31.7218 9.68479 31.9886 9.41805 31.9886 9.01806C31.9886 8.61829 31.7218 8.28481 31.3218 8.28481L31.3217 8.28493ZM4.38894 7.28494C4.38894 5.15171 6.05566 3.41825 8.18889 3.41825C10.2556 3.41825 11.9888 5.08497 11.9888 7.2182C11.9888 9.35143 10.3221 11.0849 8.18889 11.0849H8.12215C6.18892 11.0849 4.45568 9.4184 4.38894 7.28494ZM25.2555 11.4184L22.3221 18.2846C21.9888 19.0846 21.1221 19.4845 20.2554 19.2845L14.2554 17.8846C14.0554 17.8178 13.8554 17.8846 13.6554 18.0178C13.5222 18.1511 13.3887 18.3511 13.3887 18.5511V28.0178L1.32258 28.018V18.5513C1.32258 15.8846 3.12256 13.4846 5.65578 12.7514H10.989L19.0557 16.2181C19.389 16.3513 19.7224 16.2181 19.9224 15.9513L23.1224 10.2847C23.4557 9.75142 24.1224 9.55142 24.7224 9.75142C25.2559 10.0182 25.5891 10.7514 25.2559 11.4181L25.2555 11.4184ZM19.1219 8.28493C19.4551 5.81822 21.5219 3.95173 24.0551 3.95173C26.5883 3.95173 28.655 5.81844 28.9883 8.28493H19.1221H19.1219Z" fill="#475569"/>
</svg>
