<svg width="20" height="21" viewBox="0 0 20 21" fill="none" xmlns="http://www.w3.org/2000/svg">
<mask id="mask0_277_1598" style="mask-type:alpha" maskUnits="userSpaceOnUse" x="0" y="0" width="20" height="21">
<rect y="0.5" width="20" height="20" fill="#D9D9D9"/>
</mask>
<g mask="url(#mask0_277_1598)">
<path d="M14.5 18.5C13.8053 18.5 13.215 18.257 12.729 17.771C12.243 17.285 12 16.6947 12 16C12 15.8887 12.007 15.788 12.021 15.698C12.035 15.6073 12.0557 15.5067 12.083 15.396L7.125 12.375C6.91633 12.597 6.66967 12.7567 6.385 12.854C6.10033 12.9513 5.80533 13 5.5 13C4.80533 13 4.215 12.757 3.729 12.271C3.243 11.785 3 11.1947 3 10.5C3 9.80533 3.243 9.215 3.729 8.729C4.215 8.243 4.80533 8 5.5 8C5.80533 8 6.10033 8.052 6.385 8.156C6.66967 8.26 6.91633 8.41633 7.125 8.625L12.083 5.604C12.0557 5.49333 12.035 5.39267 12.021 5.302C12.007 5.212 12 5.11133 12 5C12 4.30533 12.243 3.715 12.729 3.229C13.215 2.743 13.8053 2.5 14.5 2.5C15.1947 2.5 15.785 2.743 16.271 3.229C16.757 3.715 17 4.30533 17 5C17 5.69467 16.757 6.285 16.271 6.771C15.785 7.257 15.1947 7.5 14.5 7.5C14.1947 7.5 13.8997 7.45133 13.615 7.354C13.3303 7.25667 13.0837 7.097 12.875 6.875L7.917 9.896C7.94433 10.0067 7.965 10.1073 7.979 10.198C7.993 10.288 8 10.3887 8 10.5C8 10.6113 7.993 10.712 7.979 10.802C7.965 10.8927 7.94433 10.9933 7.917 11.104L12.875 14.125C13.0837 13.889 13.3303 13.7257 13.615 13.635C13.8997 13.545 14.1947 13.5 14.5 13.5C15.1947 13.5 15.785 13.743 16.271 14.229C16.757 14.715 17 15.3053 17 16C17 16.6947 16.757 17.285 16.271 17.771C15.785 18.257 15.1947 18.5 14.5 18.5ZM14.5 6C14.778 6 15.014 5.90267 15.208 5.708C15.4027 5.514 15.5 5.278 15.5 5C15.5 4.722 15.4027 4.486 15.208 4.292C15.014 4.09733 14.778 4 14.5 4C14.222 4 13.986 4.09733 13.792 4.292C13.5973 4.486 13.5 4.722 13.5 5C13.5 5.278 13.5973 5.514 13.792 5.708C13.986 5.90267 14.222 6 14.5 6ZM5.5 11.5C5.778 11.5 6.014 11.4027 6.208 11.208C6.40267 11.014 6.5 10.778 6.5 10.5C6.5 10.222 6.40267 9.986 6.208 9.792C6.014 9.59733 5.778 9.5 5.5 9.5C5.222 9.5 4.986 9.59733 4.792 9.792C4.59733 9.986 4.5 10.222 4.5 10.5C4.5 10.778 4.59733 11.014 4.792 11.208C4.986 11.4027 5.222 11.5 5.5 11.5ZM14.5 17C14.778 17 15.014 16.9027 15.208 16.708C15.4027 16.514 15.5 16.278 15.5 16C15.5 15.722 15.4027 15.486 15.208 15.292C15.014 15.0973 14.778 15 14.5 15C14.222 15 13.986 15.0973 13.792 15.292C13.5973 15.486 13.5 15.722 13.5 16C13.5 16.278 13.5973 16.514 13.792 16.708C13.986 16.9027 14.222 17 14.5 17Z" fill="#64748B"/>
</g>
</svg>
