<svg width="26" height="24" viewBox="0 0 26 24" fill="none" xmlns="http://www.w3.org/2000/svg">
<path d="M22.7878 12.8317C22.7878 13.1644 22.7877 13.4495 22.7395 13.7347C22.6429 15.0653 22.305 16.301 21.7739 17.4416C21.5808 17.9168 21.3394 18.3446 21.0497 18.7723C19.022 21.9089 15.4493 24 11.3939 24C9.65583 24 8.01434 23.6198 6.56596 22.9545C2.70363 21.196 0 17.299 0 12.8317C0 8.41188 2.60707 4.6099 6.32457 2.80396C6.03489 3.18415 5.74522 3.56435 5.50382 3.99207C5.50382 4.0396 5.45554 4.0396 5.45554 4.08712C5.3107 4.2297 5.16587 4.32475 5.02103 4.46732C4.82791 4.6099 4.68308 4.8 4.48996 4.94257L4.3934 5.03762L4.29684 5.13267C4.24856 5.18019 4.20028 5.27524 4.10373 5.32277C4.00717 5.46534 3.86233 5.60792 3.76577 5.75049C3.28298 6.36831 2.89675 7.03366 2.60707 7.74653C2.55879 7.79406 2.55879 7.88911 2.51051 7.93663C2.46224 8.03168 2.46224 8.12673 2.41396 8.17425C2.41396 8.22178 2.36568 8.2693 2.36568 8.31683C2.3174 8.4594 2.26912 8.55445 2.22084 8.69703C2.17256 8.79208 2.17256 8.88713 2.12428 8.93465C2.12428 8.98218 2.076 9.0297 2.076 9.07723C2.076 9.17227 2.02772 9.26732 2.02772 9.36237L1.88289 10.2178C1.88289 10.3129 1.88289 10.3604 1.83461 10.4554V11.596C1.83461 14.6376 3.2347 17.3941 5.50382 19.1525C7.24187 20.5307 9.41443 21.3861 11.7801 21.3861C13.9527 21.3861 15.9321 20.7208 17.5736 19.5327C18.7806 18.6772 19.7462 17.5842 20.4704 16.301C20.5669 16.1109 20.6635 15.9683 20.76 15.7782C21.3394 14.5901 21.6773 13.3069 21.6773 11.9287V11.596C21.6773 11.2634 21.6773 10.9782 21.629 10.6455L21.6773 10.6931C21.8222 10.8356 21.967 10.9307 22.1118 11.0733C22.2567 10.8356 22.4015 10.6455 22.5464 10.4079C22.6429 10.8356 22.6912 11.2634 22.7395 11.7386C22.7877 12.1663 22.7878 12.499 22.7878 12.8317Z" fill="#ED1C24"/>
<path d="M12.7457 3.84951L10.6214 0C7.09706 1.56832 4.68311 5.03763 4.68311 9.07723C4.68311 11.1208 5.31073 13.0218 6.37288 14.5901C6.27632 14.0673 6.27632 13.5446 6.27632 12.9743C6.3246 8.83961 8.97995 5.32277 12.7457 3.84951Z" fill="#F7941D"/>
<path d="M14.4353 5.7505C15.3043 5.51287 16.2699 5.41782 17.1872 5.41782C17.7665 5.41782 18.3942 5.46535 18.9252 5.5604L18.877 3.8495L18.7804 0.427722C18.3942 0.380197 17.9597 0.332672 17.5252 0.332672C15.594 0.332672 13.8077 0.950494 12.3593 1.94851L13.518 4.0396C11.442 4.75248 9.75221 6.17822 8.69007 8.03168C8.159 8.93466 7.77277 9.9802 7.62793 11.0733C7.9176 10.503 8.25556 9.9802 8.64179 9.50495C10.0419 7.69901 12.0696 6.32079 14.4353 5.7505Z" fill="#ED1C24"/>
<path d="M19.5048 3.80199L19.6014 6.22575C18.7806 5.98813 17.9599 5.84555 17.0426 5.84555C15.3528 5.84555 13.7596 6.3208 12.3595 7.12872C10.6215 8.17427 9.26966 9.83763 8.59375 11.7861C9.26966 10.8832 10.0904 10.0753 11.056 9.45743C12.4561 8.55446 14.1459 8.03169 15.9322 8.03169C17.284 8.03169 18.5393 8.31684 19.698 8.83961C20.567 9.21981 21.3394 9.74258 22.0153 10.4079L23.3672 8.41189L25.1052 5.79803C23.5603 4.56238 21.6291 3.80199 19.5048 3.80199Z" fill="#F7941D"/>
<path d="M21.6772 11.6911V12.0238C21.6772 14.0198 20.8565 15.6832 20.7599 15.8733C20.6633 16.0634 20.5668 16.2059 20.4702 16.396C19.746 17.6792 18.7804 18.7723 17.5735 19.6277C15.932 20.7683 13.9525 21.4812 11.78 21.4812C9.4143 21.4812 7.19346 20.6733 5.50369 19.2475C3.28285 17.4416 1.83447 14.7327 1.83447 11.6911V10.5505C1.83447 10.4554 1.83447 10.4079 1.88275 10.3129L2.02759 9.45742C2.02759 9.36237 2.07587 9.26733 2.07587 9.17228C2.07587 9.12475 2.12415 9.07723 2.12415 9.0297C2.17243 8.93465 2.17243 8.8396 2.22071 8.79208C2.26898 8.6495 2.31726 8.50693 2.36554 8.41188C2.36554 8.36435 2.41382 8.31683 2.41382 8.26931C2.4621 8.17426 2.4621 8.07921 2.51038 8.03168C2.55866 7.98416 2.55866 7.88911 2.60694 7.84158C2.89661 7.12871 3.33113 6.46336 3.76564 5.84554C3.8622 5.70297 4.00703 5.56039 4.10359 5.41782C4.15187 5.37029 4.20015 5.27524 4.29671 5.22772C4.34499 5.1802 4.34499 5.13267 4.39327 5.13267C4.44155 5.08515 4.44155 5.03762 4.48982 5.03762C4.63466 4.84752 4.82778 4.70495 5.0209 4.56237C5.16573 4.4198 5.31057 4.32475 5.45541 4.18217C5.45541 4.2297 5.40713 4.2297 5.40713 4.27722C5.40713 4.32475 5.35885 4.37227 5.35885 4.37227C4.7795 5.51287 4.39327 6.89109 4.24843 8.31683C4.20015 8.69703 4.20015 9.07723 4.20015 9.50495C4.20015 14.6376 7.24173 18.7723 11.0075 18.7723H11.3937C11.9248 18.7723 12.4559 18.6772 12.987 18.5822C15.5457 17.9168 17.4286 15.5881 17.4286 12.8792V12.7366C17.3804 11.1208 16.7044 9.64752 15.594 8.6495C16.3665 8.6495 17.139 8.79208 17.8631 8.98218C19.2632 9.31485 20.5185 9.9802 21.6289 10.8356L21.6772 10.8832C21.6289 11.0733 21.6772 11.4059 21.6772 11.6911Z" fill="#F7941D"/>
<path d="M21.6774 11.6911V12.0238C21.6774 14.1149 20.7119 15.9208 20.7119 15.9208C20.6153 16.1109 20.5187 16.2535 20.4222 16.4436C19.698 17.7267 18.6841 18.8198 17.4772 19.6753C15.7874 20.9109 13.7597 21.5287 11.6354 21.5287C9.31798 21.5287 7.09714 20.7208 5.31082 19.2951C2.99342 17.4416 1.6416 14.6376 1.6416 11.6911C1.6416 8.74456 2.99342 5.9406 5.31082 4.08713L5.40737 3.99208C5.40737 4.03961 5.35909 4.03961 5.35909 4.08713C5.35909 4.13465 5.31082 4.13465 5.31082 4.18218C3.0417 6.03565 1.73816 8.74456 1.73816 11.6911C1.73816 14.6376 3.0417 17.3465 5.35909 19.2475C7.09714 20.6733 9.36626 21.4337 11.6354 21.4337C13.7114 21.4337 15.7391 20.8158 17.4289 19.5802C18.6359 18.7248 19.6014 17.6317 20.3256 16.3485C20.4222 16.1584 20.5187 16.0158 20.567 15.8257C20.567 15.8257 21.5326 14.0673 21.5326 11.9762V11.6436C21.5326 11.3109 21.5326 11.0257 21.4843 10.6931V10.6455L21.5326 10.6931L21.5809 10.7406C21.6774 11.1208 21.6774 11.4059 21.6774 11.6911Z" fill="#F7941D"/>
</svg>
