<svg width="25" height="23" viewBox="0 0 25 23" fill="none" xmlns="http://www.w3.org/2000/svg">
<path d="M19.6765 12.9246L9.19189 11.2817L10.5818 17.5293L19.6765 12.9246Z" fill="#D12053"/>
<path d="M19.6765 12.9247L11.7759 1.94775L9.19385 11.2837L19.6765 12.9247Z" fill="#E2136E"/>
<path d="M8.94953 11.1571L0.671387 0.577621L11.5119 1.87263L8.94953 11.1571Z" fill="#D12053"/>
<path d="M5.17881 6.73629L0.582031 2.40445H1.79202L5.17881 6.73629Z" fill="#9E1638"/>
<path d="M21.9134 7.58847L19.9679 12.8654L16.8145 8.50387L21.9134 7.58847Z" fill="#D12053"/>
<path d="M11.8057 17.213L19.4393 14.1465L19.7596 13.1718L11.8057 17.213Z" fill="#E2136E"/>
<path d="M5.70068 23L8.97082 11.5288L10.6296 18.9924L5.70068 23Z" fill="#9E1638"/>
<path d="M22.2173 7.62994L21.4146 9.80872L24.309 9.76127L22.2173 7.62994Z" fill="#E2136E"/>
</svg>
