<svg width="78" height="78" viewBox="0 0 78 78" fill="none" xmlns="http://www.w3.org/2000/svg">
<g clip-path="url(#clip0_194_1484)">
<path d="M59.5939 11.2792C65.809 10.2164 71.1609 11.1365 71.2465 11.1522C71.6107 11.2181 71.9845 11.0686 72.2047 10.7676C72.4241 10.4672 72.454 10.0676 72.2808 9.73805C69.9982 5.41215 66.1799 2.24622 61.5279 0.825999C56.905 -0.58676 52.0123 -0.104294 47.7503 2.1844C43.6091 4.40641 40.5641 8.10987 39.1032 12.4549C37.6313 8.10935 34.5734 4.38884 30.4642 2.1844C26.2015 -0.104242 21.3074 -0.584724 16.6867 0.825999C12.0346 2.2476 8.21683 5.41215 5.93428 9.73805C5.76236 10.0663 5.78954 10.4631 6.00631 10.7628C6.22241 11.0631 6.59207 11.2106 6.95562 11.1535C7.03581 11.1399 12.0229 10.3476 17.9465 11.2616C7.89414 12.3291 0.0336914 20.9218 0.0336914 31.335C0.0336914 31.7155 0.255214 32.0621 0.60178 32.2204C0.730893 32.2795 0.870204 32.3094 1.00814 32.3094C1.23646 32.3094 1.46275 32.2286 1.64282 32.0743C1.78552 31.9513 13.2725 22.3046 26.4149 25.3176C23.5214 25.5147 20.6688 26.5272 18.2205 28.3641C11.3803 33.4966 9.95383 43.284 15.0422 50.1823C15.2277 50.4344 15.5206 50.5778 15.8264 50.5778C15.8977 50.5778 15.9698 50.5703 16.0411 50.554C16.4189 50.4684 16.7098 50.168 16.7832 49.7875C16.8056 49.6706 18.5581 41.0623 25.2631 36.2213C25.2672 39.2983 27.772 41.8009 30.8509 41.8009C31.9484 41.8009 32.9752 41.4666 33.8504 40.9067L31.4808 51.5454C29.5142 51.4646 27.6925 50.552 26.453 48.9966C26.084 48.5324 25.2978 48.5324 24.9288 48.9966C23.6302 50.6261 21.6949 51.5611 19.6202 51.5611C19.082 51.5611 18.6457 51.9967 18.6457 52.5356C18.6457 53.0738 19.0813 53.51 19.6202 53.51C21.9109 53.51 24.0684 52.6253 25.6906 51.0514C27.1441 52.4615 29.0272 53.3122 31.0507 53.4754L27.6054 68.9505C17.9601 69.2855 8.97758 70.0276 0.905762 71.1624C0.373005 71.2378 0.00197903 71.7305 0.0774087 72.2633C0.146042 72.7491 0.562604 73.1011 1.041 73.1011C1.08585 73.1011 1.13138 73.0984 1.17826 73.0916C9.03976 71.986 17.7841 71.2575 27.1681 70.9164L26.8963 72.1362C26.5776 73.5632 26.9201 75.0351 27.8341 76.1754C28.7494 77.3177 30.1112 77.9721 31.5735 77.9721H46.4996C47.962 77.9721 49.3244 77.3183 50.2384 76.1782C51.1537 75.0372 51.4949 73.5647 51.1782 72.1376L50.907 70.9198C60.282 71.263 69.0112 71.9928 76.8586 73.0984C76.9055 73.1051 76.951 73.1079 76.9959 73.1079C77.4736 73.1079 77.8908 72.7559 77.9595 72.27C78.0349 71.7372 77.6639 71.2446 77.1311 71.1692C69.0758 70.0337 60.1067 69.2909 50.4698 68.9539L47.017 53.4461C48.9266 53.226 50.6966 52.3915 52.0782 51.0514C53.7003 52.6252 55.8579 53.51 58.1486 53.51C58.6868 53.51 59.1231 53.0744 59.1231 52.5355C59.1231 51.9973 58.6875 51.5611 58.1486 51.5611C56.0739 51.5611 54.1386 50.626 52.84 48.9965C52.471 48.5324 51.6848 48.5324 51.3158 48.9965C50.1395 50.4725 48.4407 51.3707 46.5903 51.5285L44.2839 41.1703C45.0532 41.5651 45.9135 41.8003 46.8241 41.8003C49.9058 41.8003 52.4126 39.2935 52.4126 36.2131C52.4126 36.1601 52.3984 36.1098 52.397 36.0575C54.441 37.4676 56.2555 39.3539 57.8286 41.712C60.5393 45.7743 61.479 49.7801 61.4886 49.8201C61.5735 50.1912 61.8671 50.4793 62.2401 50.5568C62.3061 50.571 62.3727 50.5778 62.4379 50.5778C62.743 50.5778 63.0366 50.4344 63.2221 50.1823C68.309 43.2844 66.8827 33.4963 60.0426 28.3641C57.5038 26.4587 54.556 25.4374 51.5809 25.2845C55.9286 24.2353 60.5446 24.4969 65.3919 26.0829C71.8495 28.1957 76.3175 31.9833 76.361 32.0214C76.5411 32.175 76.766 32.2559 76.9943 32.2559C77.1323 32.2559 77.2709 32.2267 77.4014 32.1662C77.7473 32.0078 77.9688 31.6626 77.9688 31.2821C77.9688 20.7343 69.8558 12.0785 59.595 11.28L59.5939 11.2792ZM48.671 3.90014C52.4724 1.86148 56.8357 1.42867 60.9584 2.68921C64.4832 3.76492 67.4724 5.96456 69.5417 8.96887C65.1947 8.55571 54.8677 8.35458 47.1876 14.4527C47.1462 14.4853 47.1244 14.5308 47.0905 14.5682C44.0978 16.5701 41.6562 19.3596 40.0831 22.6656V18.2092C40.1293 12.2021 43.4204 6.71817 48.6718 3.90017L48.671 3.90014ZM32.299 56.8436H45.7763L47.5811 64.9498H30.4934L32.299 56.8436ZM32.7325 54.8954L34.5374 46.7891L43.5371 46.7884L45.3426 54.8954L32.7325 54.8954ZM34.9716 44.8402L36.3952 38.4478C37.174 38.8603 38.0594 39.0961 38.9999 39.0961C39.9676 39.0961 40.8782 38.8481 41.6732 38.4139L43.1043 44.8402L34.9716 44.8402ZM42.6394 33.5089C42.6394 35.5155 41.0072 37.1478 38.9998 37.1478C36.9932 37.1478 35.3609 35.5156 35.3609 33.5089C35.3609 31.5016 36.9931 29.8693 38.9998 29.8693C41.0065 29.8686 42.6394 31.5015 42.6394 33.5089ZM8.65433 8.99599C10.7236 5.97811 13.7203 3.76897 17.2546 2.68919C21.378 1.42933 25.7406 1.86152 29.5421 3.90012C34.5897 6.6087 37.8759 11.8766 38.1178 17.6466C38.1199 17.6948 38.1416 17.7363 38.1504 17.7825C38.1464 17.9224 38.1341 18.0618 38.1328 18.2024V22.6997C36.4319 19.1131 33.7199 16.117 30.3875 14.0783C30.3603 14.0532 30.3447 14.0206 30.3134 13.9981C22.7447 8.51626 12.8599 8.63664 8.65522 8.99605L8.65433 8.99599ZM2.09267 29.3043C3.09634 20.1991 10.7697 13.0952 20.0577 13.0952C28.7537 13.0952 36.2714 19.4843 37.8226 28.0484C37.5474 28.1075 37.281 28.1911 37.0221 28.2897C22.3841 17.1229 7.12684 25.7985 2.09413 29.3042L2.09267 29.3043ZM15.4788 47.2136C12.4392 41.3702 13.9784 33.981 19.389 29.9222C24.0261 26.4436 30.32 26.3471 35.0373 29.5736C34.5936 30.02 34.23 30.5433 33.9562 31.1182C21.7843 32.0185 17.0064 42.5432 15.4797 47.2136H15.4788ZM30.8499 39.8515C28.8426 39.8515 27.2103 38.2193 27.2103 36.2126C27.2103 35.7227 27.2966 35.2762 27.4529 34.8753C29.1714 33.998 31.1556 33.3755 33.4307 33.1268C33.4219 33.2539 33.4117 33.3796 33.4117 33.5087C33.4117 34.7305 33.8106 35.8579 34.4785 36.7787C34.4622 36.8242 34.4337 36.8622 34.4242 36.9105C34.0919 38.6148 32.5887 39.8515 30.8498 39.8515L30.8499 39.8515ZM48.7175 74.9587C48.1745 75.6355 47.3659 76.0235 46.4981 76.0235H31.572C30.7042 76.0235 29.8956 75.6355 29.3533 74.958C28.8104 74.2819 28.6072 73.408 28.7968 72.5614L30.0573 66.8987H48.0119L49.2724 72.56C49.4627 73.408 49.2588 74.2812 48.7166 74.9587L48.7175 74.9587ZM50.1758 34.7945C50.3653 35.2436 50.4612 35.72 50.4612 36.212C50.4612 38.2186 48.8289 39.8509 46.8215 39.8509C45.3626 39.8509 44.081 38.9757 43.5067 37.6907L43.4442 37.4093C43.417 37.2891 43.364 37.183 43.2994 37.0865C43.2981 37.0825 43.2967 37.0784 43.2961 37.0743C44.1006 36.106 44.5858 34.8631 44.5858 33.5095C44.5858 33.3743 44.5749 33.2424 44.5654 33.1099C46.57 33.36 48.4375 33.9159 50.1689 34.7619C50.173 34.7721 50.1709 34.7836 50.1757 34.7945L50.1758 34.7945ZM62.748 47.2755C62.167 45.6181 61.1402 43.182 59.4827 40.6846C55.6883 34.9664 50.3504 31.6639 44.0321 31.0997C43.7807 30.5765 43.4518 30.0981 43.0577 29.6802C47.7974 26.3253 54.1442 26.3749 58.8692 29.9207C64.3008 33.9952 65.8324 41.4225 62.748 47.2754L62.748 47.2755ZM41.0689 28.3224C40.8439 28.232 40.6109 28.1586 40.3724 28.0982C41.8796 19.538 49.3681 13.1477 58.0486 13.1477C67.2767 13.1477 74.9018 20.204 75.9057 29.2494C70.8779 25.7506 55.6497 17.1 41.0682 28.3226L41.0689 28.3224Z" fill="#FBBF24"/>
<path d="M7.07845 63.5687C9.36917 63.5687 11.5266 62.6839 13.1481 61.1101C14.7695 62.6839 16.9271 63.5687 19.2185 63.5687C21.8897 63.5687 24.3803 62.3659 26.05 60.2695C26.385 59.8489 26.3157 59.2352 25.8951 58.9002C25.4717 58.5652 24.8608 58.6339 24.5258 59.0552C23.2272 60.6847 21.2932 61.6197 19.2179 61.6197C17.1418 61.6197 15.2079 60.6847 13.9093 59.0552C13.5403 58.591 12.7541 58.591 12.3851 59.0552C11.0865 60.6847 9.15252 61.6197 7.07716 61.6197C5.0011 61.6197 3.06717 60.6847 1.76855 59.0552C1.43489 58.6345 0.821954 58.5632 0.39928 58.9002C-0.0213591 59.2352 -0.0906662 59.8489 0.244345 60.2695C1.91533 62.3659 4.40585 63.5687 7.07842 63.5687H7.07845Z" fill="#FBBF24"/>
<path d="M76.2318 59.0559C74.9333 60.6854 72.9993 61.6204 70.9239 61.6204C68.8479 61.6204 66.9139 60.6854 65.6153 59.0559C65.2463 58.5918 64.4601 58.5918 64.0911 59.0559C62.7925 60.6854 60.8586 61.6204 58.7825 61.6204C56.7078 61.6204 54.7732 60.6854 53.4746 59.0559C53.1396 58.6353 52.5287 58.5639 52.1053 58.901C51.6847 59.236 51.6154 59.8496 51.9504 60.2702C53.62 62.3673 56.1105 63.5694 58.7819 63.5694C61.074 63.5694 63.2315 62.6847 64.8523 61.1108C66.4736 62.6846 68.6312 63.5694 70.9226 63.5694C73.5938 63.5694 76.0844 62.3666 77.7541 60.2702C78.0891 59.8496 78.0198 59.236 77.5992 58.901C77.1785 58.5659 76.567 58.6346 76.2319 59.0559H76.2318Z" fill="#FBBF24"/>
</g>
<defs>
<clipPath id="clip0_194_1484">
<rect width="78" height="78" fill="white"/>
</clipPath>
</defs>
</svg>
