<svg width="78" height="78" viewBox="0 0 78 78" fill="none" xmlns="http://www.w3.org/2000/svg">
<g clip-path="url(#clip0_194_1381)">
<path d="M78.061 28.7541C78.061 28.2154 77.6244 27.7788 77.0858 27.7788C56.1302 27.7788 38.6325 39.0712 35.5612 41.1694C19.7365 33.8922 1.78797 34.4955 0.936586 34.5315C0.39863 34.5533 -0.0203222 35.0063 0.000762166 35.5442C0.0218448 36.0822 0.489759 36.4957 1.01344 36.4801C1.24399 36.4732 24.2097 35.6952 40.581 46.0927C57.149 56.6159 76.1824 56.7581 77.0634 56.7581H77.094C77.6326 56.7527 78.0645 56.3126 78.0597 55.7747C78.055 55.2394 77.619 54.8083 77.0844 54.8083H77.0756C76.8702 54.8062 58.0039 54.8491 41.6257 44.4468C40.3144 43.6137 38.9645 42.8581 37.5941 42.1576C42.2486 39.1346 58.2484 29.7287 77.085 29.7287C77.6243 29.7293 78.061 29.2927 78.061 28.7541L78.061 28.7541Z" fill="#FBBF24"/>
<path d="M77.0863 62.9536C74.8086 62.9536 73.6497 63.9935 72.6268 64.9109C71.7182 65.7257 71.0007 66.3698 69.4698 66.3698C67.9409 66.3698 67.2241 65.7264 66.3162 64.9109C65.2946 63.9935 64.1364 62.9536 61.8601 62.9536C59.5838 62.9536 58.4249 63.9935 57.4021 64.9109C56.4934 65.7257 55.7759 66.3698 54.2464 66.3698C52.7168 66.3698 52 65.7264 51.0921 64.9109C50.0699 63.9935 48.911 62.9536 46.6353 62.9536C44.359 62.9536 43.2002 63.9935 42.1778 64.9109C41.2699 65.7257 40.553 66.3698 39.0235 66.3698C37.494 66.3698 36.7772 65.7264 35.8692 64.9109C34.847 63.9935 33.6882 62.9536 31.4117 62.9536C29.1361 62.9536 27.9785 63.9935 26.9563 64.9109C26.0491 65.7257 25.3322 66.3698 23.8034 66.3698C22.2759 66.3698 21.5597 65.7264 20.6524 64.9109C19.6309 63.9935 18.4733 62.9536 16.1984 62.9536C13.9222 62.9536 12.7638 63.9935 11.7416 64.9109C10.8337 65.7257 10.1169 66.3698 8.58734 66.3698C7.05847 66.3698 6.34101 65.7264 5.43304 64.9109C4.41084 63.9935 3.2527 62.9536 0.976254 62.9536C0.437602 62.9536 0.000976562 63.3902 0.000976562 63.9289C0.000976562 64.4675 0.437602 64.9042 0.976254 64.9042C2.50512 64.9042 3.22258 65.5476 4.13055 66.363C5.15275 67.2805 6.31089 68.3203 8.58734 68.3203C10.8638 68.3203 12.022 67.2804 13.0441 66.363C13.9521 65.5482 14.6689 64.9042 16.1984 64.9042C17.7259 64.9042 18.4414 65.5475 19.3487 66.3623C20.3702 67.2805 21.5278 68.3203 23.8027 68.3203C26.0783 68.3203 27.2366 67.2804 28.2581 66.363C29.1654 65.5482 29.8822 64.9042 31.4103 64.9042C32.9399 64.9042 33.6574 65.5476 34.5653 66.363C35.5875 67.2811 36.7464 68.3203 39.0221 68.3203C41.2984 68.3203 42.4567 67.2804 43.4789 66.363C44.3868 65.5482 45.1044 64.9042 46.6339 64.9042C48.1635 64.9042 48.8802 65.5476 49.7882 66.363C50.8104 67.2805 51.9692 68.3203 54.245 68.3203C56.522 68.3203 57.6808 67.2804 58.703 66.363C59.6116 65.5482 60.3284 64.9042 61.8587 64.9042C63.3876 64.9042 64.1043 65.5476 65.0123 66.363C66.0338 67.2805 67.1921 68.3203 69.4684 68.3203C71.746 68.3203 72.9049 67.2804 73.9278 66.363C74.8364 65.5482 75.5539 64.9042 77.0849 64.9042C77.6235 64.9042 78.0601 64.4676 78.0601 63.9289C78.0615 63.3896 77.6249 62.9536 77.0862 62.9536L77.0863 62.9536Z" fill="#FBBF24"/>
<path d="M77.0863 72.6343C74.8086 72.6343 73.6497 73.6742 72.6269 74.5916C71.7189 75.4064 71.0007 76.0504 69.4705 76.0504C67.9416 76.0504 67.2248 75.407 66.3169 74.5916C65.2954 73.6741 64.1371 72.6343 61.8608 72.6343C59.5845 72.6343 58.4256 73.6742 57.4028 74.5916C56.4948 75.4064 55.7773 76.0504 54.2471 76.0504C52.7175 76.0504 52.0008 75.407 51.0928 74.5916C50.0706 73.6741 48.9117 72.6343 46.636 72.6343C44.3597 72.6343 43.2009 73.6742 42.1785 74.5916C41.2699 75.4064 40.5531 76.0504 39.0235 76.0504C37.494 76.0504 36.7772 75.407 35.8692 74.5916C34.847 73.6741 33.6882 72.6343 31.4117 72.6343C29.1362 72.6343 27.9785 73.6742 26.9563 74.5916C26.0491 75.4064 25.3322 76.0504 23.8034 76.0504C22.2759 76.0504 21.5597 75.407 20.6524 74.5916C19.6309 73.6741 18.4733 72.6343 16.1984 72.6343C13.9222 72.6343 12.7638 73.6742 11.7416 74.5916C10.8344 75.4064 10.1176 76.0504 8.58734 76.0504C7.05847 76.0504 6.34101 75.407 5.43304 74.5916C4.41084 73.6741 3.2527 72.6343 0.976255 72.6343C0.437602 72.6343 0.000976562 73.0709 0.000976562 73.6096C0.000976562 74.1482 0.437602 74.5848 0.976255 74.5848C2.50512 74.5848 3.22258 75.2282 4.13055 76.0437C5.15343 76.9604 6.31159 78.0003 8.58734 78.0003C10.8636 78.0003 12.022 76.9604 13.0441 76.043C13.9521 75.2282 14.6689 74.5841 16.1984 74.5841C17.7259 74.5841 18.4415 75.2275 19.3487 76.0423C20.3709 76.9604 21.5285 78.0003 23.8034 78.0003C26.079 78.0003 27.2373 76.9604 28.2588 76.043C29.1661 75.2282 29.8829 74.5842 31.411 74.5842C32.9406 74.5842 33.6581 75.2275 34.566 76.043C35.5889 76.9604 36.7471 78.0003 39.0235 78.0003C41.3 78.0003 42.4581 76.9604 43.4803 76.043C44.3882 75.2282 45.1058 74.5842 46.6353 74.5842C48.1648 74.5842 48.8816 75.2275 49.7896 76.043C50.8118 76.9604 51.9706 78.0003 54.2471 78.0003C56.5241 78.0003 57.6829 76.9604 58.7051 76.043C59.6137 75.2282 60.3305 74.5842 61.8608 74.5842C63.3897 74.5842 64.1064 75.2275 65.0144 76.043C66.0359 76.9604 67.1942 78.0003 69.4705 78.0003C71.7481 78.0003 72.907 76.9604 73.9299 76.043C74.8385 75.2282 75.556 74.5842 77.087 74.5842C77.6256 74.5842 78.0622 74.1475 78.0622 73.6089C78.0616 73.0702 77.6249 72.6343 77.0863 72.6343H77.0863Z" fill="#FBBF24"/>
<path d="M21.2934 14.8635C21.2934 11.3256 18.4145 8.44678 14.8766 8.44678C11.3388 8.44678 8.46045 11.3249 8.46045 14.8635C8.46045 18.4013 11.3386 21.2802 14.8766 21.2802C18.4152 21.2802 21.2934 18.402 21.2934 14.8635ZM14.8766 19.3304C12.4139 19.3304 10.4104 17.3268 10.4104 14.8642C10.4104 12.4016 12.4141 10.398 14.8766 10.398C17.3399 10.398 19.3435 12.4016 19.3435 14.8642C19.3435 17.3268 17.3399 19.3304 14.8766 19.3304Z" fill="#FBBF24"/>
<path d="M15.8524 4.92942V0.975278C15.8524 0.436626 15.4158 0 14.8771 0C14.3385 0 13.9019 0.436626 13.9019 0.975278V4.93012C13.9019 5.46877 14.3385 5.9054 14.8771 5.9054C15.4158 5.90472 15.8524 5.46809 15.8524 4.92944V4.92942Z" fill="#FBBF24"/>
<path d="M8.54179 8.52958C8.92265 8.14872 8.92265 7.53186 8.54179 7.151L5.74528 4.35449C5.36442 3.97363 4.74756 3.97363 4.3667 4.35449C3.98584 4.73535 3.98584 5.35221 4.3667 5.73307L7.16321 8.52958C7.35365 8.72002 7.60323 8.81522 7.85283 8.81522C8.10175 8.81522 8.35135 8.72 8.54177 8.52958H8.54179Z" fill="#FBBF24"/>
<path d="M0.987486 15.8387H4.94233C5.48098 15.8387 5.9176 15.4021 5.9176 14.8635C5.9176 14.3248 5.48098 13.8882 4.94233 13.8882L0.987486 13.8889C0.448834 13.8889 0.012207 14.3255 0.012207 14.8641C0.0128871 15.4021 0.449513 15.8387 0.987486 15.8387Z" fill="#FBBF24"/>
<path d="M4.36663 25.3743C4.55707 25.5647 4.80665 25.6599 5.05625 25.6599C5.30585 25.6599 5.55545 25.5647 5.74587 25.3743L8.54238 22.5778C8.92324 22.1969 8.92324 21.5801 8.54238 21.1992C8.16152 20.8184 7.54466 20.8184 7.1638 21.1992L4.36729 23.9957C3.98576 24.3766 3.98576 24.9934 4.36661 25.3743H4.36663Z" fill="#FBBF24"/>
<path d="M13.9009 24.798V28.7529C13.9009 29.2915 14.3375 29.7281 14.8762 29.7281C15.4148 29.7281 15.8514 29.2915 15.8514 28.7529V24.798C15.8514 24.2594 15.4148 23.8228 14.8762 23.8228C14.3375 23.8228 13.9009 24.2594 13.9009 24.798Z" fill="#FBBF24"/>
<path d="M24.0097 25.3743C24.2001 25.5647 24.4497 25.6599 24.6993 25.6599C24.9489 25.6599 25.1985 25.5647 25.389 25.3743C25.7698 24.9934 25.7698 24.3766 25.389 23.9957L22.5924 21.1992C22.2116 20.8184 21.5947 20.8184 21.2139 21.1992C20.833 21.5801 20.833 22.1969 21.2139 22.5778L24.0097 25.3743Z" fill="#FBBF24"/>
<path d="M29.7413 14.8635C29.7413 14.3248 29.3047 13.8882 28.7661 13.8882H24.8112C24.2726 13.8882 23.8359 14.3248 23.8359 14.8635C23.8359 15.4021 24.2726 15.8387 24.8112 15.8387H28.7661C29.3047 15.8387 29.7413 15.4021 29.7413 14.8635Z" fill="#FBBF24"/>
<path d="M22.5905 8.52958L25.387 5.73307C25.7679 5.35221 25.7679 4.73535 25.387 4.35449C25.0061 3.97363 24.3893 3.97363 24.0084 4.35449L21.2119 7.151C20.8311 7.53186 20.8311 8.14872 21.2119 8.52958C21.4024 8.72002 21.6519 8.81522 21.9015 8.81522C22.1505 8.81522 22.4001 8.72 22.5905 8.52958H22.5905Z" fill="#FBBF24"/>
</g>
<defs>
<clipPath id="clip0_194_1381">
<rect width="78" height="78" fill="white"/>
</clipPath>
</defs>
</svg>
