<svg width="78" height="78" viewBox="0 0 78 78" fill="none" xmlns="http://www.w3.org/2000/svg">
<g clip-path="url(#clip0_1336_1426)">
<path d="M59.594 11.2793C65.8091 10.2165 71.161 11.1366 71.2466 11.1522C71.6109 11.2181 71.9846 11.0686 72.2048 10.7676C72.4243 10.4672 72.4542 10.0677 72.2809 9.73811C69.9983 5.41221 66.1801 2.24628 61.528 0.82606C56.9051 -0.586698 52.0125 -0.104233 47.7504 2.18446C43.6092 4.40647 40.5642 8.10993 39.1033 12.455C37.6314 8.10941 34.5735 4.3889 30.4644 2.18446C26.2016 -0.104181 21.3076 -0.584663 16.6868 0.82606C12.0347 2.24766 8.21695 5.41221 5.9344 9.73811C5.76248 10.0663 5.78966 10.4632 6.00643 10.7628C6.22253 11.0632 6.5922 11.2107 6.95574 11.1536C7.03593 11.14 12.0231 10.3477 17.9466 11.2616C7.89427 12.3292 0.0338135 20.9219 0.0338135 31.335C0.0338135 31.7156 0.255336 32.0621 0.601902 32.2205C0.731015 32.2796 0.870326 32.3095 1.00826 32.3095C1.23658 32.3095 1.46287 32.2286 1.64294 32.0744C1.78564 31.9514 13.2726 22.3047 26.4151 25.3177C23.5216 25.5148 20.6689 26.5273 18.2206 28.3641C11.3804 33.4967 9.95395 43.2841 15.0423 50.1824C15.2278 50.4345 15.5207 50.5778 15.8265 50.5778C15.8979 50.5778 15.9699 50.5704 16.0412 50.5541C16.4191 50.4684 16.7099 50.1681 16.7833 49.7876C16.8057 49.6707 18.5582 41.0623 25.2632 36.2213C25.2673 39.2984 27.7721 41.801 30.851 41.801C31.9485 41.801 32.9753 41.4666 33.8505 40.9067L31.481 51.5455C29.5143 51.4646 27.6926 50.552 26.4531 48.9966C26.0841 48.5325 25.2979 48.5325 24.9289 48.9966C23.6303 50.6262 21.695 51.5612 19.6203 51.5612C19.0821 51.5612 18.6458 51.9967 18.6458 52.5356C18.6458 53.0738 19.0814 53.5101 19.6203 53.5101C21.911 53.5101 24.0685 52.6253 25.6907 51.0515C27.1442 52.4615 29.0273 53.3123 31.0508 53.4755L27.6055 68.9506C17.9602 69.2856 8.9777 70.0276 0.905884 71.1625C0.373127 71.2379 0.0021011 71.7306 0.0775308 72.2633C0.146164 72.7492 0.562726 73.1012 1.04112 73.1012C1.08597 73.1012 1.1315 73.0985 1.17839 73.0917C9.03988 71.9861 17.7842 71.2576 27.1682 70.9165L26.8964 72.1362C26.5777 73.5633 26.9202 75.0351 27.8342 76.1754C28.7495 77.3177 30.1113 77.9721 31.5737 77.9721H46.4997C47.9621 77.9721 49.3245 77.3184 50.2385 76.1782C51.1538 75.0373 51.495 73.5648 51.1783 72.1376L50.9072 70.9199C60.2821 71.2631 69.0113 71.9929 76.8587 73.0984C76.9056 73.1052 76.9511 73.1079 76.996 73.1079C77.4737 73.1079 77.8909 72.7559 77.9596 72.2701C78.035 71.7373 77.664 71.2446 77.1312 71.1692C69.076 70.0337 60.1068 69.2909 50.4699 68.954L47.0171 53.4462C48.9267 53.226 50.6967 52.3915 52.0783 51.0514C53.7004 52.6252 55.858 53.51 58.1487 53.51C58.6869 53.51 59.1232 53.0745 59.1232 52.5356C59.1232 51.9974 58.6876 51.5611 58.1487 51.5611C56.0741 51.5611 54.1387 50.6261 52.8401 48.9966C52.4711 48.5324 51.6849 48.5324 51.3159 48.9966C50.1396 50.4725 48.4409 51.3708 46.5904 51.5286L44.284 41.1704C45.0533 41.5652 45.9136 41.8003 46.8242 41.8003C49.906 41.8003 52.4128 39.2935 52.4128 36.2132C52.4128 36.1602 52.3985 36.1099 52.3971 36.0576C54.4412 37.4676 56.2556 39.354 57.8287 41.712C60.5394 45.7744 61.4791 49.7802 61.4887 49.8202C61.5736 50.1912 61.8672 50.4794 62.2403 50.5568C62.3062 50.5711 62.3728 50.5779 62.438 50.5779C62.7431 50.5779 63.0367 50.4345 63.2222 50.1824C68.3092 43.2845 66.8829 33.4964 60.0427 28.3642C57.5039 26.4588 54.5561 25.4374 51.581 25.2845C55.9287 24.2353 60.5448 24.4969 65.392 26.083C71.8496 28.1957 76.3177 31.9834 76.3612 32.0215C76.5412 32.1751 76.7661 32.2559 76.9945 32.2559C77.1324 32.2559 77.271 32.2267 77.4015 32.1662C77.7474 32.0079 77.9689 31.6627 77.9689 31.2822C77.9689 20.7344 69.8559 12.0786 59.5951 11.2801L59.594 11.2793ZM48.6711 3.9002C52.4725 1.86154 56.8358 1.42873 60.9585 2.68927C64.4834 3.76498 67.4725 5.96462 69.5418 8.96893C65.1949 8.55577 54.8678 8.35464 47.1878 14.4527C47.1463 14.4853 47.1246 14.5309 47.0906 14.5682C44.0979 16.5702 41.6564 19.3597 40.0832 22.6656V18.2093C40.1294 12.2022 43.4205 6.71823 48.6719 3.90023L48.6711 3.9002ZM32.2991 56.8436H45.7764L47.5812 64.9499H30.4935L32.2991 56.8436ZM32.7326 54.8954L34.5375 46.7892L43.5372 46.7885L45.3428 54.8955L32.7326 54.8954ZM34.9717 44.8403L36.3953 38.4479C37.1741 38.8604 38.0595 39.0962 39 39.0962C39.9677 39.0962 40.8783 38.8482 41.6733 38.4139L43.1044 44.8402L34.9717 44.8403ZM42.6396 33.509C42.6396 35.5156 41.0073 37.1479 38.9999 37.1479C36.9933 37.1479 35.361 35.5156 35.361 33.509C35.361 31.5016 36.9933 29.8693 38.9999 29.8693C41.0066 29.8687 42.6396 31.5016 42.6396 33.509ZM8.65445 8.99605C10.7237 5.97817 13.7204 3.76903 17.2548 2.68925C21.3782 1.42939 25.7408 1.86158 29.5422 3.90018C34.5898 6.60876 37.876 11.8767 38.118 17.6466C38.12 17.6949 38.1417 17.7363 38.1506 17.7825C38.1465 17.9225 38.1343 18.0618 38.1329 18.2025V22.6997C36.432 19.1132 33.72 16.117 30.3876 14.0784C30.3604 14.0532 30.3448 14.0206 30.3136 13.9982C22.7448 8.51632 12.86 8.6367 8.65535 8.99611L8.65445 8.99605ZM2.09279 29.3043C3.09646 20.1992 10.7698 13.0953 20.0578 13.0953C28.7538 13.0953 36.2715 19.4844 37.8227 28.0485C37.5475 28.1076 37.2812 28.1912 37.0222 28.2897C22.3843 17.123 7.12696 25.7986 2.09426 29.3043L2.09279 29.3043ZM15.479 47.2136C12.4393 41.3703 13.9785 33.9811 19.3891 29.9222C24.0262 26.4437 30.3201 26.3471 35.0374 29.5736C34.5937 30.0201 34.2302 30.5433 33.9563 31.1182C21.7844 32.0186 17.0065 42.5433 15.4799 47.2136H15.479ZM30.85 39.8516C28.8427 39.8516 27.2104 38.2194 27.2104 36.2127C27.2104 35.7227 27.2967 35.2763 27.453 34.8753C29.1715 33.9981 31.1558 33.3756 33.4308 33.1269C33.422 33.2539 33.4118 33.3796 33.4118 33.5088C33.4118 34.7306 33.8107 35.8579 34.4787 36.7787C34.4624 36.8242 34.4338 36.8623 34.4243 36.9105C34.092 38.6148 32.5888 39.8515 30.8499 39.8515L30.85 39.8516ZM48.7176 74.9588C48.1746 75.6356 47.366 76.0236 46.4982 76.0236H31.5721C30.7044 76.0236 29.8957 75.6356 29.3534 74.9581C28.8105 74.282 28.6073 73.4081 28.7969 72.5614L30.0574 66.8988H48.012L49.2725 72.56C49.4628 73.4081 49.259 74.2813 48.7167 74.9588L48.7176 74.9588ZM50.1759 34.7945C50.3655 35.2437 50.4613 35.7201 50.4613 36.212C50.4613 38.2187 48.829 39.851 46.8217 39.851C45.3627 39.851 44.0811 38.9757 43.5068 37.6907L43.4443 37.4094C43.4171 37.2891 43.3641 37.1831 43.2996 37.0866C43.2982 37.0825 43.2969 37.0785 43.2962 37.0744C44.1007 36.106 44.5859 34.8631 44.5859 33.5096C44.5859 33.3743 44.5751 33.2425 44.5656 33.11C46.5701 33.3601 48.4376 33.9159 50.169 34.7619C50.1731 34.7721 50.1711 34.7837 50.1758 34.7946L50.1759 34.7945ZM62.7481 47.2756C62.1671 45.6182 61.1403 43.1821 59.4828 40.6847C55.6884 34.9664 50.3505 31.6639 44.0323 31.0998C43.7808 30.5765 43.4519 30.0981 43.0578 29.6802C47.7976 26.3254 54.1444 26.3749 58.8693 29.9208C64.3009 33.9953 65.8325 41.4226 62.7482 47.2755L62.7481 47.2756ZM41.069 28.3225C40.8441 28.2321 40.611 28.1587 40.3725 28.0982C41.8797 19.5381 49.3682 13.1478 58.0487 13.1478C67.2768 13.1478 74.9019 20.204 75.9059 29.2495C70.878 25.7506 55.6498 17.1 41.0683 28.3226L41.069 28.3225Z" fill="#FBBF24"/>
<path d="M7.07845 63.5687C9.36917 63.5687 11.5266 62.6839 13.1481 61.1101C14.7695 62.6839 16.9271 63.5687 19.2185 63.5687C21.8897 63.5687 24.3803 62.3659 26.05 60.2695C26.385 59.8489 26.3157 59.2352 25.8951 58.9002C25.4717 58.5652 24.8608 58.6339 24.5258 59.0552C23.2272 60.6847 21.2932 61.6197 19.2179 61.6197C17.1418 61.6197 15.2079 60.6847 13.9093 59.0552C13.5403 58.591 12.7541 58.591 12.3851 59.0552C11.0865 60.6847 9.15252 61.6197 7.07716 61.6197C5.0011 61.6197 3.06717 60.6847 1.76855 59.0552C1.43489 58.6345 0.821954 58.5632 0.39928 58.9002C-0.0213591 59.2352 -0.0906662 59.8489 0.244345 60.2695C1.91533 62.3659 4.40585 63.5687 7.07842 63.5687H7.07845Z" fill="#FBBF24"/>
<path d="M76.2316 59.0561C74.933 60.6857 72.999 61.6207 70.9237 61.6207C68.8476 61.6207 66.9137 60.6856 65.6151 59.0561C65.2461 58.592 64.4599 58.592 64.0909 59.0561C62.7923 60.6857 60.8583 61.6207 58.7823 61.6207C56.7076 61.6207 54.773 60.6856 53.4744 59.0561C53.1393 58.6355 52.5284 58.5642 52.1051 58.9012C51.6845 59.2362 51.6151 59.8498 51.9502 60.2705C53.6198 62.3676 56.1103 63.5697 58.7816 63.5697C61.0737 63.5697 63.2312 62.6849 64.852 61.1111C66.4734 62.6849 68.631 63.5697 70.9224 63.5697C73.5936 63.5697 76.0842 62.3669 77.7539 60.2705C78.0889 59.8498 78.0196 59.2362 77.5989 58.9012C77.1783 58.5662 76.5667 58.6348 76.2317 59.0561H76.2316Z" fill="#FBBF24"/>
</g>
<defs>
<clipPath id="clip0_1336_1426">
<rect width="78" height="78" fill="white"/>
</clipPath>
</defs>
</svg>
