<svg width="78" height="78" viewBox="0 0 78 78" fill="none" xmlns="http://www.w3.org/2000/svg">
<g clip-path="url(#clip0_139_1252)">
<path d="M78.061 28.7538C78.061 28.2152 77.6244 27.7786 77.0858 27.7786C56.1302 27.7786 38.6325 39.071 35.5612 41.1691C19.7365 33.892 1.78797 34.4953 0.936586 34.5313C0.39863 34.5531 -0.0203222 35.006 0.000762166 35.544C0.0218448 36.0819 0.489759 36.4954 1.01344 36.4798C1.24399 36.473 24.2097 35.695 40.581 46.0924C57.149 56.6156 76.1824 56.7579 77.0634 56.7579H77.094C77.6326 56.7524 78.0645 56.3124 78.0597 55.7744C78.055 55.2392 77.619 54.808 77.0844 54.808H77.0756C76.8702 54.806 58.0039 54.8488 41.6257 44.4466C40.3144 43.6134 38.9645 42.8578 37.5941 42.1574C42.2486 39.1344 58.2484 29.7284 77.085 29.7284C77.6243 29.7291 78.061 29.2925 78.061 28.7538L78.061 28.7538Z" fill="#FBBF24"/>
<path d="M77.0863 62.9537C74.8086 62.9537 73.6497 63.9936 72.6268 64.911C71.7182 65.7258 71.0007 66.3699 69.4698 66.3699C67.9409 66.3699 67.2241 65.7265 66.3162 64.911C65.2946 63.9936 64.1364 62.9537 61.8601 62.9537C59.5838 62.9537 58.4249 63.9936 57.4021 64.911C56.4934 65.7258 55.7759 66.3699 54.2464 66.3699C52.7168 66.3699 52 65.7265 51.0921 64.911C50.0699 63.9936 48.911 62.9537 46.6353 62.9537C44.359 62.9537 43.2002 63.9936 42.1778 64.911C41.2699 65.7258 40.553 66.3699 39.0235 66.3699C37.494 66.3699 36.7772 65.7265 35.8692 64.911C34.847 63.9936 33.6882 62.9537 31.4117 62.9537C29.1361 62.9537 27.9785 63.9936 26.9563 64.911C26.0491 65.7258 25.3322 66.3699 23.8034 66.3699C22.2759 66.3699 21.5597 65.7265 20.6524 64.911C19.6309 63.9936 18.4733 62.9537 16.1984 62.9537C13.9222 62.9537 12.7638 63.9936 11.7416 64.911C10.8337 65.7258 10.1169 66.3699 8.58734 66.3699C7.05847 66.3699 6.34101 65.7265 5.43304 64.911C4.41084 63.9936 3.2527 62.9537 0.976254 62.9537C0.437602 62.9537 0.000976562 63.3904 0.000976562 63.929C0.000976562 64.4677 0.437602 64.9043 0.976254 64.9043C2.50512 64.9043 3.22258 65.5477 4.13055 66.3631C5.15275 67.2806 6.31089 68.3204 8.58734 68.3204C10.8638 68.3204 12.022 67.2805 13.0441 66.3631C13.9521 65.5484 14.6689 64.9043 16.1984 64.9043C17.7259 64.9043 18.4414 65.5477 19.3487 66.3624C20.3702 67.2806 21.5278 68.3204 23.8027 68.3204C26.0783 68.3204 27.2366 67.2806 28.2581 66.3631C29.1654 65.5484 29.8822 64.9043 31.4103 64.9043C32.9399 64.9043 33.6574 65.5477 34.5653 66.3631C35.5875 67.2813 36.7464 68.3204 39.0221 68.3204C41.2984 68.3204 42.4567 67.2806 43.4789 66.3631C44.3868 65.5484 45.1044 64.9043 46.6339 64.9043C48.1635 64.9043 48.8802 65.5477 49.7882 66.3631C50.8104 67.2806 51.9692 68.3204 54.245 68.3204C56.522 68.3204 57.6808 67.2806 58.703 66.3631C59.6116 65.5484 60.3284 64.9043 61.8587 64.9043C63.3876 64.9043 64.1043 65.5477 65.0123 66.3631C66.0338 67.2806 67.1921 68.3204 69.4684 68.3204C71.746 68.3204 72.9049 67.2806 73.9278 66.3631C74.8364 65.5484 75.5539 64.9043 77.0849 64.9043C77.6235 64.9043 78.0601 64.4677 78.0601 63.929C78.0615 63.3897 77.6249 62.9538 77.0862 62.9538L77.0863 62.9537Z" fill="#FBBF24"/>
<path d="M77.0863 72.634C74.8086 72.634 73.6497 73.6739 72.6269 74.5913C71.7189 75.4061 71.0007 76.0502 69.4705 76.0502C67.9416 76.0502 67.2248 75.4068 66.3169 74.5913C65.2954 73.6739 64.1371 72.634 61.8608 72.634C59.5845 72.634 58.4256 73.6739 57.4028 74.5913C56.4948 75.4061 55.7773 76.0502 54.2471 76.0502C52.7175 76.0502 52.0008 75.4068 51.0928 74.5913C50.0706 73.6739 48.9117 72.634 46.636 72.634C44.3597 72.634 43.2009 73.6739 42.1785 74.5913C41.2699 75.4061 40.5531 76.0502 39.0235 76.0502C37.494 76.0502 36.7772 75.4068 35.8692 74.5913C34.847 73.6739 33.6882 72.634 31.4117 72.634C29.1362 72.634 27.9785 73.6739 26.9563 74.5913C26.0491 75.4061 25.3322 76.0502 23.8034 76.0502C22.2759 76.0502 21.5597 75.4068 20.6524 74.5913C19.6309 73.6739 18.4733 72.634 16.1984 72.634C13.9222 72.634 12.7638 73.6739 11.7416 74.5913C10.8344 75.4061 10.1176 76.0502 8.58734 76.0502C7.05847 76.0502 6.34101 75.4068 5.43304 74.5913C4.41084 73.6739 3.2527 72.634 0.976255 72.634C0.437602 72.634 0.000976562 73.0707 0.000976562 73.6093C0.000976562 74.148 0.437602 74.5846 0.976255 74.5846C2.50512 74.5846 3.22258 75.228 4.13055 76.0434C5.15343 76.9602 6.31159 78 8.58734 78C10.8636 78 12.022 76.9601 13.0441 76.0427C13.9521 75.2279 14.6689 74.5839 16.1984 74.5839C17.7259 74.5839 18.4415 75.2273 19.3487 76.042C20.3709 76.9602 21.5285 78 23.8034 78C26.079 78 27.2373 76.9602 28.2588 76.0427C29.1661 75.228 29.8829 74.5839 31.411 74.5839C32.9406 74.5839 33.6581 75.2273 34.566 76.0427C35.5889 76.9602 36.7471 78 39.0235 78C41.3 78 42.4581 76.9602 43.4803 76.0427C44.3882 75.228 45.1058 74.5839 46.6353 74.5839C48.1648 74.5839 48.8816 75.2273 49.7896 76.0427C50.8118 76.9602 51.9706 78 54.2471 78C56.5241 78 57.6829 76.9602 58.7051 76.0427C59.6137 75.228 60.3305 74.5839 61.8608 74.5839C63.3897 74.5839 64.1064 75.2273 65.0144 76.0427C66.0359 76.9602 67.1942 78 69.4705 78C71.7481 78 72.907 76.9602 73.9299 76.0427C74.8385 75.228 75.556 74.5839 77.087 74.5839C77.6256 74.5839 78.0622 74.1473 78.0622 73.6086C78.0616 73.07 77.6249 72.634 77.0863 72.634H77.0863Z" fill="#FBBF24"/>
<path d="M21.2934 14.8636C21.2934 11.3258 18.4145 8.4469 14.8766 8.4469C11.3388 8.4469 8.46045 11.3251 8.46045 14.8636C8.46045 18.4015 11.3386 21.2803 14.8766 21.2803C18.4152 21.2803 21.2934 18.4022 21.2934 14.8636ZM14.8766 19.3305C12.4139 19.3305 10.4104 17.3269 10.4104 14.8643C10.4104 12.4017 12.4141 10.3981 14.8766 10.3981C17.3399 10.3981 19.3435 12.4017 19.3435 14.8643C19.3435 17.3269 17.3399 19.3305 14.8766 19.3305Z" fill="#FBBF24"/>
<path d="M15.8524 4.92942V0.975278C15.8524 0.436626 15.4158 0 14.8771 0C14.3385 0 13.9019 0.436626 13.9019 0.975278V4.93012C13.9019 5.46877 14.3385 5.9054 14.8771 5.9054C15.4158 5.90472 15.8524 5.46809 15.8524 4.92944V4.92942Z" fill="#FBBF24"/>
<path d="M8.54179 8.52958C8.92265 8.14872 8.92265 7.53186 8.54179 7.151L5.74528 4.35449C5.36442 3.97363 4.74756 3.97363 4.3667 4.35449C3.98584 4.73535 3.98584 5.35221 4.3667 5.73307L7.16321 8.52958C7.35365 8.72002 7.60323 8.81522 7.85283 8.81522C8.10175 8.81522 8.35135 8.72 8.54177 8.52958H8.54179Z" fill="#FBBF24"/>
<path d="M0.987486 15.8386H4.94233C5.48098 15.8386 5.9176 15.402 5.9176 14.8633C5.9176 14.3247 5.48098 13.8881 4.94233 13.8881L0.987486 13.8887C0.448834 13.8887 0.012207 14.3254 0.012207 14.864C0.0128871 15.402 0.449513 15.8386 0.987486 15.8386Z" fill="#FBBF24"/>
<path d="M4.36663 25.3745C4.55707 25.565 4.80665 25.6602 5.05625 25.6602C5.30585 25.6602 5.55545 25.565 5.74587 25.3745L8.54238 22.578C8.92324 22.1972 8.92324 21.5803 8.54238 21.1995C8.16152 20.8186 7.54466 20.8186 7.1638 21.1995L4.36729 23.996C3.98576 24.3768 3.98576 24.9937 4.36661 25.3745H4.36663Z" fill="#FBBF24"/>
<path d="M13.9009 24.7982V28.753C13.9009 29.2916 14.3375 29.7283 14.8762 29.7283C15.4148 29.7283 15.8514 29.2916 15.8514 28.753V24.7982C15.8514 24.2595 15.4148 23.8229 14.8762 23.8229C14.3375 23.8229 13.9009 24.2595 13.9009 24.7982Z" fill="#FBBF24"/>
<path d="M24.0097 25.3745C24.2001 25.565 24.4497 25.6602 24.6993 25.6602C24.9489 25.6602 25.1985 25.565 25.389 25.3745C25.7698 24.9937 25.7698 24.3768 25.389 23.996L22.5924 21.1995C22.2116 20.8186 21.5947 20.8186 21.2139 21.1995C20.833 21.5803 20.833 22.1972 21.2139 22.578L24.0097 25.3745Z" fill="#FBBF24"/>
<path d="M29.7413 14.8636C29.7413 14.3249 29.3047 13.8883 28.7661 13.8883H24.8112C24.2726 13.8883 23.8359 14.3249 23.8359 14.8636C23.8359 15.4022 24.2726 15.8389 24.8112 15.8389H28.7661C29.3047 15.8389 29.7413 15.4022 29.7413 14.8636Z" fill="#FBBF24"/>
<path d="M22.5905 8.52958L25.387 5.73307C25.7679 5.35221 25.7679 4.73535 25.387 4.35449C25.0061 3.97363 24.3893 3.97363 24.0084 4.35449L21.2119 7.151C20.8311 7.53186 20.8311 8.14872 21.2119 8.52958C21.4024 8.72002 21.6519 8.81522 21.9015 8.81522C22.1505 8.81522 22.4001 8.72 22.5905 8.52958H22.5905Z" fill="#FBBF24"/>
</g>
<defs>
<clipPath id="clip0_139_1252">
<rect width="78" height="78" fill="white"/>
</clipPath>
</defs>
</svg>
