<svg width="135" height="41" viewBox="0 0 135 41" fill="none" xmlns="http://www.w3.org/2000/svg">
<path d="M130.197 40.4521H4.729C2.122 40.4521 0 38.3241 0 35.7191V5.17815C0 2.57215 2.122 0.452148 4.729 0.452148H130.197C132.803 0.452148 135 2.57215 135 5.17815V35.7191C135 38.3241 132.803 40.4521 130.197 40.4521Z" fill="#A6A6A6"/>
<path d="M134.032 35.72C134.032 37.836 132.318 39.55 130.198 39.55H4.72901C2.61001 39.55 0.890015 37.836 0.890015 35.72V5.17704C0.890015 3.06204 2.61001 1.34204 4.72901 1.34204H130.197C132.318 1.34204 134.031 3.06204 134.031 5.17704L134.032 35.72Z" fill="black"/>
<path d="M30.128 20.2361C30.099 17.0131 32.767 15.4451 32.889 15.3721C31.378 13.1691 29.036 12.8681 28.213 12.8441C26.246 12.6371 24.338 14.0211 23.336 14.0211C22.314 14.0211 20.771 12.8641 19.108 12.8981C16.968 12.9311 14.966 14.1701 13.868 16.0941C11.602 20.0171 13.292 25.7821 15.463 28.9531C16.549 30.5061 17.818 32.2401 19.479 32.1791C21.104 32.1121 21.711 31.1431 23.672 31.1431C25.615 31.1431 26.185 32.1791 27.879 32.1401C29.623 32.1121 30.721 30.5801 31.769 29.0131C33.024 27.2331 33.528 25.4801 33.548 25.3901C33.507 25.3761 30.161 24.0991 30.128 20.2361Z" fill="white"/>
<path d="M26.9279 10.7582C27.8019 9.66519 28.3999 8.17819 28.2339 6.66919C26.9689 6.72519 25.3869 7.54419 24.4759 8.61319C23.6699 9.55519 22.9499 11.0992 23.1359 12.5512C24.5569 12.6572 26.0159 11.8342 26.9279 10.7582Z" fill="white"/>
<path d="M53.645 31.9562H51.374L50.13 28.0472H45.806L44.621 31.9562H42.41L46.694 18.6482H49.34L53.645 31.9562ZM49.755 26.4072L48.63 22.9322C48.511 22.5772 48.288 21.7412 47.959 20.4252H47.919C47.788 20.9912 47.577 21.8272 47.287 22.9322L46.182 26.4072H49.755Z" fill="white"/>
<path d="M64.662 27.0401C64.662 28.6721 64.221 29.9621 63.339 30.9091C62.549 31.7521 61.568 32.1731 60.397 32.1731C59.133 32.1731 58.225 31.7191 57.672 30.8111H57.632V35.8661H55.5V25.5191C55.5 24.4931 55.473 23.4401 55.421 22.3601H57.296L57.415 23.8811H57.455C58.166 22.7351 59.245 22.1631 60.693 22.1631C61.825 22.1631 62.77 22.6101 63.526 23.5051C64.284 24.4011 64.662 25.5791 64.662 27.0401ZM62.49 27.1181C62.49 26.1841 62.28 25.4141 61.858 24.8081C61.397 24.1761 60.778 23.8601 60.002 23.8601C59.476 23.8601 58.998 24.0361 58.571 24.3831C58.143 24.7331 57.863 25.1901 57.732 25.7561C57.666 26.0201 57.633 26.2361 57.633 26.4061V28.0061C57.633 28.7041 57.847 29.2931 58.275 29.7741C58.703 30.2551 59.259 30.4951 59.943 30.4951C60.746 30.4951 61.371 30.1851 61.818 29.5671C62.266 28.9481 62.49 28.1321 62.49 27.1181Z" fill="white"/>
<path d="M75.699 27.0401C75.699 28.6721 75.258 29.9621 74.375 30.9091C73.586 31.7521 72.605 32.1731 71.434 32.1731C70.17 32.1731 69.262 31.7191 68.71 30.8111H68.67V35.8661H66.538V25.5191C66.538 24.4931 66.511 23.4401 66.459 22.3601H68.334L68.453 23.8811H68.493C69.203 22.7351 70.282 22.1631 71.731 22.1631C72.862 22.1631 73.807 22.6101 74.565 23.5051C75.32 24.4011 75.699 25.5791 75.699 27.0401ZM73.527 27.1181C73.527 26.1841 73.316 25.4141 72.894 24.8081C72.433 24.1761 71.816 23.8601 71.039 23.8601C70.512 23.8601 70.035 24.0361 69.607 24.3831C69.179 24.7331 68.9 25.1901 68.769 25.7561C68.704 26.0201 68.67 26.2361 68.67 26.4061V28.0061C68.67 28.7041 68.884 29.2931 69.31 29.7741C69.738 30.2541 70.294 30.4951 70.98 30.4951C71.783 30.4951 72.408 30.1851 72.855 29.5671C73.303 28.9481 73.527 28.1321 73.527 27.1181Z" fill="white"/>
<path d="M88.0391 28.2241C88.0391 29.3561 87.6461 30.2771 86.8571 30.9881C85.9901 31.7651 84.7831 32.1531 83.2321 32.1531C81.8001 32.1531 80.6521 31.8771 79.7831 31.3241L80.2771 29.5471C81.2131 30.1131 82.2401 30.3971 83.3591 30.3971C84.1621 30.3971 84.7871 30.2151 85.2361 29.8531C85.6831 29.4911 85.9061 29.0051 85.9061 28.3991C85.9061 27.8591 85.7221 27.4041 85.3531 27.0351C84.9861 26.6661 84.3731 26.3231 83.5171 26.0061C81.1871 25.1371 80.0231 23.8641 80.0231 22.1901C80.0231 21.0961 80.4311 20.1991 81.2481 19.5011C82.0621 18.8021 83.1481 18.4531 84.5061 18.4531C85.7171 18.4531 86.7231 18.6641 87.5261 19.0851L86.9931 20.8231C86.2431 20.4151 85.3951 20.2111 84.4461 20.2111C83.6961 20.2111 83.1101 20.3961 82.6901 20.7641C82.3351 21.0931 82.1571 21.4941 82.1571 21.9691C82.1571 22.4951 82.3601 22.9301 82.7681 23.2721C83.1231 23.5881 83.7681 23.9301 84.7041 24.2991C85.8491 24.7601 86.6901 25.2991 87.2311 25.9171C87.7701 26.5331 88.0391 27.3041 88.0391 28.2241Z" fill="white"/>
<path d="M95.088 23.9602H92.738V28.6192C92.738 29.8042 93.152 30.3962 93.982 30.3962C94.363 30.3962 94.679 30.3632 94.929 30.2972L94.988 31.9162C94.568 32.0732 94.015 32.1522 93.33 32.1522C92.488 32.1522 91.83 31.8952 91.355 31.3822C90.882 30.8682 90.644 30.0062 90.644 28.7952V23.9582H89.244V22.3582H90.644V20.6012L92.738 19.9692V22.3582H95.088V23.9602Z" fill="white"/>
<path d="M105.691 27.0791C105.691 28.5541 105.269 29.7651 104.427 30.7121C103.544 31.6871 102.372 32.1731 100.911 32.1731C99.503 32.1731 98.382 31.7061 97.546 30.7721C96.71 29.8381 96.292 28.6591 96.292 27.2381C96.292 25.7511 96.722 24.5331 97.585 23.5861C98.446 22.6381 99.608 22.1641 101.069 22.1641C102.477 22.1641 103.61 22.6311 104.465 23.5661C105.283 24.4731 105.691 25.6441 105.691 27.0791ZM103.479 27.1481C103.479 26.2631 103.29 25.5041 102.907 24.8711C102.46 24.1051 101.821 23.7231 100.993 23.7231C100.136 23.7231 99.485 24.1061 99.038 24.8711C98.655 25.5051 98.466 26.2761 98.466 27.1881C98.466 28.0731 98.655 28.8321 99.038 29.4641C99.499 30.2301 100.143 30.6121 100.974 30.6121C101.788 30.6121 102.427 30.2221 102.888 29.4441C103.281 28.7991 103.479 28.0321 103.479 27.1481Z" fill="white"/>
<path d="M112.621 24.2351C112.41 24.1961 112.185 24.1761 111.949 24.1761C111.199 24.1761 110.619 24.4591 110.211 25.0261C109.856 25.5261 109.678 26.1581 109.678 26.9211V31.9561H107.547L107.567 25.3821C107.567 24.2761 107.54 23.2691 107.487 22.3611H109.344L109.422 24.1971H109.481C109.706 23.5661 110.061 23.0581 110.547 22.6771C111.022 22.3341 111.535 22.1631 112.088 22.1631C112.285 22.1631 112.463 22.1771 112.621 22.2021V24.2351Z" fill="white"/>
<path d="M122.156 26.704C122.156 27.086 122.131 27.408 122.078 27.671H115.682C115.707 28.619 116.016 29.344 116.61 29.844C117.149 30.291 117.846 30.515 118.702 30.515C119.649 30.515 120.513 30.364 121.29 30.061L121.624 31.541C120.716 31.937 119.644 32.134 118.407 32.134C116.919 32.134 115.751 31.696 114.901 30.821C114.053 29.946 113.628 28.771 113.628 27.297C113.628 25.85 114.023 24.645 114.814 23.684C115.642 22.658 116.761 22.145 118.169 22.145C119.552 22.145 120.599 22.658 121.31 23.684C121.873 24.499 122.156 25.507 122.156 26.704ZM120.123 26.151C120.137 25.519 119.998 24.973 119.709 24.512C119.34 23.919 118.773 23.623 118.01 23.623C117.313 23.623 116.746 23.912 116.313 24.492C115.958 24.953 115.747 25.506 115.682 26.15H120.123V26.151Z" fill="white"/>
<path d="M49.05 10.4611C49.05 11.6381 48.697 12.5241 47.992 13.1191C47.339 13.6681 46.411 13.9431 45.209 13.9431C44.613 13.9431 44.103 13.9171 43.676 13.8651V7.4341C44.233 7.3441 44.833 7.2981 45.481 7.2981C46.626 7.2981 47.489 7.5471 48.071 8.0451C48.723 8.6081 49.05 9.4131 49.05 10.4611ZM47.945 10.4901C47.945 9.7271 47.743 9.1421 47.339 8.7341C46.935 8.3271 46.345 8.1231 45.568 8.1231C45.238 8.1231 44.957 8.1451 44.724 8.1911V13.0801C44.853 13.1001 45.089 13.1091 45.432 13.1091C46.234 13.1091 46.853 12.8861 47.289 12.4401C47.725 11.9941 47.945 11.3441 47.945 10.4901Z" fill="white"/>
<path d="M54.909 11.489C54.909 12.214 54.702 12.808 54.288 13.274C53.854 13.753 53.279 13.992 52.561 13.992C51.869 13.992 51.318 13.763 50.907 13.303C50.497 12.844 50.292 12.265 50.292 11.567C50.292 10.837 50.503 10.238 50.927 9.77295C51.351 9.30795 51.921 9.07495 52.639 9.07495C53.331 9.07495 53.887 9.30395 54.308 9.76295C54.708 10.209 54.909 10.785 54.909 11.489ZM53.822 11.523C53.822 11.088 53.728 10.715 53.541 10.404C53.321 10.028 53.008 9.83995 52.601 9.83995C52.18 9.83995 51.86 10.028 51.64 10.404C51.452 10.715 51.359 11.094 51.359 11.542C51.359 11.977 51.453 12.35 51.64 12.661C51.867 13.037 52.183 13.225 52.591 13.225C52.991 13.225 53.305 13.034 53.531 12.651C53.725 12.334 53.822 11.958 53.822 11.523Z" fill="white"/>
<path d="M62.7651 9.17114L61.2901 13.8851H60.3301L59.7191 11.8381C59.5641 11.3271 59.4381 10.8191 59.3401 10.3151H59.3211C59.2301 10.8331 59.1041 11.3401 58.9421 11.8381L58.2931 13.8851H57.3221L55.9351 9.17114H57.0121L57.5451 11.4121C57.6741 11.9421 57.7801 12.4471 57.8651 12.9251H57.8841C57.9621 12.5311 58.0911 12.0291 58.2731 11.4221L58.9421 9.17214H59.7961L60.4371 11.3741C60.5921 11.9111 60.7181 12.4281 60.8151 12.9261H60.8441C60.9151 12.4411 61.0221 11.9241 61.1641 11.3741L61.7361 9.17214H62.7651V9.17114Z" fill="white"/>
<path d="M68.198 13.885H67.15V11.185C67.15 10.353 66.834 9.93702 66.2 9.93702C65.889 9.93702 65.638 10.051 65.443 10.28C65.25 10.509 65.152 10.779 65.152 11.088V13.884H64.104V10.518C64.104 10.104 64.091 9.65502 64.066 9.16902H64.987L65.036 9.90602H65.065C65.187 9.67702 65.369 9.48802 65.608 9.33702C65.892 9.16102 66.21 9.07202 66.558 9.07202C66.998 9.07202 67.364 9.21402 67.655 9.49902C68.017 9.84802 68.198 10.369 68.198 11.061V13.885Z" fill="white"/>
<path d="M71.088 13.8851H70.041V7.00806H71.088V13.8851Z" fill="white"/>
<path d="M77.258 11.489C77.258 12.214 77.051 12.808 76.637 13.274C76.203 13.753 75.627 13.992 74.91 13.992C74.217 13.992 73.666 13.763 73.256 13.303C72.846 12.844 72.641 12.265 72.641 11.567C72.641 10.837 72.852 10.238 73.276 9.77295C73.7 9.30795 74.27 9.07495 74.987 9.07495C75.68 9.07495 76.235 9.30395 76.657 9.76295C77.057 10.209 77.258 10.785 77.258 11.489ZM76.17 11.523C76.17 11.088 76.076 10.715 75.889 10.404C75.67 10.028 75.356 9.83995 74.95 9.83995C74.528 9.83995 74.208 10.028 73.989 10.404C73.801 10.715 73.708 11.094 73.708 11.542C73.708 11.977 73.802 12.35 73.989 12.661C74.216 13.037 74.532 13.225 74.94 13.225C75.34 13.225 75.653 13.034 75.879 12.651C76.074 12.334 76.17 11.958 76.17 11.523Z" fill="white"/>
<path d="M82.3301 13.885H81.3891L81.3111 13.342H81.2821C80.9601 13.775 80.5011 13.992 79.9051 13.992C79.4601 13.992 79.1001 13.849 78.8291 13.565C78.5831 13.307 78.4601 12.986 78.4601 12.605C78.4601 12.029 78.7001 11.59 79.1831 11.286C79.6651 10.982 80.3431 10.833 81.2161 10.84V10.752C81.2161 10.131 80.8901 9.82095 80.2371 9.82095C79.7721 9.82095 79.3621 9.93795 79.0081 10.17L78.7951 9.48195C79.2331 9.21095 79.7741 9.07495 80.4121 9.07495C81.6441 9.07495 82.2621 9.72495 82.2621 11.025V12.761C82.2621 13.232 82.2851 13.607 82.3301 13.885ZM81.2421 12.265V11.538C80.0861 11.518 79.5081 11.835 79.5081 12.488C79.5081 12.734 79.5741 12.918 79.7091 13.041C79.8441 13.164 80.0161 13.225 80.2211 13.225C80.4511 13.225 80.6661 13.152 80.8621 13.007C81.0591 12.861 81.1801 12.676 81.2251 12.449C81.2361 12.398 81.2421 12.336 81.2421 12.265Z" fill="white"/>
<path d="M88.285 13.8851H87.355L87.306 13.1281H87.277C86.98 13.7041 86.474 13.9921 85.763 13.9921C85.195 13.9921 84.722 13.7691 84.347 13.3231C83.972 12.8771 83.785 12.2981 83.785 11.5871C83.785 10.8241 83.988 10.2061 84.396 9.73406C84.791 9.29406 85.275 9.07406 85.851 9.07406C86.484 9.07406 86.927 9.28706 87.179 9.71406H87.199V7.00806H88.248V12.6151C88.248 13.0741 88.26 13.4971 88.285 13.8851ZM87.199 11.8971V11.1111C87.199 10.9751 87.189 10.8651 87.17 10.7811C87.111 10.5291 86.984 10.3171 86.791 10.1461C86.596 9.97506 86.361 9.88906 86.09 9.88906C85.699 9.88906 85.393 10.0441 85.168 10.3551C84.945 10.6661 84.832 11.0631 84.832 11.5481C84.832 12.0141 84.939 12.3921 85.154 12.6831C85.381 12.9931 85.687 13.1481 86.07 13.1481C86.414 13.1481 86.689 13.0191 86.898 12.7601C87.1 12.5211 87.199 12.2331 87.199 11.8971Z" fill="white"/>
<path d="M97.248 11.489C97.248 12.214 97.041 12.808 96.627 13.274C96.193 13.753 95.619 13.992 94.9 13.992C94.209 13.992 93.658 13.763 93.246 13.303C92.836 12.844 92.631 12.265 92.631 11.567C92.631 10.837 92.842 10.238 93.266 9.77295C93.69 9.30795 94.26 9.07495 94.979 9.07495C95.67 9.07495 96.227 9.30395 96.647 9.76295C97.047 10.209 97.248 10.785 97.248 11.489ZM96.162 11.523C96.162 11.088 96.068 10.715 95.881 10.404C95.66 10.028 95.348 9.83995 94.94 9.83995C94.52 9.83995 94.2 10.028 93.979 10.404C93.791 10.715 93.698 11.094 93.698 11.542C93.698 11.977 93.792 12.35 93.979 12.661C94.206 13.037 94.522 13.225 94.93 13.225C95.33 13.225 95.645 13.034 95.871 12.651C96.064 12.334 96.162 11.958 96.162 11.523Z" fill="white"/>
<path d="M102.883 13.885H101.836V11.185C101.836 10.353 101.52 9.93702 100.885 9.93702C100.574 9.93702 100.323 10.051 100.129 10.28C99.9351 10.509 99.8381 10.779 99.8381 11.088V13.884H98.7891V10.518C98.7891 10.104 98.7771 9.65502 98.7521 9.16902H99.6721L99.7211 9.90602H99.7501C99.8731 9.67702 100.055 9.48802 100.293 9.33702C100.578 9.16102 100.895 9.07202 101.244 9.07202C101.683 9.07202 102.049 9.21402 102.34 9.49902C102.703 9.84802 102.883 10.369 102.883 11.061V13.885Z" fill="white"/>
<path d="M109.936 9.95607H108.782V12.2461C108.782 12.8281 108.987 13.1191 109.393 13.1191C109.581 13.1191 109.737 13.1031 109.86 13.0701L109.887 13.8651C109.68 13.9431 109.408 13.9821 109.073 13.9821C108.659 13.9821 108.337 13.8561 108.104 13.6041C107.87 13.3521 107.754 12.9281 107.754 12.3331V9.95607H107.065V9.17107H107.754V8.30707L108.781 7.99707V9.17007H109.935V9.95607H109.936Z" fill="white"/>
<path d="M115.484 13.8851H114.435V11.2051C114.435 10.3601 114.119 9.93706 113.486 9.93706C113 9.93706 112.668 10.1821 112.486 10.6721C112.455 10.7751 112.437 10.9011 112.437 11.0491V13.8841H111.39V7.00806H112.437V9.84906H112.457C112.787 9.33206 113.26 9.07406 113.873 9.07406C114.307 9.07406 114.666 9.21606 114.951 9.50106C115.306 9.85606 115.484 10.3841 115.484 11.0821V13.8851Z" fill="white"/>
<path d="M121.207 11.3052C121.207 11.4932 121.193 11.6512 121.168 11.7802H118.025C118.039 12.2462 118.189 12.6012 118.48 12.8472C118.746 13.0672 119.089 13.1772 119.509 13.1772C119.974 13.1772 120.398 13.1032 120.78 12.9542L120.944 13.6822C120.497 13.8762 119.971 13.9732 119.362 13.9732C118.632 13.9732 118.057 13.7582 117.641 13.3282C117.223 12.8982 117.016 12.3212 117.016 11.5972C117.016 10.8862 117.209 10.2942 117.598 9.82216C118.004 9.31816 118.553 9.06616 119.246 9.06616C119.924 9.06616 120.439 9.31816 120.787 9.82216C121.068 10.2222 121.207 10.7172 121.207 11.3052ZM120.207 11.0342C120.215 10.7232 120.146 10.4552 120.004 10.2292C119.822 9.93816 119.545 9.79216 119.17 9.79216C118.828 9.79216 118.549 9.93416 118.336 10.2192C118.162 10.4462 118.059 10.7172 118.025 11.0342H120.207Z" fill="white"/>
</svg>
