<svg width="24" height="24" viewBox="0 0 24 24" fill="none" xmlns="http://www.w3.org/2000/svg">
<mask id="mask0_309_1759" style="mask-type:alpha" maskUnits="userSpaceOnUse" x="0" y="0" width="24" height="24">
<rect width="24" height="24" fill="#D9D9D9"/>
</mask>
<g mask="url(#mask0_309_1759)">
<path d="M19 8C19.2833 8 19.5207 7.90433 19.712 7.713C19.904 7.521 20 7.28333 20 7C20 6.71667 19.904 6.479 19.712 6.287C19.5207 6.09567 19.2833 6 19 6C18.7167 6 18.4793 6.09567 18.288 6.287C18.096 6.479 18 6.71667 18 7C18 7.28333 18.096 7.521 18.288 7.713C18.4793 7.90433 18.7167 8 19 8ZM19 10C18.15 10 17.4377 9.71233 16.863 9.137C16.2877 8.56233 16 7.85 16 7C16 6.16667 16.2877 5.45833 16.863 4.875C17.4377 4.29167 18.15 4 19 4C19.8333 4 20.5417 4.29167 21.125 4.875C21.7083 5.45833 22 6.16667 22 7C22 7.85 21.7083 8.56233 21.125 9.137C20.5417 9.71233 19.8333 10 19 10ZM12 7C12.4167 7 12.7707 6.85833 13.062 6.575C13.354 6.29167 13.5 5.93333 13.5 5.5C13.5 5.08333 13.354 4.72933 13.062 4.438C12.7707 4.146 12.4167 4 12 4C11.5667 4 11.2083 4.146 10.925 4.438C10.6417 4.72933 10.5 5.08333 10.5 5.5C10.5 5.93333 10.6417 6.29167 10.925 6.575C11.2083 6.85833 11.5667 7 12 7ZM12 9C11.0167 9 10.1873 8.66233 9.512 7.987C8.83733 7.31233 8.5 6.48333 8.5 5.5C8.5 4.53333 8.83733 3.70833 9.512 3.025C10.1873 2.34167 11.0167 2 12 2C12.9667 2 13.7917 2.34167 14.475 3.025C15.1583 3.70833 15.5 4.53333 15.5 5.5C15.5 6.48333 15.1583 7.31233 14.475 7.987C13.7917 8.66233 12.9667 9 12 9ZM8 13.375C8 13.875 8.26667 14.4583 8.8 15.125C9.33333 15.7917 10.4 16.85 12 18.3C13.5667 16.8833 14.625 15.8417 15.175 15.175C15.725 14.5083 16 13.9083 16 13.375C16 12.9917 15.875 12.6667 15.625 12.4C15.375 12.1333 15.0667 12 14.7 12C14.4667 12 14.246 12.05 14.038 12.15C13.8293 12.25 13.6583 12.3917 13.525 12.575L12.325 14H11.65L10.45 12.575C10.3167 12.3917 10.146 12.25 9.938 12.15C9.72933 12.05 9.51667 12 9.3 12C8.91667 12 8.60433 12.1333 8.363 12.4C8.121 12.6667 8 12.9917 8 13.375ZM6 13.375C6 12.4917 6.3 11.7083 6.9 11.025C7.5 10.3417 8.3 10 9.3 10C9.81667 10 10.3127 10.1167 10.788 10.35C11.2627 10.5833 11.6667 10.9 12 11.3C12.3333 10.9 12.7333 10.5833 13.2 10.35C13.6667 10.1167 14.1667 10 14.7 10C15.7 10 16.5 10.3457 17.1 11.037C17.7 11.729 18 12.5083 18 13.375C18 14.2583 17.6793 15.129 17.038 15.987C16.396 16.8457 15.0833 18.1833 13.1 20L12 21L10.9 20C8.88333 18.1667 7.56267 16.825 6.938 15.975C6.31267 15.125 6 14.2583 6 13.375ZM5 8C5.28333 8 5.521 7.90433 5.713 7.713C5.90433 7.521 6 7.28333 6 7C6 6.71667 5.90433 6.479 5.713 6.287C5.521 6.09567 5.28333 6 5 6C4.71667 6 4.479 6.09567 4.287 6.287C4.09567 6.479 4 6.71667 4 7C4 7.28333 4.09567 7.521 4.287 7.713C4.479 7.90433 4.71667 8 5 8ZM12.075 22V20H20V13H17.05V11H20C20.55 11 21.021 11.1957 21.413 11.587C21.8043 11.979 22 12.45 22 13V21C22 21.2833 21.904 21.5207 21.712 21.712C21.5207 21.904 21.2833 22 21 22H12.075ZM4 20H12.075V22H3C2.71667 22 2.47933 21.904 2.288 21.712C2.096 21.5207 2 21.2833 2 21V13C2 12.45 2.19167 11.979 2.575 11.587C2.95833 11.1957 3.43333 11 4 11H6.95V13H4V20ZM5 10C4.15 10 3.43733 9.71233 2.862 9.137C2.28733 8.56233 2 7.85 2 7C2 6.16667 2.28733 5.45833 2.862 4.875C3.43733 4.29167 4.15 4 5 4C5.83333 4 6.54167 4.29167 7.125 4.875C7.70833 5.45833 8 6.16667 8 7C8 7.85 7.70833 8.56233 7.125 9.137C6.54167 9.71233 5.83333 10 5 10Z" fill="#14B8A6"/>
</g>
</svg>
