<svg width="24" height="25" viewBox="0 0 24 25" fill="none" xmlns="http://www.w3.org/2000/svg">
<mask id="mask0_309_1739" style="mask-type:alpha" maskUnits="userSpaceOnUse" x="0" y="0" width="24" height="25">
<rect y="0.5" width="24" height="24" fill="#D9D9D9"/>
</mask>
<g mask="url(#mask0_309_1739)">
<path d="M10.65 20.3L8.925 18.725C7.15833 17.1083 5.56267 15.504 4.138 13.912C2.71267 12.3207 2 10.5667 2 8.64999C2 7.08333 2.525 5.77499 3.575 4.72499C4.625 3.67499 5.93333 3.14999 7.5 3.14999C8.38333 3.14999 9.21667 3.33733 10 3.71199C10.7833 4.08733 11.45 4.59999 12 5.24999C12.55 4.59999 13.2167 4.08733 14 3.71199C14.7833 3.33733 15.6167 3.14999 16.5 3.14999C18.0667 3.14999 19.375 3.67499 20.425 4.72499C21.475 5.77499 22 7.08333 22 8.64999C22 10.5667 21.2917 12.325 19.875 13.925C18.4583 15.525 16.85 17.1333 15.05 18.75L13.35 20.3C12.9667 20.6667 12.5167 20.85 12 20.85C11.4833 20.85 11.0333 20.6667 10.65 20.3ZM11.05 7.24999C10.5667 6.56666 10.05 6.04566 9.5 5.68699C8.95 5.32899 8.28333 5.14999 7.5 5.14999C6.5 5.14999 5.66667 5.48333 5 6.14999C4.33333 6.81666 4 7.64999 4 8.64999C4 9.51666 4.30833 10.4373 4.925 11.412C5.54167 12.3873 6.27933 13.3333 7.138 14.25C7.996 15.1667 8.87933 16.025 9.788 16.825C10.696 17.625 11.4333 18.2833 12 18.8C12.5667 18.2833 13.3043 17.625 14.213 16.825C15.121 16.025 16.0043 15.1667 16.863 14.25C17.721 13.3333 18.4583 12.3873 19.075 11.412C19.6917 10.4373 20 9.51666 20 8.64999C20 7.64999 19.6667 6.81666 19 6.14999C18.3333 5.48333 17.5 5.14999 16.5 5.14999C15.7167 5.14999 15.05 5.32899 14.5 5.68699C13.95 6.04566 13.4333 6.56666 12.95 7.24999C12.8333 7.41666 12.6917 7.54166 12.525 7.62499C12.3583 7.70833 12.1833 7.74999 12 7.74999C11.8167 7.74999 11.6417 7.70833 11.475 7.62499C11.3083 7.54166 11.1667 7.41666 11.05 7.24999Z" fill="#64748B"/>
</g>
</svg>
