<svg width="18" height="18" viewBox="0 0 18 18" fill="none" xmlns="http://www.w3.org/2000/svg">
<path d="M12.325 13.2751C12.1417 13.0584 12.05 12.8124 12.05 12.5371C12.05 12.2624 12.1417 12.0334 12.325 11.8501L14.175 10.0001H7C6.71667 10.0001 6.47933 9.90406 6.288 9.71206C6.096 9.52073 6 9.28339 6 9.00006C6 8.71673 6.096 8.47906 6.288 8.28706C6.47933 8.09573 6.71667 8.00006 7 8.00006H14.175L12.325 6.15006C12.125 5.95006 12.025 5.71273 12.025 5.43806C12.025 5.16273 12.125 4.92506 12.325 4.72506C12.5083 4.52506 12.7377 4.42506 13.013 4.42506C13.2877 4.42506 13.5167 4.51673 13.7 4.70006L17.3 8.30006C17.4 8.40006 17.471 8.50839 17.513 8.62506C17.5543 8.74173 17.575 8.86673 17.575 9.00006C17.575 9.13339 17.5543 9.25839 17.513 9.37506C17.471 9.49173 17.4 9.60006 17.3 9.70006L13.7 13.3001C13.4833 13.5167 13.246 13.6124 12.988 13.5871C12.7293 13.5624 12.5083 13.4584 12.325 13.2751ZM2 18.0001C1.45 18.0001 0.979 17.8044 0.587 17.4131C0.195667 17.0211 0 16.5501 0 16.0001V2.00006C0 1.45006 0.195667 0.979061 0.587 0.587061C0.979 0.195728 1.45 6.10352e-05 2 6.10352e-05H8C8.28333 6.10352e-05 8.521 0.0957276 8.713 0.287061C8.90433 0.479061 9 0.716728 9 1.00006C9 1.28339 8.90433 1.52073 8.713 1.71206C8.521 1.90406 8.28333 2.00006 8 2.00006H2V16.0001H8C8.28333 16.0001 8.521 16.0961 8.713 16.2881C8.90433 16.4794 9 16.7167 9 17.0001C9 17.2834 8.90433 17.5207 8.713 17.7121C8.521 17.9041 8.28333 18.0001 8 18.0001H2Z" fill="#64748B"/>
</svg>
