<svg width="24" height="24" viewBox="0 0 24 24" fill="none" xmlns="http://www.w3.org/2000/svg">
<mask id="mask0_309_1770" style="mask-type:alpha" maskUnits="userSpaceOnUse" x="0" y="0" width="24" height="24">
<rect width="24" height="24" fill="#D9D9D9"/>
</mask>
<g mask="url(#mask0_309_1770)">
<path d="M19.2748 10C19.1415 10 19.0331 9.96233 18.9498 9.887C18.8665 9.81233 18.8081 9.71667 18.7748 9.6L18.6498 8.95C18.4998 8.9 18.3625 8.83733 18.2378 8.762C18.1125 8.68733 17.9998 8.6 17.8998 8.5L17.2248 8.725C17.1081 8.75833 16.9998 8.754 16.8998 8.712C16.7998 8.67067 16.7165 8.6 16.6498 8.5L16.3498 8C16.2831 7.9 16.2581 7.79167 16.2748 7.675C16.2915 7.55833 16.3498 7.45833 16.4498 7.375L16.9998 6.9C16.9665 6.81667 16.9498 6.75 16.9498 6.7V6.3C16.9498 6.25 16.9665 6.18333 16.9998 6.1L16.4498 5.625C16.3498 5.54167 16.2915 5.44167 16.2748 5.325C16.2581 5.20833 16.2831 5.1 16.3498 5L16.6498 4.5C16.7165 4.4 16.7998 4.329 16.8998 4.287C16.9998 4.24567 17.1081 4.24167 17.2248 4.275L17.8998 4.5C17.9998 4.4 18.1125 4.31233 18.2378 4.237C18.3625 4.16233 18.4998 4.1 18.6498 4.05L18.7748 3.4C18.8081 3.28333 18.8665 3.18733 18.9498 3.112C19.0331 3.03733 19.1415 3 19.2748 3H19.8248C19.9581 3 20.0665 3.03733 20.1498 3.112C20.2331 3.18733 20.2915 3.28333 20.3248 3.4L20.4498 4.05C20.5998 4.1 20.7375 4.16233 20.8628 4.237C20.9875 4.31233 21.0998 4.4 21.1998 4.5L21.8748 4.275C21.9915 4.24167 22.0998 4.24567 22.1998 4.287C22.2998 4.329 22.3831 4.4 22.4498 4.5L22.7498 5C22.8165 5.1 22.8415 5.20833 22.8248 5.325C22.8081 5.44167 22.7498 5.54167 22.6498 5.625L22.0998 6.1C22.1331 6.18333 22.1498 6.25 22.1498 6.3V6.7C22.1498 6.75 22.1331 6.81667 22.0998 6.9L22.6498 7.375C22.7498 7.45833 22.8081 7.55833 22.8248 7.675C22.8415 7.79167 22.8165 7.9 22.7498 8L22.4498 8.5C22.3831 8.6 22.2998 8.67067 22.1998 8.712C22.0998 8.754 21.9915 8.75833 21.8748 8.725L21.1998 8.5C21.0998 8.6 20.9875 8.68733 20.8628 8.762C20.7375 8.83733 20.5998 8.9 20.4498 8.95L20.3248 9.6C20.2915 9.71667 20.2331 9.81233 20.1498 9.887C20.0665 9.96233 19.9581 10 19.8248 10H19.2748ZM19.5498 7.75C19.8998 7.75 20.1958 7.629 20.4378 7.387C20.6791 7.14567 20.7998 6.85 20.7998 6.5C20.7998 6.15 20.6791 5.854 20.4378 5.612C20.1958 5.37067 19.8998 5.25 19.5498 5.25C19.1998 5.25 18.9041 5.37067 18.6628 5.612C18.4208 5.854 18.2998 6.15 18.2998 6.5C18.2998 6.85 18.4208 7.14567 18.6628 7.387C18.9041 7.629 19.1998 7.75 19.5498 7.75ZM16.7498 15C16.7165 15 16.6331 14.9333 16.4998 14.8L16.3998 14.25C16.2998 14.2167 16.2041 14.179 16.1128 14.137C16.0208 14.0957 15.9331 14.0333 15.8498 13.95L15.3498 14.125L15.0498 14.025L14.7498 13.475C14.7331 13.4583 14.7498 13.3583 14.7998 13.175L15.1998 12.8V12.2L14.7998 11.825C14.7831 11.8083 14.7665 11.7083 14.7498 11.525L15.0498 10.975L15.3498 10.875L15.8498 11.05C15.9165 10.9833 15.9998 10.925 16.0998 10.875C16.1998 10.825 16.2998 10.7833 16.3998 10.75L16.4998 10.2C16.4998 10.1667 16.5831 10.1 16.7498 10H17.3498C17.3831 10 17.4665 10.0667 17.5998 10.2L17.6998 10.75C17.7998 10.7833 17.8998 10.825 17.9998 10.875C18.0998 10.925 18.1831 10.9833 18.2498 11.05L18.7498 10.875L19.0498 10.975L19.3498 11.525C19.3665 11.5417 19.3498 11.6417 19.2998 11.825L18.8998 12.2V12.8L19.2998 13.175C19.3165 13.1917 19.3331 13.2917 19.3498 13.475L19.0498 14.025L18.7498 14.125L18.2498 13.95C18.1665 14.0333 18.0791 14.0957 17.9878 14.137C17.8958 14.179 17.7998 14.2167 17.6998 14.25L17.5998 14.8C17.5998 14.8333 17.5165 14.9 17.3498 15H16.7498ZM17.0498 13.25C17.2498 13.25 17.4248 13.175 17.5748 13.025C17.7248 12.875 17.7998 12.7 17.7998 12.5C17.7998 12.3 17.7248 12.125 17.5748 11.975C17.4248 11.825 17.2498 11.75 17.0498 11.75C16.8498 11.75 16.6748 11.825 16.5248 11.975C16.3748 12.125 16.2998 12.3 16.2998 12.5C16.2998 12.7 16.3748 12.875 16.5248 13.025C16.6748 13.175 16.8498 13.25 17.0498 13.25ZM9.0498 13C7.9498 13 7.00814 12.6083 6.2248 11.825C5.44147 11.0417 5.0498 10.1 5.0498 9H4.7998C4.6498 9 4.52914 8.95433 4.4378 8.863C4.3458 8.771 4.2998 8.65 4.2998 8.5C4.2998 8.35 4.3458 8.229 4.4378 8.137C4.52914 8.04567 4.6498 8 4.7998 8H5.0498C5.0498 7.25 5.23314 6.575 5.5998 5.975C5.96647 5.375 6.4498 4.9 7.0498 4.55V5.5C7.0498 5.65 7.09581 5.77067 7.18781 5.862C7.27914 5.954 7.3998 6 7.5498 6C7.6998 6 7.8208 5.954 7.9128 5.862C8.00414 5.77067 8.0498 5.65 8.0498 5.5V4.15C8.1998 4.1 8.35814 4.06233 8.5248 4.037C8.69147 4.01233 8.86647 4 9.0498 4C9.23314 4 9.40814 4.01233 9.5748 4.037C9.74147 4.06233 9.89981 4.1 10.0498 4.15V5.5C10.0498 5.65 10.0958 5.77067 10.1878 5.862C10.2791 5.954 10.3998 6 10.5498 6C10.6998 6 10.8208 5.954 10.9128 5.862C11.0041 5.77067 11.0498 5.65 11.0498 5.5V4.55C11.6498 4.9 12.1331 5.375 12.4998 5.975C12.8665 6.575 13.0498 7.25 13.0498 8H13.2998C13.4498 8 13.5708 8.04567 13.6628 8.137C13.7541 8.229 13.7998 8.35 13.7998 8.5C13.7998 8.65 13.7541 8.771 13.6628 8.863C13.5708 8.95433 13.4498 9 13.2998 9H13.0498C13.0498 10.1 12.6581 11.0417 11.8748 11.825C11.0915 12.6083 10.1498 13 9.0498 13ZM9.0498 11C9.5998 11 10.0708 10.804 10.4628 10.412C10.8541 10.0207 11.0498 9.55 11.0498 9H7.0498C7.0498 9.55 7.2458 10.0207 7.6378 10.412C8.02914 10.804 8.4998 11 9.0498 11ZM1.0498 21V18.2C1.0498 17.65 1.19147 17.1333 1.4748 16.65C1.75814 16.1667 2.1498 15.8 2.6498 15.55C3.4998 15.1167 4.45814 14.75 5.52481 14.45C6.59147 14.15 7.76647 14 9.0498 14C10.3331 14 11.5081 14.15 12.5748 14.45C13.6415 14.75 14.5998 15.1167 15.4498 15.55C15.9498 15.8 16.3415 16.1667 16.6248 16.65C16.9081 17.1333 17.0498 17.65 17.0498 18.2V21H1.0498ZM3.0498 19H15.0498V18.2C15.0498 18.0167 15.0041 17.85 14.9128 17.7C14.8208 17.55 14.6998 17.4333 14.5498 17.35C13.9498 17.05 13.1791 16.75 12.2378 16.45C11.2958 16.15 10.2331 16 9.0498 16C7.86647 16 6.80414 16.15 5.8628 16.45C4.9208 16.75 4.1498 17.05 3.5498 17.35C3.3998 17.4333 3.27914 17.55 3.1878 17.7C3.0958 17.85 3.0498 18.0167 3.0498 18.2V19Z" fill="#64748B"/>
</g>
</svg>
