<svg width="32" height="32" viewBox="0 0 32 32" fill="none" xmlns="http://www.w3.org/2000/svg">
<path d="M28.0935 10.1201C24.8403 6.81352 20.467 5.00012 15.827 5.00012C11.187 5.00012 6.81354 6.81352 3.50703 10.1201C2.54703 11.1335 3.18703 12.2001 3.50703 12.5735C4.57363 13.5335 5.58703 12.8935 5.96042 12.5735C8.57363 9.90691 12.0934 8.46691 15.8269 8.46691C19.5604 8.46691 23.0804 9.90691 25.6934 12.5735C26.3335 13.2135 27.4534 13.2135 28.1468 12.5735C29.1068 11.4001 28.4668 10.4401 28.0934 10.1201H28.0935ZM27.3469 11.7735C27.0803 12.0401 26.6535 12.0401 26.4403 11.7735C23.6135 8.94691 19.8268 7.40012 15.8268 7.40012C11.8268 7.40012 8.04033 8.94673 5.21336 11.7735C4.94675 12.0401 4.51996 12.0401 4.30675 11.7735C4.20015 11.6669 3.93336 11.2401 4.30675 10.8669C7.40015 7.77352 11.5068 6.06691 15.8268 6.06691C20.1468 6.06691 24.3068 7.77352 27.3468 10.8669C27.5068 10.9735 27.7201 11.4535 27.3468 11.7735H27.3469Z" fill="#0369A1"/>
<path d="M15.8272 9.96011C12.2538 9.96011 8.84066 11.3467 6.33369 13.9067C6.01369 14.2267 5.37369 15.2933 6.33369 16.3601C7.40029 17.3201 8.41369 16.6801 8.78708 16.3601C10.6537 14.4935 13.1605 13.4267 15.8806 13.4267C18.6007 13.4267 21.0541 14.4401 22.9206 16.3601C23.5606 17.0001 24.6806 17.0001 25.374 16.3601C26.0674 15.6667 26.0674 14.6001 25.374 13.9067C22.7606 11.4001 19.4005 9.96011 15.827 9.96011H15.8272ZM24.5737 15.6136C24.3071 15.8802 23.8803 15.8802 23.6671 15.6136C21.5871 13.5336 18.8136 12.3602 15.8271 12.3602C12.8406 12.3602 10.1206 13.5336 7.98708 15.6136C7.72048 15.8802 7.29369 15.8802 7.08048 15.6136C6.76048 15.187 6.97369 14.8136 7.08048 14.6536C9.42708 12.307 12.5205 11.027 15.827 11.027C19.1335 11.027 22.227 12.307 24.5735 14.6536C24.8403 14.9202 24.8403 15.347 24.5735 15.6136H24.5737Z" fill="#0369A1"/>
<path d="M15.8269 14.9736C13.3203 14.9736 10.9204 15.987 9.10692 17.747C8.09353 18.707 8.78692 19.827 9.10692 20.2004C9.42692 20.5204 10.3869 21.107 11.5603 20.2004C12.8403 19.187 14.2269 18.4404 15.8269 18.4404C17.4269 18.4404 18.9735 19.0804 20.0935 20.2004C20.7335 20.8404 21.8535 20.8404 22.5469 20.2004C23.2403 19.507 23.2403 18.4404 22.5469 17.747C20.7335 15.9336 18.3335 14.9736 15.8269 14.9736ZM21.7469 19.4002C21.4803 19.6668 21.0535 19.6668 20.8403 19.4002C19.5069 18.067 17.6935 17.3202 15.8268 17.3202C13.9068 17.3202 12.1468 18.0668 10.8133 19.4002C10.5467 19.6668 10.1733 19.6136 9.90674 19.4002C9.58674 19.0802 9.80013 18.6002 9.90674 18.4936C11.5067 16.8936 13.5867 16.0402 15.8267 16.0402C18.0667 16.0402 20.2001 16.8936 21.7467 18.4936C22.0133 18.707 22.0133 19.1336 21.7467 19.4002H21.7469Z" fill="#0369A1"/>
<path d="M15.8271 19.5071C13.6405 19.5071 11.8271 21.2671 11.8271 23.5071C11.8271 25.6937 13.5871 27.5071 15.8271 27.5071C18.0671 27.5071 19.8271 25.7471 19.8271 23.5071C19.7738 21.3203 18.0138 19.5071 15.8271 19.5071ZM15.8271 26.4401C14.2271 26.4401 12.8938 25.1067 12.8938 23.5067C12.8938 21.9067 14.2271 20.5733 15.8271 20.5733C17.4271 20.5733 18.7605 21.9067 18.7605 23.5067C18.7071 25.1069 17.4271 26.4401 15.8271 26.4401Z" fill="#0369A1"/>
<path d="M15.8269 21.6401C15.5069 21.6401 15.2935 21.8535 15.2935 22.1735C15.2935 22.4935 15.5069 22.7069 15.8269 22.7069C16.2535 22.7069 16.6269 23.0803 16.6269 23.5069C16.6269 23.8269 16.8402 24.0403 17.1602 24.0403C17.4802 24.0403 17.6936 23.8269 17.6936 23.5069C17.6402 22.4935 16.8402 21.6401 15.8269 21.6401Z" fill="#0369A1"/>
</svg>
