<svg width="32" height="32" viewBox="0 0 32 32" fill="none" xmlns="http://www.w3.org/2000/svg">
<path d="M31.9225 20.3019C31.9225 17.7781 29.8635 15.7191 27.3397 15.7191L23.4875 9.14391C23.0225 8.28042 21.8935 7.74916 20.6315 7.74916H20.565L18.5725 4.09618C18.4398 3.89693 18.2405 3.76418 17.9748 3.76418H11.7314C11.4657 3.76418 11.2665 3.89693 11.1337 4.09618L9.1412 7.74916H9.07471C7.81272 7.74916 6.68372 8.28042 6.21872 9.14391L2.36649 15.7191H1.37025C0.639741 15.7191 0.0419922 16.3169 0.0419922 17.0474V22.759C0.0419922 23.4895 0.639741 24.0873 1.37025 24.0873H2.89775C2.96424 26.3455 4.82375 28.205 7.14848 28.205C9.47298 28.205 11.3327 26.3453 11.3992 24.0873H20.6313C20.6978 26.3455 22.5573 28.205 24.882 28.205C27.2065 28.205 29.0663 26.3453 29.1327 24.0873H30.6603C31.3908 24.0873 31.9885 23.4895 31.9885 22.759L31.9225 20.3019ZM22.2919 9.8077L25.7456 15.7186H15.5173V9.07674H20.6313C21.362 9.14345 22.0925 9.40896 22.2918 9.80747L22.2919 9.8077ZM12.1302 5.15869H17.5764L19.0376 7.81543H10.6692L12.1302 5.15869ZM7.34818 9.87419C7.61393 9.47569 8.27794 9.14368 9.07494 9.14368H14.1889V15.7855H3.9606L7.34818 9.87419ZM7.14893 26.943C5.55494 26.943 4.22669 25.6148 4.22669 24.0208C4.22669 22.4268 5.55494 21.0985 7.14893 21.0985C8.74293 21.0985 10.0712 22.4268 10.0712 24.0208C10.0714 25.6148 8.74293 26.943 7.14893 26.943ZM24.8161 26.943C23.2221 26.943 21.8938 25.6148 21.8938 24.0208C21.8938 22.4268 23.2221 21.0985 24.8161 21.0985C26.4101 21.0985 27.7383 22.4268 27.7383 24.0208C27.7383 25.6148 26.4764 26.943 24.8161 26.943ZM28.8673 22.8253C28.3361 21.0985 26.7421 19.8365 24.8159 19.8365C22.8899 19.8365 21.2959 21.0985 20.7644 22.8253H11.1338C10.6026 21.0985 9.00856 19.8365 7.08233 19.8365C5.15633 19.8365 3.56233 21.0985 3.03085 22.8253H1.3041V17.1137L27.2731 17.0472C29.0664 17.0472 30.5276 18.5084 30.5276 20.3016V22.7591L28.8673 22.8253Z" fill="#475569"/>
</svg>
