<svg width="32" height="32" viewBox="0 0 32 32" fill="none" xmlns="http://www.w3.org/2000/svg">
<path d="M20.72 3C18 3 15.76 5.24 15.76 7.96C15.76 8.22661 15.8134 8.54661 15.8134 8.81339H13.4134L12.88 7.05339C12.4534 5.72 11.2266 4.76 9.84 4.76H6.53339C6.21339 4.76 6 4.97339 6 5.29339C6 5.61339 6.21339 5.82679 6.53339 5.82679H9.84C10.8 5.82679 11.6 6.46679 11.8666 7.37339L12.2932 8.81339H10.3198C9.73321 8.81339 9.25321 9.29339 9.25321 9.88V25.56C9.25321 27.2134 10.5866 28.6 12.2932 28.6H16.7732C18.4266 28.6 19.8132 27.2666 19.8132 25.56L19.8134 12.8135C20.08 12.8669 20.4 12.8669 20.6668 12.8669C23.3868 12.8669 25.6268 10.6269 25.6268 7.90688C25.6268 5.1867 23.44 2.99991 20.7198 2.99991L20.72 3ZM18.7468 25.56C18.7468 26.6266 17.8402 27.5334 16.7734 27.5334H12.2934C11.2268 27.5334 10.32 26.68 10.32 25.56V9.88H12.6134L13.84 14.0934L12.6134 15.32C12.5068 15.4266 12.3468 15.8 12.6134 16.0666C12.6134 16.0666 15.0668 18.6266 15.2268 18.5732L15.4934 19.4266L13.7868 17.72C13.5734 17.5066 13.2534 17.5066 13.0402 17.72L10.6402 20.12C10.4268 20.3334 10.4268 20.6534 10.6402 20.8666L13.0402 23.2666C13.1468 23.3732 13.4668 23.5332 13.7868 23.2666L15.9734 21.08L16.8268 24.0134C17.0402 24.4934 17.4134 24.3868 17.4668 24.3868C17.7334 24.2802 17.8934 24.0134 17.8402 23.7468L16.1868 18.0933L18.2134 16.0667C18.4268 15.8533 18.4268 15.5333 18.2134 15.3201L15.8134 12.9201C15.28 12.4401 14.7468 13.2401 14.7468 13.2401L13.7334 9.88009H18.7469L18.7468 25.56ZM15.0668 14.36L15.3868 14.04L17.0402 15.6934L15.8134 16.92L15.0668 14.36ZM14.64 16.6L13.7866 15.7466L14.2134 15.2666L14.64 16.6ZM15.0134 20.5466L13.36 22.2L11.7066 20.5466L13.36 18.8932L15.0134 20.5466ZM20.7199 11.8001C20.3999 11.8001 20.1333 11.7467 19.8665 11.6935V9.88009C19.8665 9.29349 19.3865 8.81349 18.7999 8.81349H16.9865C16.9331 8.54688 16.8799 8.22688 16.8799 7.96009C16.8799 5.8267 18.6399 4.0667 20.7733 4.0667C22.9067 4.0667 24.6667 5.8267 24.6667 7.96009C24.6667 10.0935 22.8533 11.8001 20.7199 11.8001Z" fill="#64748B"/>
</svg>
