<svg width="24" height="24" viewBox="0 0 24 24" fill="none" xmlns="http://www.w3.org/2000/svg">
<mask id="mask0_301_4689" style="mask-type:alpha" maskUnits="userSpaceOnUse" x="0" y="0" width="24" height="24">
<rect width="24" height="24" fill="#D9D9D9"/>
</mask>
<g mask="url(#mask0_301_4689)">
<path d="M11.9998 18.275L7.84983 20.775C7.66649 20.8917 7.47483 20.9417 7.27483 20.925C7.07483 20.9083 6.89983 20.8417 6.74983 20.725C6.59983 20.6083 6.48316 20.4627 6.39983 20.288C6.31649 20.1127 6.29983 19.9167 6.34983 19.7L7.44983 14.975L3.77483 11.8C3.60816 11.65 3.50416 11.479 3.46283 11.287C3.42083 11.0957 3.43316 10.9083 3.49983 10.725C3.56649 10.5417 3.66649 10.3917 3.79983 10.275C3.93316 10.1583 4.11649 10.0833 4.34983 10.05L9.19983 9.62501L11.0748 5.17501C11.1582 4.97501 11.2875 4.82501 11.4628 4.72501C11.6375 4.62501 11.8165 4.57501 11.9998 4.57501C12.1832 4.57501 12.3625 4.62501 12.5378 4.72501C12.7125 4.82501 12.8415 4.97501 12.9248 5.17501L14.7998 9.62501L19.6498 10.05C19.8832 10.0833 20.0665 10.1583 20.1998 10.275C20.3332 10.3917 20.4332 10.5417 20.4998 10.725C20.5665 10.9083 20.5792 11.0957 20.5378 11.287C20.4958 11.479 20.3915 11.65 20.2248 11.8L16.5498 14.975L17.6498 19.7C17.6998 19.9167 17.6832 20.1127 17.5998 20.288C17.5165 20.4627 17.3998 20.6083 17.2498 20.725C17.0998 20.8417 16.9248 20.9083 16.7248 20.925C16.5248 20.9417 16.3332 20.8917 16.1498 20.775L11.9998 18.275Z" fill="#F59E0B"/>
</g>
</svg>
