<svg width="32" height="32" viewBox="0 0 32 32" fill="none" xmlns="http://www.w3.org/2000/svg">
<g clip-path="url(#clip0_301_4400)">
<path d="M25.7886 20.5114H24.2553L22.3221 12.3781C22.0553 11.3114 21.2553 10.5781 20.1888 10.3114C20.6555 9.71135 20.922 8.91134 20.922 8.11133C20.922 5.97804 19.1888 4.31128 17.122 4.31128C14.9887 4.31128 13.3219 6.04456 13.3219 8.11133C13.3219 9.4446 13.9887 10.5781 14.9887 11.3114C14.522 11.9114 14.2554 12.7114 14.3887 13.5114L9.9219 16.9114C8.92188 17.7114 8.72188 19.1115 9.45515 20.1115L9.85515 20.5115H7.45512C6.98837 20.5115 6.52185 20.7115 6.25511 21.0448C5.58835 20.5115 4.72183 20.1115 3.78833 20.1115C1.65505 20.1115 -0.0117188 21.8448 -0.0117188 23.9115C-0.0117188 26.0448 1.72156 27.7116 3.78833 27.7116C4.7216 27.7116 5.58835 27.3783 6.25511 26.7783C6.58837 27.1116 6.98837 27.3116 7.45512 27.3116H31.3217C31.7217 27.3116 31.9885 27.0448 31.9885 26.6448C31.9885 23.3115 29.1884 20.5116 25.7884 20.5116L25.7886 20.5114ZM17.1216 5.64432C18.5217 5.64432 19.5884 6.77759 19.5884 8.1111C19.5884 9.51112 18.4551 10.5779 17.1216 10.5779C15.7216 10.5779 14.6549 9.4446 14.6549 8.1111C14.5883 6.77759 15.7216 5.64432 17.1216 5.64432ZM10.7216 17.9776L15.5216 14.3108C15.7216 14.1776 15.8549 13.9108 15.7884 13.6441C15.7884 13.6441 15.3216 12.6441 16.3216 11.9108C16.5884 11.9775 17.5217 12.1776 18.7217 11.6441H19.6549C20.3217 11.6441 20.8549 12.1108 21.055 12.7108L22.9217 20.5778H17.4549L16.6551 17.1112C16.5219 16.6445 15.9884 16.4445 15.5884 16.7112L11.9216 19.5112C11.5216 19.8445 10.8548 19.778 10.5883 19.3112C10.1216 18.7112 10.5216 18.1112 10.7216 17.9777V17.9776ZM15.5884 18.3776L16.1216 20.5109H12.7883L15.5884 18.3776ZM3.78822 26.4446C2.3882 26.4446 1.32144 25.3113 1.32144 23.9778C1.32144 22.5778 2.45471 21.511 3.78822 21.511C5.12149 21.511 6.25499 22.6443 6.25499 23.9778C6.32151 25.3113 5.18823 26.4446 3.78822 26.4446ZM7.52152 26.0446C7.38826 26.0446 7.25478 25.9778 7.18826 25.8446C7.52152 25.3113 7.65501 24.6446 7.65501 23.9778C7.65501 23.3111 7.45501 22.6445 7.18826 22.111C7.255 21.9778 7.38826 21.911 7.52152 21.911H25.8549C28.3217 21.911 30.3217 23.7111 30.655 26.1111L7.52152 26.1113V26.0446Z" fill="#475569"/>
</g>
<defs>
<clipPath id="clip0_301_4400">
<rect width="32" height="32" fill="white"/>
</clipPath>
</defs>
</svg>
