<svg width="32" height="32" viewBox="0 0 32 32" fill="none" xmlns="http://www.w3.org/2000/svg">
<g clip-path="url(#clip0_301_4593)">
<path d="M31.3217 13.3888C30.9217 13.3888 30.655 13.6556 30.655 14.0556C30.655 15.4555 29.5882 16.5222 28.255 16.5222H28.1883C28.3215 16.2555 28.3883 15.989 28.3883 15.6555C28.3883 14.6555 27.7215 13.8556 26.855 13.5888C26.7218 7.85584 22.2554 3.12224 16.6553 2.78911V1.3224H17.722C18.122 1.3224 18.3888 1.05567 18.3888 0.655678C18.3888 0.255689 18.122 -0.0110474 17.722 -0.0110474H14.1889C13.7889 -0.0110474 13.5221 0.255689 13.5221 0.655678C13.5221 1.05567 13.7889 1.3224 14.1889 1.3224H15.3219V2.78911C9.65549 3.12236 5.18898 7.85572 5.12212 13.6557C4.2554 13.9224 3.65542 14.7224 3.65542 15.7224C3.65542 15.9891 3.72216 16.3224 3.85541 16.5224L3.72216 16.5221C2.38894 16.5221 1.32222 15.3889 1.32222 14.0555C1.32222 13.6555 1.05548 13.3887 0.655495 13.3887C0.255505 13.3887 -0.0112305 13.6555 -0.0112305 14.0555C-0.0112305 16.1887 1.65547 17.8554 3.72193 17.8554H8.45507L14.7218 24.2552L11.8556 27.3219C11.5223 27.1219 11.1223 26.9886 10.6556 26.9886C9.25562 26.9886 8.12239 28.1218 8.12239 29.5218C8.12217 30.9218 9.25562 31.9885 10.6556 31.9885C12.0555 31.9885 13.1888 30.8553 13.1888 29.4553C13.1888 28.9886 13.0555 28.5886 12.8555 28.1886L15.7887 25.1887L18.7219 28.1886C18.5219 28.5886 18.3886 28.9886 18.3886 29.4553C18.3886 30.8553 19.5219 31.9885 20.9218 31.9885C22.3218 31.9885 23.455 30.8553 23.455 29.4553C23.455 28.0553 22.3218 26.9221 20.9218 26.9221C20.4551 26.9221 20.0551 27.0553 19.7219 27.2553L16.6554 24.3219L22.9221 17.9221H28.2552C30.3219 17.9221 31.9884 16.1889 31.9884 14.1222C31.9884 13.6557 31.7217 13.389 31.3217 13.389V13.3888ZM10.6559 30.6552C9.9892 30.6552 9.45595 30.122 9.45595 29.4553C9.45595 28.7886 9.9892 28.2553 10.6559 28.2553C11.3227 28.2553 11.8559 28.7886 11.8559 29.4553C11.8559 30.1218 11.2559 30.6552 10.6559 30.6552ZM21.9888 29.4553C21.9888 30.122 21.4555 30.6552 20.7888 30.6552C20.1221 30.6552 19.5888 30.122 19.5888 29.4553C19.5888 28.7886 20.1221 28.2553 20.7888 28.2553C21.4555 28.2553 21.9888 28.8553 21.9888 29.4553ZM15.9889 4.05593C21.1221 4.05593 25.3218 8.25583 25.5218 13.5225L6.45603 13.5223C6.58929 8.32246 10.7892 4.05628 15.9889 4.05628V4.05593ZM15.7222 23.3217L10.3891 17.8551H21.0557L15.7222 23.3217ZM8.78923 16.5219H5.78931C5.32258 16.5219 4.98933 16.1219 4.98933 15.6552C4.98933 15.1884 5.38932 14.8552 5.78931 14.8552H26.1888C26.6555 14.8552 26.9888 15.2552 26.9888 15.7219C26.9888 16.1886 26.5888 16.5219 26.1888 16.5219H8.78923Z" fill="#64748B"/>
<path d="M23.9219 11.3889C22.8552 7.85572 19.5888 5.38904 15.989 5.38904C15.589 5.38904 15.3223 5.65577 15.3223 6.05576C15.3223 6.45575 15.589 6.72249 15.989 6.72249C19.0557 6.72249 21.7888 8.78918 22.6557 11.7891C22.7224 12.0558 23.0557 12.3891 23.4557 12.2558C23.8556 12.1221 24.0556 11.7221 23.9222 11.3889H23.9219Z" fill="#64748B"/>
</g>
<defs>
<clipPath id="clip0_301_4593">
<rect width="32" height="32" fill="white"/>
</clipPath>
</defs>
</svg>
