<svg width="24" height="25" viewBox="0 0 24 25" fill="none" xmlns="http://www.w3.org/2000/svg">
<mask id="mask0_249_3403" style="mask-type:alpha" maskUnits="userSpaceOnUse" x="0" y="0" width="24" height="25">
<rect y="0.5" width="24" height="24" fill="#D9D9D9"/>
</mask>
<g mask="url(#mask0_249_3403)">
<path d="M6.05005 21.55C5.86671 21.7 5.67105 21.7083 5.46305 21.575C5.25438 21.4417 5.19171 21.2583 5.27505 21.025L7.15005 14.9L2.27505 11.4C2.07505 11.2667 2.01271 11.0833 2.08805 10.85C2.16271 10.6167 2.31671 10.5 2.55005 10.5H8.60005L10.525 4.10001C10.5584 3.96667 10.621 3.87501 10.713 3.82501C10.8044 3.77501 10.9 3.75001 11 3.75001C11.1 3.75001 11.196 3.77501 11.288 3.82501C11.3794 3.87501 11.4417 3.96667 11.475 4.10001L13.4 10.5H19.45C19.6834 10.5 19.8377 10.6167 19.913 10.85C19.9877 11.0833 19.925 11.2667 19.725 11.4L14.85 14.9L16.725 21.025C16.8084 21.2583 16.746 21.4417 16.538 21.575C16.3294 21.7083 16.1334 21.7 15.95 21.55L11 17.8L6.05005 21.55ZM8.60005 17.15L11 15.3L13.4 17.15L12.5 14.1L14.75 12.5H11.95L11 9.40001L10.05 12.5H7.25005L9.50005 14.1L8.60005 17.15ZM20.1 21.55L18.625 20.425L17.15 15.7L20.25 13.5H22.125C22.3584 13.5 22.5167 13.6167 22.6 13.85C22.6834 14.0833 22.625 14.2667 22.425 14.4L19.5 16.5L20.9 21C20.9834 21.2333 20.9167 21.4207 20.7 21.562C20.4834 21.704 20.2834 21.7 20.1 21.55ZM14.9 8.50001L14.15 5.95001L14.7 4.10001C14.7334 3.96667 14.7957 3.87067 14.887 3.81201C14.979 3.75401 15.075 3.72501 15.175 3.72501C15.275 3.72501 15.371 3.75834 15.463 3.82501C15.5544 3.89167 15.6167 3.98334 15.65 4.10001L17 8.50001H14.9Z" fill="#64748B"/>
</g>
</svg>
