<svg width="24" height="25" viewBox="0 0 24 25" fill="none" xmlns="http://www.w3.org/2000/svg">
<mask id="mask0_249_3395" style="mask-type:alpha" maskUnits="userSpaceOnUse" x="0" y="0" width="24" height="25">
<rect y="0.5" width="24" height="24" fill="#D9D9D9"/>
</mask>
<g mask="url(#mask0_249_3395)">
<path d="M12 21.5C10.05 21.5 8.396 20.8207 7.038 19.462C5.67933 18.104 5 16.45 5 14.5C5 13.2167 5.21267 11.925 5.638 10.625C6.06267 9.325 6.61267 8.14567 7.288 7.087C7.96267 6.029 8.71667 5.16667 9.55 4.5C10.3833 3.83333 11.2 3.5 12 3.5C12.8167 3.5 13.6377 3.83333 14.463 4.5C15.2877 5.16667 16.0377 6.029 16.713 7.087C17.3877 8.14567 17.9377 9.325 18.363 10.625C18.7877 11.925 19 13.2167 19 14.5C19 16.45 18.3207 18.104 16.962 19.462C15.604 20.8207 13.95 21.5 12 21.5ZM12 19.5C13.3833 19.5 14.5627 19.0127 15.538 18.038C16.5127 17.0627 17 15.8833 17 14.5C17 13.55 16.8377 12.55 16.513 11.5C16.1877 10.45 15.7793 9.479 15.288 8.587C14.796 7.69567 14.2583 6.95833 13.675 6.375C13.0917 5.79167 12.5333 5.5 12 5.5C11.4833 5.5 10.9293 5.79167 10.338 6.375C9.746 6.95833 9.20433 7.69567 8.713 8.587C8.221 9.479 7.81267 10.45 7.488 11.5C7.16267 12.55 7 13.55 7 14.5C7 15.8833 7.48767 17.0627 8.463 18.038C9.43767 19.0127 10.6167 19.5 12 19.5ZM13 18.5C13.2833 18.5 13.521 18.404 13.713 18.212C13.9043 18.0207 14 17.7833 14 17.5C14 17.2167 13.9043 16.9793 13.713 16.788C13.521 16.596 13.2833 16.5 13 16.5C12.1667 16.5 11.4583 16.2083 10.875 15.625C10.2917 15.0417 10 14.3333 10 13.5C10 13.2167 9.90433 12.979 9.713 12.787C9.521 12.5957 9.28333 12.5 9 12.5C8.71667 12.5 8.47933 12.5957 8.288 12.787C8.096 12.979 8 13.2167 8 13.5C8 14.8833 8.48767 16.0627 9.463 17.038C10.4377 18.0127 11.6167 18.5 13 18.5Z" fill="#0369A1"/>
</g>
</svg>
