<svg width="32" height="32" viewBox="0 0 32 32" fill="none" xmlns="http://www.w3.org/2000/svg">
<g clip-path="url(#clip0_301_4374)">
<path d="M12.8743 23.0565L12.7413 22.9235L22.9224 12.7424L23.0554 12.8754C23.5877 13.4077 24.3862 13.6739 25.1847 13.5409C27.6469 13.075 29.3103 12.4761 30.2421 11.478C32.571 9.08242 32.571 5.28945 30.2421 2.89389L29.1773 1.82912C26.8484 -0.499823 22.9888 -0.566442 20.5932 1.82912C19.6617 2.76065 18.9962 4.42431 18.5303 6.88649C18.3973 7.68501 18.6633 8.48353 19.1958 9.0158L19.3288 9.14881L9.08154 19.2638L8.94853 19.1308C8.41625 18.5985 7.61773 18.3323 6.81921 18.4653C4.35703 18.9311 2.6936 19.53 1.76184 20.5282C-0.567099 22.9237 -0.567099 26.7167 1.76184 29.1123L2.82661 30.177C5.15555 32.506 9.01515 32.5726 11.4107 30.177C12.3422 29.2455 13.0077 27.5819 13.4736 25.1197C13.673 24.3875 13.4068 23.589 12.8745 23.0568L12.8743 23.0565ZM19.7946 7.08612C20.1939 4.89019 20.7261 3.49278 21.4583 2.76088C23.3216 0.897588 26.316 0.964207 28.1789 2.76088L29.2437 3.82565C31.107 5.68894 31.107 8.68339 29.2437 10.5463C28.5118 11.2782 27.0478 11.8107 24.9185 12.21C24.5858 12.2766 24.1866 12.1434 23.9869 11.8774L20.1271 8.01754C19.8611 7.81791 19.7279 7.41865 19.7945 7.08601L19.7946 7.08612ZM20.1939 10.014L21.9239 11.744L11.8095 21.9919L10.0128 20.1952L20.1939 10.014ZM3.82419 29.2452L2.75942 28.1804C0.896133 26.3171 0.896133 23.3227 2.75942 21.4597C3.49132 20.7278 4.95535 20.1953 7.08467 19.7961C7.41731 19.7294 7.81657 19.8627 8.0162 20.1287L11.8758 23.9883C12.142 24.2545 12.2084 24.5872 12.2084 24.9198C11.8092 27.1157 11.2769 28.5132 10.5448 29.2451C8.68194 31.1083 5.68748 31.1083 3.82408 29.2453L3.82419 29.2452Z" fill="#475569"/>
</g>
<defs>
<clipPath id="clip0_301_4374">
<rect width="32" height="32" fill="white"/>
</clipPath>
</defs>
</svg>
