<svg width="32" height="32" viewBox="0 0 32 32" fill="none" xmlns="http://www.w3.org/2000/svg">
<path d="M11.4898 15.3324H3.94559V6.92062C3.94559 5.85238 3.07764 4.98466 2.00963 4.98466C0.941398 4.98466 0.00683594 5.85261 0.00683594 6.92062V25.0127C0.00683594 26.081 0.874791 26.9487 1.9428 26.9487C3.01103 26.9487 3.87876 26.0807 3.87876 25.0127V19.2716H9.48659V25.0127C9.48659 26.081 10.3545 26.9487 11.4225 26.9487C12.4908 26.9487 13.3585 26.0807 13.3585 25.0127L13.3587 17.3352C13.4256 16.2671 12.5576 15.3324 11.4896 15.3324H11.4898ZM2.61059 25.0127C2.61059 25.3465 2.34347 25.6136 2.00975 25.6136C1.67602 25.6136 1.34207 25.3465 1.34207 25.0127V6.92062C1.34207 6.58689 1.60919 6.31978 1.94291 6.31978C2.27663 6.31978 2.54375 6.58689 2.54375 6.92062V25.0127H2.61059ZM12.0907 25.0796C12.0907 25.4133 11.8236 25.6804 11.4898 25.6804C11.1561 25.6804 10.889 25.4133 10.889 25.0796V18.6706C10.889 18.2701 10.6219 18.0029 10.2213 18.0029H3.94571V16.6678H11.4894C11.8231 16.6678 12.0902 16.9349 12.0902 17.2687L12.0907 25.0796Z" fill="#475569"/>
<path d="M30.1161 4.98476C29.0478 4.98476 28.1801 5.85272 28.1801 6.92072L28.1799 15.3325H20.5693C19.501 15.3325 18.6333 16.2004 18.6333 17.2684V25.0124C18.6333 26.0806 19.5013 26.9483 20.5693 26.9483C21.6375 26.9483 22.5052 26.0804 22.5052 25.0124V19.2712H28.113V25.0124C28.113 26.0806 28.981 26.9483 30.049 26.9483C31.1172 26.9483 31.985 26.0804 31.985 25.0124L31.9852 6.92083C32.052 5.85283 31.1841 4.98487 30.1161 4.98487V4.98476ZM21.9046 17.936C21.504 17.936 21.2369 18.2031 21.2369 18.6037V25.0126C21.2369 25.3463 20.9698 25.6134 20.6361 25.6134C20.3024 25.6134 20.0353 25.3463 20.0353 25.0126V17.335C20.0353 17.0013 20.3024 16.7342 20.6361 16.7342H28.1798V18.0027H21.9047L21.9046 17.936ZM30.7169 25.0127C30.7169 25.3464 30.4498 25.6136 30.1161 25.6136C29.7823 25.6136 29.5152 25.3464 29.5152 25.0127V6.92061C29.5152 6.58688 29.7823 6.31977 30.1161 6.31977C30.4498 6.31977 30.7169 6.58688 30.7169 6.92061V25.0127Z" fill="#475569"/>
<path d="M22.6387 12.5285C23.7736 12.5285 24.6415 11.5939 24.6415 10.5257C24.6415 9.45742 23.707 8.52286 22.6387 8.52286H9.42028C8.28544 8.52286 7.41748 9.45742 7.41748 10.5257C7.41748 11.5939 8.35204 12.5285 9.42028 12.5285H14.2938V25.2794C14.2938 26.214 15.0949 27.0151 16.0295 27.0151C16.9641 27.0151 17.7652 26.214 17.7652 25.2794V12.5285H22.6387ZM8.75249 10.5257C8.75249 10.1251 9.08621 9.85798 9.42016 9.85798H22.6386C23.0392 9.85798 23.3063 10.1917 23.3063 10.5257C23.3063 10.9262 22.9726 11.1933 22.6386 11.1933H9.42016C9.0196 11.1933 8.75249 10.9262 8.75249 10.5257ZM16.4301 25.28C16.4301 25.4803 16.2298 25.6805 16.0295 25.6805C15.8292 25.6805 15.6289 25.4803 15.6289 25.28V12.5285H16.4301V25.28Z" fill="#475569"/>
</svg>
