<svg width="32" height="32" viewBox="0 0 32 32" fill="none" xmlns="http://www.w3.org/2000/svg">
<path d="M21.7013 19.3065C20.5279 20.4799 18.6613 20.4799 17.4879 19.3065C17.2746 19.0931 16.9546 19.0931 16.7413 19.3065C15.5679 20.4799 13.7013 20.4799 12.5279 19.3065C12.4213 19.1999 12.3146 19.1465 12.1546 19.1465C11.9946 19.1465 11.8879 19.1999 11.7812 19.3065C10.6078 20.4799 8.68776 20.4799 7.56776 19.3065C7.24794 19.1465 6.92794 19.1465 6.71473 19.3065C6.50134 19.4665 6.50134 19.8399 6.71473 20.0531C8.15473 21.4931 10.5013 21.6531 12.1012 20.3731C13.5412 21.4931 15.6212 21.4931 17.1147 20.3731C18.7147 21.5997 21.0081 21.4931 22.5012 20.0531C22.7146 19.8397 22.7146 19.5197 22.5012 19.3065C22.2879 19.0931 21.9146 19.1465 21.7012 19.3065H21.7013Z" fill="#475569"/>
<path d="M18.3952 22.08C17.2218 23.2534 15.3552 23.2534 14.1818 22.08C14.0752 21.9734 13.9684 21.92 13.8084 21.92C13.6484 21.92 13.5418 21.9734 13.435 22.08C12.2616 23.2534 10.395 23.2534 9.22159 22.08C9.0082 21.8666 8.6882 21.8666 8.47499 22.08C8.26159 22.2934 8.26159 22.6134 8.47499 22.8266C9.91499 24.2666 12.2616 24.4266 13.8615 23.1466C15.4615 24.3732 17.7549 24.2666 19.248 22.8266C19.4614 22.6132 19.4614 22.2932 19.248 22.08C18.9282 21.8666 18.6082 21.8666 18.395 22.08H18.3952Z" fill="#475569"/>
<path d="M22.128 3.99988C19.568 3.99988 17.168 5.54648 16.1015 7.89327C15.3015 9.59988 14.0749 10.9867 12.5281 11.9999V10.5599C12.5281 9.38648 11.5681 8.42648 10.3947 8.42648C9.22133 8.42648 8.26133 9.38648 8.26133 10.5599V10.7733C8.26133 11.0933 8.47472 11.3067 8.79472 11.3067C9.11472 11.3067 9.32812 11.0933 9.32812 10.7733V10.5599C9.32812 9.97327 9.80812 9.49327 10.3947 9.49327C10.9813 9.49327 11.4613 9.97327 11.4613 10.5599V12.5865C9.86133 13.3331 9.32793 13.1731 7.62133 13.8665V10.5599C7.62133 9.38648 6.66133 8.42648 5.48793 8.42648C4.31454 8.42648 3.35454 9.38648 3.35454 10.5599V10.7733C3.35454 11.0933 3.56793 11.3067 3.88793 11.3067C4.20793 11.3067 4.42133 11.0933 4.42133 10.7733V10.5599C4.42133 9.97327 4.90133 9.49327 5.48793 9.49327C6.07454 9.49327 6.55454 9.97327 6.55454 10.5599L6.5549 14.3465C4.52829 15.4665 3.24829 17.1199 3.0349 19.04C2.3949 24.4265 10.7149 27.8935 15.0884 27.8935C21.7019 27.8935 25.3284 21.0135 26.8749 16.9069C27.5683 15.0403 28.6349 11.4135 28.6349 10.3469C28.4749 6.82676 25.5949 3.99997 22.1279 3.99997L22.128 3.99988ZM11.4615 13.7599V15.6265H7.62151V14.9865C9.27491 14.2399 9.86151 14.3999 11.4615 13.7599ZM25.8615 16.5331C24.4215 20.3731 21.0615 26.8266 15.088 26.8266C11.4614 26.8266 3.515 23.84 4.10151 19.1466C4.26151 17.76 5.16812 16.48 6.60812 15.5732V17.4932C6.60812 17.8132 6.82151 18.0266 7.14151 18.0266C7.46151 18.0266 7.67491 17.8132 7.67491 17.4932V16.6932H11.5149V17.4932C11.5149 17.8132 11.7283 18.0266 12.0483 18.0266C12.3683 18.0266 12.5817 17.8132 12.5817 17.4932V13.2266C14.5017 12.16 16.1017 10.4532 17.1151 8.37309C18.0751 6.3997 20.0485 5.1197 22.1816 5.1197C25.0616 5.1197 27.4616 7.4663 27.5681 10.3997C27.5147 11.1465 26.6613 14.3465 25.8613 16.5332L25.8615 16.5331Z" fill="#475569"/>
</svg>
