<svg width="24" height="25" viewBox="0 0 24 25" fill="none" xmlns="http://www.w3.org/2000/svg">
<mask id="mask0_249_3411" style="mask-type:alpha" maskUnits="userSpaceOnUse" x="0" y="0" width="24" height="25">
<rect y="0.5" width="24" height="24" fill="#D9D9D9"/>
</mask>
<g mask="url(#mask0_249_3411)">
<path d="M12 15.45L14.775 17.55C14.975 17.6833 15.175 17.6873 15.375 17.562C15.575 17.4373 15.6333 17.2583 15.55 17.025L14.5 13.55L17.225 11.6C17.425 11.45 17.4833 11.2623 17.4 11.037C17.3167 10.8123 17.1583 10.7 16.925 10.7H13.6L12.475 7.05C12.3917 6.81667 12.2333 6.7 12 6.7C11.7667 6.7 11.6083 6.81667 11.525 7.05L10.4 10.7H7.075C6.84167 10.7 6.68333 10.8123 6.6 11.037C6.51667 11.2623 6.575 11.45 6.775 11.6L9.5 13.55L8.45 17.025C8.36667 17.2583 8.425 17.4373 8.625 17.562C8.825 17.6873 9.025 17.6833 9.225 17.55L12 15.45ZM12 22.5C10.6167 22.5 9.31667 22.2373 8.1 21.712C6.88333 21.1873 5.825 20.475 4.925 19.575C4.025 18.675 3.31267 17.6167 2.788 16.4C2.26267 15.1833 2 13.8833 2 12.5C2 11.1167 2.26267 9.81667 2.788 8.6C3.31267 7.38333 4.025 6.325 4.925 5.425C5.825 4.525 6.88333 3.81233 8.1 3.287C9.31667 2.76233 10.6167 2.5 12 2.5C13.3833 2.5 14.6833 2.76233 15.9 3.287C17.1167 3.81233 18.175 4.525 19.075 5.425C19.975 6.325 20.6873 7.38333 21.212 8.6C21.7373 9.81667 22 11.1167 22 12.5C22 13.8833 21.7373 15.1833 21.212 16.4C20.6873 17.6167 19.975 18.675 19.075 19.575C18.175 20.475 17.1167 21.1873 15.9 21.712C14.6833 22.2373 13.3833 22.5 12 22.5ZM12 20.5C14.2167 20.5 16.1043 19.721 17.663 18.163C19.221 16.6043 20 14.7167 20 12.5C20 10.2833 19.221 8.39567 17.663 6.837C16.1043 5.279 14.2167 4.5 12 4.5C9.78333 4.5 7.896 5.279 6.338 6.837C4.77933 8.39567 4 10.2833 4 12.5C4 14.7167 4.77933 16.6043 6.338 18.163C7.896 19.721 9.78333 20.5 12 20.5Z" fill="#64748B"/>
</g>
</svg>
