<svg width="32" height="32" viewBox="0 0 32 32" fill="none" xmlns="http://www.w3.org/2000/svg">
<path d="M11.3729 16.8971H3.84679C3.44717 16.8971 3.18067 16.6306 3.11422 16.231L1.38235 5.64083C1.31589 5.30766 0.982721 5.04139 0.583093 5.10785C0.250147 5.17453 -0.0163479 5.50748 0.0503328 5.84065L1.78198 16.4976C1.98179 17.4966 2.84772 18.2292 3.84679 18.2292H6.71087V25.4893L4.11329 25.4891C3.71366 25.4891 3.44717 25.7556 3.44717 26.1552C3.44717 26.5548 3.71366 26.8213 4.11329 26.8213H10.6403C11.04 26.8213 11.3065 26.5548 11.3065 26.1552C11.3065 25.7556 11.04 25.4891 10.6403 25.4891H8.04277V18.2296H11.3729C11.7725 18.2296 12.039 17.9631 12.039 17.5634C12.039 17.1638 11.7061 16.8973 11.3729 16.8973V16.8971Z" fill="#64748B"/>
<path d="M31.488 5.10818C31.0884 5.04173 30.7552 5.308 30.6888 5.64117L28.9571 16.2981C28.8905 16.6977 28.5575 16.9642 28.2246 16.9642L20.6979 16.964C20.2982 16.964 20.0317 17.2305 20.0317 17.6301C20.0317 18.0297 20.2982 18.2962 20.6979 18.2962H24.028V25.5563H21.4304C21.0308 25.5563 20.7643 25.8228 20.7643 26.2224C20.7643 26.6221 21.0308 26.8886 21.4304 26.8886H27.9575C28.3571 26.8886 28.6236 26.6221 28.6236 26.2224C28.6236 25.8228 28.3571 25.5563 27.9575 25.5563L25.3599 25.5561V18.2298H28.1573C29.1564 18.2298 30.0223 17.4972 30.2221 16.4981L31.9538 5.84122C32.0871 5.50805 31.8206 5.1751 31.4877 5.10842L31.488 5.10818Z" fill="#64748B"/>
<path d="M25.7595 12.5012C26.1592 12.5012 26.4257 12.2347 26.4257 11.835C26.4257 11.4354 26.1592 11.1689 25.7595 11.1689H22.1629V9.30415C23.8281 8.9712 25.0934 7.50583 25.0934 5.77418C25.0934 5.37456 24.8269 5.10806 24.4273 5.10806H18.6327C18.2331 5.10806 17.9666 5.44101 17.9666 5.84064C17.9666 7.57228 19.2321 9.03766 20.8971 9.3706V11.2356H11.306L11.3065 9.30415C12.9717 8.9712 14.237 7.50583 14.237 5.77418C14.237 5.37456 13.9705 5.10806 13.5709 5.10806H7.77629C7.37666 5.10806 7.11017 5.44101 7.11017 5.84064C7.11017 7.57228 8.37573 9.03766 10.0407 9.3706V11.2356L6.31114 11.2358C5.91151 11.2358 5.64502 11.5023 5.64502 11.902C5.64502 12.3016 5.91151 12.5681 6.31114 12.5681L12.7052 12.5679L14.1706 26.0884C14.2372 26.4213 14.5035 26.6878 14.8367 26.6878H17.1678C17.5007 26.6878 17.7672 26.4213 17.8339 26.0884L19.3655 12.5011L25.7595 12.5012ZM19.3655 6.44053H23.6283C23.3618 7.37292 22.4961 8.03904 21.497 8.03904C20.4979 8.03904 19.632 7.37292 19.3655 6.44053ZM8.44254 6.44053H12.7053C12.4388 7.37292 11.5731 8.03904 10.574 8.03904C9.57474 8.03904 8.70903 7.37292 8.44254 6.44053ZM16.5681 25.2892H15.4359L14.0372 12.5012H18.0335L16.5681 25.2892Z" fill="#64748B"/>
</svg>
