<svg width="24" height="25" viewBox="0 0 24 25" fill="none" xmlns="http://www.w3.org/2000/svg">
<mask id="mask0_249_3386" style="mask-type:alpha" maskUnits="userSpaceOnUse" x="0" y="0" width="24" height="25">
<rect y="0.5" width="24" height="24" fill="#D9D9D9"/>
</mask>
<g mask="url(#mask0_249_3386)">
<path d="M12 18C12.2833 18 12.521 17.904 12.713 17.712C12.9043 17.5207 13 17.2833 13 17H11C11 17.2833 11.096 17.5207 11.288 17.712C11.4793 17.904 11.7167 18 12 18ZM8.5 16.5H15.5C15.6333 16.5 15.75 16.45 15.85 16.35C15.95 16.25 16 16.1333 16 16C16 15.8667 15.95 15.75 15.85 15.65C15.75 15.55 15.6333 15.5 15.5 15.5H15V13.15C15 12.4167 14.8 11.75 14.4 11.15C14 10.55 13.45 10.1667 12.75 10V9.75C12.75 9.53333 12.6793 9.354 12.538 9.212C12.396 9.07067 12.2167 9 12 9C11.7833 9 11.6043 9.07067 11.463 9.212C11.321 9.354 11.25 9.53333 11.25 9.75V10C10.55 10.1667 10 10.55 9.6 11.15C9.2 11.75 9 12.4167 9 13.15V15.5H8.5C8.36667 15.5 8.25 15.55 8.15 15.65C8.05 15.75 8 15.8667 8 16C8 16.1333 8.05 16.25 8.15 16.35C8.25 16.45 8.36667 16.5 8.5 16.5ZM6 21.5C5.45 21.5 4.97933 21.3043 4.588 20.913C4.196 20.521 4 20.05 4 19.5V10.5C4 10.1833 4.071 9.88333 4.213 9.6C4.35433 9.31667 4.55 9.08333 4.8 8.9L10.8 4.4C10.9833 4.26667 11.175 4.16667 11.375 4.1C11.575 4.03333 11.7833 4 12 4C12.2167 4 12.425 4.03333 12.625 4.1C12.825 4.16667 13.0167 4.26667 13.2 4.4L19.2 8.9C19.45 9.08333 19.646 9.31667 19.788 9.6C19.9293 9.88333 20 10.1833 20 10.5V19.5C20 20.05 19.8043 20.521 19.413 20.913C19.021 21.3043 18.55 21.5 18 21.5H6ZM6 19.5H18V10.5L12 6L6 10.5V19.5Z" fill="#64748B"/>
</g>
</svg>
