<svg width="32" height="32" viewBox="0 0 32 32" fill="none" xmlns="http://www.w3.org/2000/svg">
<path d="M8.60554 7.65981C8.73868 7.79295 9.13833 8.05946 9.53798 7.65981C9.80448 7.39331 9.80448 6.99366 9.53798 6.72738C8.87182 6.06122 8.87182 5.06211 9.53798 4.39618C10.6702 3.26392 10.6702 1.33214 9.53798 0.199881C9.27147 -0.066627 8.87182 -0.066627 8.60554 0.199881C8.33903 0.466389 8.33903 0.866036 8.60554 1.13232C9.2717 1.79847 9.2717 2.79759 8.60554 3.46352C7.47328 4.66246 7.47328 6.52733 8.60554 7.65981Z" fill="#64748B"/>
<path d="M12.2693 7.65981C12.4024 7.79295 12.8021 7.99278 13.2017 7.65981C13.4682 7.39331 13.4682 6.99366 13.2017 6.72738C12.5356 6.06122 12.5356 5.06211 13.2017 4.39618C14.334 3.26392 14.334 1.33214 13.2017 0.199881C12.9352 -0.066627 12.5356 -0.066627 12.2693 0.199881C12.0028 0.466389 12.0028 0.866036 12.2693 1.13232C12.9354 1.79847 12.9354 2.79759 12.2693 3.46352C11.1368 4.66246 11.1368 6.52733 12.2693 7.65981Z" fill="#64748B"/>
<path d="M15.9988 7.65981C16.132 7.79295 16.5316 7.99278 16.9313 7.65981C17.1978 7.39331 17.1978 6.99366 16.9313 6.72738C16.2651 6.06122 16.2651 5.06211 16.9313 4.39618C18.0635 3.26392 18.0635 1.33214 16.9313 0.199881C16.6647 -0.066627 16.2651 -0.066627 15.9988 0.199881C15.7323 0.466389 15.7323 0.866036 15.9988 1.13232C16.665 1.79847 16.665 2.79759 15.9988 3.46352C14.7999 4.66246 14.7999 6.52733 15.9988 7.65981Z" fill="#64748B"/>
<path d="M15.133 17.1178C14.7333 17.1178 14.4668 17.3843 14.4668 17.7839C14.4668 18.1836 14.7333 18.4501 15.133 18.4501C19.1294 18.4501 22.6595 16.0522 24.125 12.3886C24.2582 12.0556 24.125 11.6559 23.7254 11.5226C23.3924 11.3894 22.9928 11.5226 22.8594 11.9222C21.594 15.053 18.53 17.1176 15.1331 17.1176L15.133 17.1178Z" fill="#64748B"/>
<path d="M28.7877 0.998839C27.9885 0.199545 26.6564 0.199545 25.8571 0.998839L18.197 8.65894H3.277C2.87735 8.65894 2.61084 8.9919 2.61084 9.3251C2.87735 15.7863 7.87294 20.8481 14.0008 21.2477L8.67224 30.9723C8.47241 31.3053 8.60555 31.7049 8.93874 31.9047C9.27171 32.1045 9.67135 31.9714 9.87118 31.6382L15.1333 22.0467L20.3954 31.6382C20.5952 31.9712 20.9949 32.1045 21.3278 31.9047C21.6608 31.7049 21.7941 31.3053 21.5943 30.9723L16.2658 21.2477C25.1242 20.3817 27.4559 12.4555 27.6557 9.32452C27.6557 8.92488 27.3892 8.65837 26.9896 8.65837H24.1253L28.8544 3.92928C29.5873 3.12999 29.5873 1.79791 28.788 0.998611L28.7877 0.998839ZM15.0667 19.9821C9.47165 20.1152 4.60908 15.6527 4.00961 9.99091H26.2568C25.8572 12.3221 24.0588 19.7155 15.0667 19.9821ZM27.8554 2.99708L22.1937 8.65883H20.0623L26.7895 1.93105C27.056 1.66454 27.5888 1.66454 27.8553 1.93105C27.9885 2.06441 28.255 2.46406 27.8553 2.99685L27.8554 2.99708Z" fill="#64748B"/>
</svg>
