<svg width="24" height="25" viewBox="0 0 24 25" fill="none" xmlns="http://www.w3.org/2000/svg">
<mask id="mask0_249_3419" style="mask-type:alpha" maskUnits="userSpaceOnUse" x="0" y="0" width="24" height="25">
<rect y="0.5" width="24" height="24" fill="#D9D9D9"/>
</mask>
<g mask="url(#mask0_249_3419)">
<path d="M11 18.5C10.7167 18.5 10.4793 18.404 10.288 18.212C10.096 18.0207 10 17.7833 10 17.5C10 17.2167 10.096 16.9793 10.288 16.788C10.4793 16.596 10.7167 16.5 11 16.5H13C13.2833 16.5 13.521 16.596 13.713 16.788C13.9043 16.9793 14 17.2167 14 17.5C14 17.7833 13.9043 18.0207 13.713 18.212C13.521 18.404 13.2833 18.5 13 18.5H11ZM4 8.5C3.71667 8.5 3.47933 8.40433 3.288 8.213C3.096 8.021 3 7.78333 3 7.5C3 7.21667 3.096 6.979 3.288 6.787C3.47933 6.59567 3.71667 6.5 4 6.5H20C20.2833 6.5 20.5207 6.59567 20.712 6.787C20.904 6.979 21 7.21667 21 7.5C21 7.78333 20.904 8.021 20.712 8.213C20.5207 8.40433 20.2833 8.5 20 8.5H4ZM7 13.5C6.71667 13.5 6.479 13.404 6.287 13.212C6.09567 13.0207 6 12.7833 6 12.5C6 12.2167 6.09567 11.979 6.287 11.787C6.479 11.5957 6.71667 11.5 7 11.5H17C17.2833 11.5 17.5207 11.5957 17.712 11.787C17.904 11.979 18 12.2167 18 12.5C18 12.7833 17.904 13.0207 17.712 13.212C17.5207 13.404 17.2833 13.5 17 13.5H7Z" fill="#64748B"/>
</g>
</svg>
