<svg width="32" height="32" viewBox="0 0 32 32" fill="none" xmlns="http://www.w3.org/2000/svg">
<path d="M26.4664 6.00011H5.13339C3.96 6.00011 3 6.96011 3 8.1335V17.2C3 18.3734 3.96 19.3334 5.13339 19.3334H26.4669C27.6403 19.3334 28.6003 18.3734 28.6003 17.2V8.1335C28.6001 6.96011 27.6401 6.00011 26.4667 6.00011H26.4664ZM5.13339 7.06671H26.4669C27.0535 7.06671 27.5335 7.54671 27.5335 8.13332V11.9201H4.06651V8.13332C4.06651 7.54671 4.54651 7.06671 5.1333 7.06671H5.13339ZM26.4664 18.2667H5.13339C4.54679 18.2667 4.06679 17.7867 4.06679 17.2001L4.06661 12.9867H27.5331V17.2001C27.5333 17.7867 27.0533 18.2667 26.4665 18.2667H26.4664Z" fill="#475569"/>
<path d="M24.6532 13.6802H6.94619C6.03959 13.6802 5.34619 14.4268 5.34619 15.2802C5.34619 16.1336 6.0928 16.8802 6.94619 16.8802H24.6527C25.5593 16.8802 26.2527 16.1336 26.2527 15.2802C26.2529 14.4268 25.5595 13.6802 24.6529 13.6802H24.6532ZM24.6532 15.8668H6.94619C6.62619 15.8668 6.4128 15.6002 6.4128 15.3334C6.4128 15.0134 6.6794 14.8 6.94619 14.8H24.6527C24.9727 14.8 25.1861 15.0666 25.1861 15.3334C25.1861 15.6002 24.9729 15.8668 24.6529 15.8668H24.6532Z" fill="#475569"/>
<path d="M19.5863 11.0667C20.4929 11.0667 21.1863 10.3733 21.1863 9.46671C21.1863 8.56011 20.4929 7.86671 19.5863 7.86671C18.6797 7.86671 17.9863 8.56011 17.9863 9.46671C17.9863 10.3733 18.6797 11.0667 19.5863 11.0667ZM19.5863 8.93332C19.9063 8.93332 20.1197 9.14671 20.1197 9.46671C20.1197 9.78671 19.9063 10.0001 19.5863 10.0001C19.2663 10.0001 19.0529 9.78671 19.0529 9.46671C19.0531 9.14671 19.2663 8.93332 19.5863 8.93332Z" fill="#475569"/>
<path d="M22.0397 10.0002H22.9997C23.3197 10.0002 23.5331 9.7868 23.5331 9.4668C23.5331 9.1468 23.3197 8.93341 22.9997 8.93341H22.0397C21.7197 8.93341 21.5063 9.1468 21.5063 9.4668C21.5063 9.7868 21.7731 10.0002 22.0397 10.0002Z" fill="#475569"/>
<path d="M24.4935 10.0002H25.4001C25.7201 10.0002 25.9335 9.7868 25.9335 9.4668C25.9335 9.1468 25.7201 8.93341 25.4001 8.93341H24.4401C24.1201 8.93341 23.9067 9.1468 23.9067 9.4668C23.9067 9.7868 24.1735 10.0002 24.4935 10.0002Z" fill="#475569"/>
<path d="M12.7063 21.3067C12.9197 21.0933 12.9197 20.7733 12.7063 20.5601C12.493 20.3467 12.173 20.3467 11.9597 20.5601C11.0531 21.4667 11.0531 22.9067 11.9597 23.7601C12.4397 24.2401 12.4397 24.9867 11.9597 25.4667C11.7463 25.6801 11.7463 26.0533 11.9597 26.2133C12.2797 26.4799 12.5997 26.3199 12.7063 26.2133C13.613 25.3067 13.613 23.8667 12.7063 23.0133C12.2263 22.5333 12.2263 21.7867 12.7063 21.3067Z" fill="#475569"/>
<path d="M19.6399 21.3067C19.8533 21.0933 19.8533 20.7733 19.6399 20.5601C19.4265 20.3467 19.1065 20.3467 18.8933 20.5601C17.9867 21.4667 17.9867 22.9067 18.8933 23.7601C19.3733 24.2401 19.3733 24.9867 18.8933 25.4667C18.6799 25.6801 18.6799 26.0001 18.8933 26.2133C18.9999 26.3199 19.3199 26.5333 19.6399 26.2133C20.5465 25.3599 20.5465 23.8667 19.6399 23.0133C19.2133 22.5333 19.2133 21.7867 19.6399 21.3067Z" fill="#475569"/>
<path d="M16.1736 21.3067C16.387 21.0933 16.387 20.7733 16.1736 20.5601C15.9602 20.3467 15.6402 20.3467 15.427 20.5601C14.5204 21.4667 14.5204 22.9067 15.427 23.7601C15.907 24.2401 15.907 24.9867 15.427 25.4667C15.2136 25.6801 15.2136 26.0533 15.427 26.2133C15.8004 26.5333 16.067 26.3199 16.1736 26.2133C17.0802 25.3067 17.0802 23.8667 16.1736 23.0133C15.6936 22.5333 15.6936 21.7867 16.1736 21.3067Z" fill="#475569"/>
</svg>
