<svg width="32" height="32" viewBox="0 0 32 32" fill="none" xmlns="http://www.w3.org/2000/svg">
<path d="M26.1464 15.6665H25.2398C25.1332 14.4399 24.1198 13.4799 22.8932 13.4799H12.2267C10.9467 13.4799 9.88009 14.5465 9.88009 15.8265V20.1999C9.88009 22.1199 10.5735 23.8799 11.8535 25.3199H9.9333C9.6133 25.3199 9.3999 25.5333 9.3999 25.8533C9.3999 26.1733 9.6133 26.3867 9.9333 26.3867H25.2933C25.6133 26.3867 25.8267 26.1733 25.8267 25.8533C25.8267 25.5333 25.6133 25.3199 25.2933 25.3199H23.3199C24.4933 24.0399 25.1865 22.3865 25.2399 20.5734H26.1465C27.5331 20.5734 28.5999 19.4534 28.5999 18.12C28.5999 16.7866 27.4799 15.6666 26.1465 15.6666L26.1464 15.6665ZM24.2264 20.1999C24.2264 22.1733 23.373 24.0399 21.8264 25.3199H13.3999C11.8533 24.0399 10.9999 22.1733 10.9999 20.1999V15.8265C10.9999 15.1331 11.5865 14.5465 12.2799 14.5465H22.9464C23.6398 14.5465 24.2264 15.1331 24.2264 15.8265V20.1999ZM26.1464 19.5065H25.293V16.6799H26.1464C26.893 16.6799 27.533 17.3199 27.533 18.0665C27.5332 18.9199 26.8932 19.5065 26.1464 19.5065Z" fill="#64748B"/>
<path d="M9.4 11.88C9.4 9.42662 8.01339 7.50662 6.2 7.50662C4.38661 7.50662 3 9.42662 3 11.88C3 13.64 3.74661 15.1334 4.81339 15.8266L4.38661 25.0531C4.38661 26.5997 5.72 26.9197 6.2 26.9197C6.68 26.9197 7.96 26.5997 8.0134 25.0531L7.58661 15.8266C8.6534 15.1332 9.40001 13.64 9.40001 11.88H9.4ZM4.06651 11.88C4.06651 10.0666 5.02651 8.57341 6.19991 8.57341C7.3733 8.57341 8.3333 10.12 8.3333 11.88C8.3333 13.64 7.3733 15.1866 6.19991 15.1866C5.02651 15.1866 4.06651 13.6932 4.06651 11.88ZM6.94651 25.1065C6.94651 25.7465 6.41312 25.8531 6.19991 25.8531C5.98651 25.8531 5.4533 25.7465 5.4533 25.1065L5.87991 16.253H6.19991H6.51991L6.94651 25.1065Z" fill="#64748B"/>
<path d="M13.72 11.9865C13.5066 12.1999 13.5066 12.5199 13.72 12.7331C13.8266 12.8398 14.0934 13.0531 14.4666 12.7331C15.4266 11.9331 15.3732 10.3865 14.4666 9.53315C13.9866 9.05315 13.9866 8.30654 14.4666 7.82654C14.68 7.61315 14.68 7.29315 14.4666 7.07994C14.2532 6.86654 13.9332 6.86654 13.72 7.07994C12.8134 7.98654 12.8134 9.42654 13.72 10.2799C14.2 10.7599 14.2 11.5065 13.72 11.9865Z" fill="#64748B"/>
<path d="M20.7063 11.9865C20.4929 12.1999 20.4929 12.5199 20.7063 12.7331C20.8129 12.8398 21.1329 12.9998 21.4529 12.7331C22.3595 11.8798 22.3595 10.3865 21.4529 9.53315C20.9729 9.05315 20.9729 8.30654 21.4529 7.82654C21.6663 7.61315 21.6663 7.29315 21.4529 7.07994C21.2395 6.86654 20.9195 6.86654 20.7063 7.07994C19.7997 7.98654 19.7997 9.42654 20.7063 10.2799C21.1863 10.7599 21.1863 11.5065 20.7063 11.9865Z" fill="#64748B"/>
<path d="M17.1864 11.9865C16.973 12.1999 16.973 12.5199 17.1864 12.7331C17.293 12.8397 17.5598 13.0531 17.933 12.7331C19.5864 11.0265 18.4664 9.15974 17.933 8.57314C17.5596 8.19974 16.9196 7.07974 17.933 5.90653C18.1464 5.69314 18.1464 5.37314 17.933 5.15992C17.7196 4.94653 17.3996 4.94653 17.1864 5.15992C16.653 5.69332 15.5864 7.45332 17.1864 9.31992C17.8798 10.1199 17.9332 11.2399 17.1864 11.9865Z" fill="#64748B"/>
</svg>
