<svg width="32" height="32" viewBox="0 0 32 32" fill="none" xmlns="http://www.w3.org/2000/svg">
<g clip-path="url(#clip0_301_4403)">
<path d="M31.3217 9.28493H30.3217C29.9885 6.35171 27.655 3.95174 24.7218 3.685V2.28502C24.7218 1.88503 24.4551 1.61829 24.0551 1.61829C23.6551 1.61829 23.3883 1.88503 23.3883 2.28502V3.685C20.4551 4.01825 18.0552 6.35171 17.7884 9.28493H16.7884C16.3884 9.28493 16.1217 9.55167 16.1217 9.95166C16.1217 10.3517 16.3884 10.6184 16.7884 10.6184H21.9884L19.1217 15.6851L11.4549 12.4184H11.3216C12.5884 11.4851 13.4549 9.95166 13.4549 8.21843C13.4549 5.41846 11.1216 3.08524 8.25494 3.08524C5.38824 3.08524 3.12176 5.48521 3.12176 8.28517C3.12176 10.0184 3.98849 11.4851 5.32173 12.4184C2.122 13.4184 -0.0112305 16.2848 -0.0112305 19.5514V29.6844C-0.0112305 30.0844 0.255509 30.3512 0.655503 30.3512H14.1222C14.5222 30.3512 14.7889 30.0844 14.7889 29.6844L14.7887 20.3514C20.0554 21.6181 20.1219 21.6846 20.6555 21.6846C21.9222 21.6846 22.9887 20.9514 23.5222 19.8179L26.5221 13.018C26.8554 12.2848 26.8554 11.4848 26.4554 10.6848H31.3218C31.7218 10.6848 31.9886 10.4181 31.9886 10.0181C31.9886 9.61829 31.7218 9.28481 31.3218 9.28481L31.3217 9.28493ZM4.38894 8.28494C4.38894 6.15171 6.05566 4.41825 8.18889 4.41825C10.2556 4.41825 11.9888 6.08497 11.9888 8.2182C11.9888 10.3514 10.3221 12.0849 8.18889 12.0849H8.12215C6.18892 12.0849 4.45568 10.4184 4.38894 8.28494ZM25.2555 12.4184L22.3221 19.2846C21.9888 20.0846 21.1221 20.4845 20.2554 20.2845L14.2554 18.8846C14.0554 18.8178 13.8554 18.8846 13.6554 19.0178C13.5222 19.1511 13.3887 19.3511 13.3887 19.5511V29.0178L1.32258 29.018V19.5513C1.32258 16.8846 3.12256 14.4846 5.65578 13.7514H10.989L19.0557 17.2181C19.389 17.3513 19.7224 17.2181 19.9224 16.9513L23.1224 11.2847C23.4557 10.7514 24.1224 10.5514 24.7224 10.7514C25.2559 11.0182 25.5891 11.7514 25.2559 12.4181L25.2555 12.4184ZM19.1219 9.28493C19.4551 6.81822 21.5219 4.95173 24.0551 4.95173C26.5883 4.95173 28.655 6.81844 28.9883 9.28493H19.1221H19.1219Z" fill="#475569"/>
</g>
<defs>
<clipPath id="clip0_301_4403">
<rect width="32" height="32" fill="white"/>
</clipPath>
</defs>
</svg>
