<svg width="32" height="32" viewBox="0 0 32 32" fill="none" xmlns="http://www.w3.org/2000/svg">
<path d="M8.39652 14.9465H7.96992C7.64992 14.9465 7.43652 15.1599 7.43652 15.4799C7.43652 15.7999 7.64992 16.0133 7.96992 16.0133H8.39652C8.71652 16.0133 8.92992 15.7999 8.92992 15.4799C8.92992 15.1599 8.66331 14.9465 8.39652 14.9465Z" fill="#0369A1"/>
<path d="M11.4898 14.9465H11.0632C10.7432 14.9465 10.5298 15.1599 10.5298 15.4799C10.5298 15.7999 10.7432 16.0133 11.0632 16.0133H11.4898C11.8098 16.0133 12.0232 15.7999 12.0232 15.4799C12.0232 15.1599 11.8098 14.9465 11.4898 14.9465Z" fill="#0369A1"/>
<path d="M14.5835 14.9465H14.2102C13.8902 14.9465 13.6768 15.1599 13.6768 15.4799C13.6768 15.7999 13.8902 16.0133 14.2102 16.0133H14.6368C14.9568 16.0133 15.1702 15.7999 15.1702 15.4799C15.1702 15.1599 14.9035 14.9465 14.5835 14.9465Z" fill="#0369A1"/>
<path d="M17.73 14.9465H17.3034C16.9834 14.9465 16.77 15.1599 16.77 15.4799C16.77 15.7999 16.9834 16.0133 17.3034 16.0133H17.73C18.05 16.0133 18.2634 15.7999 18.2634 15.4799C18.2634 15.1599 17.9966 14.9465 17.73 14.9465Z" fill="#0369A1"/>
<path d="M8.39652 17.9335H7.96992C7.64992 17.9335 7.43652 18.1469 7.43652 18.4669C7.43652 18.7869 7.64992 19.0003 7.96992 19.0003H8.39652C8.71652 19.0003 8.92992 18.7869 8.92992 18.4669C8.92992 18.1467 8.66331 17.9335 8.39652 17.9335Z" fill="#0369A1"/>
<path d="M11.4898 17.9335H11.0632C10.7432 17.9335 10.5298 18.1469 10.5298 18.4669C10.5298 18.7869 10.7432 19.0003 11.0632 19.0003H11.4898C11.8098 19.0003 12.0232 18.7869 12.0232 18.4669C12.0232 18.1467 11.8098 17.9335 11.4898 17.9335Z" fill="#0369A1"/>
<path d="M14.5835 17.9335H14.2102C13.8902 17.9335 13.6768 18.1469 13.6768 18.4669C13.6768 18.7869 13.8902 19.0003 14.2102 19.0003H14.6368C14.9568 19.0003 15.1702 18.7869 15.1702 18.4669C15.1702 18.1467 14.9035 17.9335 14.5835 17.9335Z" fill="#0369A1"/>
<path d="M17.73 17.9335H17.3034C16.9834 17.9335 16.77 18.1469 16.77 18.4669C16.77 18.7869 16.9834 19.0003 17.3034 19.0003H17.73C18.05 19.0003 18.2634 18.7869 18.2634 18.4669C18.2634 18.1467 17.9966 17.9335 17.73 17.9335Z" fill="#0369A1"/>
<path d="M8.39652 20.92H7.96992C7.64992 20.92 7.43652 21.1334 7.43652 21.4534C7.43652 21.7734 7.64992 21.9868 7.96992 21.9868H8.39652C8.71652 21.9868 8.92992 21.7734 8.92992 21.4534C8.92992 21.1334 8.66331 20.92 8.39652 20.92Z" fill="#0369A1"/>
<path d="M11.4898 20.92H11.0632C10.7432 20.92 10.5298 21.1334 10.5298 21.4534C10.5298 21.7734 10.7432 21.9868 11.0632 21.9868H11.4898C11.8098 21.9868 12.0232 21.7734 12.0232 21.4534C12.0232 21.1334 11.8098 20.92 11.4898 20.92Z" fill="#0369A1"/>
<path d="M14.5835 20.92H14.2102C13.8902 20.92 13.6768 21.1334 13.6768 21.4534C13.6768 21.7734 13.8902 21.9868 14.2102 21.9868H14.6368C14.9568 21.9868 15.1702 21.7734 15.1702 21.4534C15.1702 21.1334 14.9035 20.92 14.5835 20.92Z" fill="#0369A1"/>
<path d="M17.73 20.92H17.3034C16.9834 20.92 16.77 21.1334 16.77 21.4534C16.77 21.7734 16.9834 21.9868 17.3034 21.9868H17.73C18.05 21.9868 18.2634 21.7734 18.2634 21.4534C18.2634 21.1334 17.9966 20.92 17.73 20.92Z" fill="#0369A1"/>
<path d="M8.39652 23.8535H7.96992C7.64992 23.8535 7.43652 24.0669 7.43652 24.3869C7.43652 24.7069 7.64992 24.9203 7.96992 24.9203H8.39652C8.71652 24.9203 8.92992 24.7069 8.92992 24.3869C8.92992 24.0667 8.66331 23.8535 8.39652 23.8535Z" fill="#0369A1"/>
<path d="M11.4898 23.8535H11.0632C10.7432 23.8535 10.5298 24.0669 10.5298 24.3869C10.5298 24.7069 10.7432 24.9203 11.0632 24.9203H11.4898C11.8098 24.9203 12.0232 24.7069 12.0232 24.3869C12.0232 24.0667 11.8098 23.8535 11.4898 23.8535Z" fill="#0369A1"/>
<path d="M14.5835 23.8535H14.2102C13.8902 23.8535 13.6768 24.0669 13.6768 24.3869C13.6768 24.7069 13.8902 24.9203 14.2102 24.9203H14.6368C14.9568 24.9203 15.1702 24.7069 15.1702 24.3869C15.1702 24.0667 14.9035 23.8535 14.5835 23.8535Z" fill="#0369A1"/>
<path d="M17.73 23.8535H17.3034C16.9834 23.8535 16.77 24.0669 16.77 24.3869C16.77 24.7069 16.9834 24.9203 17.3034 24.9203H17.73C18.05 24.9203 18.2634 24.7069 18.2634 24.3869C18.2634 24.0667 17.9966 23.8535 17.73 23.8535Z" fill="#0369A1"/>
<path d="M26.2099 3H11.3299C9.78334 3 8.60995 4.3866 8.98334 5.93339H8.34334C6.79673 5.93339 5.62334 7.32 5.99673 8.86678L5.40994 8.86661C3.16994 8.86661 2.20994 11.5332 3.75655 12.9732C4.39655 13.5598 4.76994 14.5198 4.71655 15.5332L4.07655 28.0132C4.07655 28.1732 4.12994 28.5466 4.60994 28.5998H21.0899C21.4099 28.5998 21.7299 28.3332 21.6233 27.9064L21.5167 25.613H24.0767C24.3967 25.613 24.6101 25.3464 24.6101 25.0264L24.5035 22.6264H27.0099C27.3299 22.6264 27.5433 22.3598 27.5433 22.0398L26.9033 9.55982C26.8499 8.54642 27.1699 7.58642 27.8633 6.99982C29.4099 5.66642 28.4499 2.99982 26.2099 2.99982V3ZM5.14343 27.5335L5.78343 15.64C5.83682 14.3066 5.35682 13.08 4.50343 12.2266C3.65004 11.4266 4.13004 9.9866 5.41004 9.9866H20.2366C21.5166 9.9866 21.9966 11.4266 21.1432 12.2266C20.2366 13.0266 19.8098 14.3066 19.8632 15.64L20.3432 25.1335L20.4498 27.5335H5.14343ZM21.4634 24.6001L20.9834 15.5866C20.93 14.5732 21.25 13.6132 21.9434 13.0266C23.49 11.5866 22.53 8.92 20.29 8.92H7.17004C6.74343 8.0666 7.38343 7 8.39664 7H23.2232C24.4498 7 24.9832 8.44 24.1298 9.24C23.2232 10.04 22.7432 11.32 22.8498 12.6534L23.4364 24.5469L21.4633 24.5467L21.4634 24.6001ZM27.1165 6.3066C26.2099 7.1066 25.7831 8.3866 25.8365 9.72L26.4765 21.6135H24.4499L23.9699 12.6C23.9165 11.5866 24.2365 10.6266 24.9299 10.04C26.4765 8.6 25.5165 5.93339 23.2765 5.93339H10.1565C9.67646 5.08 10.3699 4.0666 11.3299 4.0666H26.1564C27.4898 4.0666 27.9698 5.56 27.1164 6.3066H27.1165Z" fill="#0369A1"/>
</svg>
