<svg width="24" height="25" viewBox="0 0 24 25" fill="none" xmlns="http://www.w3.org/2000/svg">
<mask id="mask0_474_1983" style="mask-type:alpha" maskUnits="userSpaceOnUse" x="0" y="0" width="24" height="25">
<rect y="0.5" width="24" height="24" fill="#D9D9D9"/>
</mask>
<g mask="url(#mask0_474_1983)">
<path d="M5 21.5C4.45 21.5 3.979 21.3043 3.587 20.913C3.19567 20.521 3 20.05 3 19.5V9.49999C3 8.94999 3.19567 8.47899 3.587 8.08699C3.979 7.69566 4.45 7.49999 5 7.49999H9V6.32499C9 6.19166 9.01267 6.06266 9.038 5.93799C9.06267 5.81266 9.1 5.69166 9.15 5.57499C9.2 5.45833 9.25833 5.34566 9.325 5.23699C9.39167 5.12899 9.475 5.02499 9.575 4.92499L11.3 3.19999C11.5 2.99999 11.7333 2.89999 12 2.89999C12.2667 2.89999 12.5 2.99999 12.7 3.19999L14.425 4.92499C14.6083 5.10833 14.75 5.32066 14.85 5.56199C14.95 5.80399 15 6.05833 15 6.32499V11.5H19C19.55 11.5 20.021 11.6957 20.413 12.087C20.8043 12.479 21 12.95 21 13.5V19.5C21 20.05 20.8043 20.521 20.413 20.913C20.021 21.3043 19.55 21.5 19 21.5H5ZM5 19.5H7V17.5H5V19.5ZM5 15.5H7V13.5H5V15.5ZM5 11.5H7V9.49999H5V11.5ZM11 19.5H13V17.5H11V19.5ZM11 15.5H13V13.5H11V15.5ZM11 11.5H13V9.49999H11V11.5ZM11 7.49999H13V5.49999H11V7.49999ZM17 19.5H19V17.5H17V19.5ZM17 15.5H19V13.5H17V15.5Z" fill="#14B8A6"/>
</g>
</svg>
