<svg width="24" height="25" viewBox="0 0 24 25" fill="none" xmlns="http://www.w3.org/2000/svg">
<mask id="mask0_486_2317" style="mask-type:alpha" maskUnits="userSpaceOnUse" x="0" y="0" width="24" height="25">
<rect y="0.5" width="24" height="24" fill="#D9D9D9"/>
</mask>
<g mask="url(#mask0_486_2317)">
<path d="M12 22.5C10.6333 22.5 9.34167 22.2373 8.125 21.712C6.90833 21.1873 5.846 20.4707 4.938 19.562C4.02933 18.654 3.31267 17.5917 2.788 16.375C2.26267 15.1583 2 13.8667 2 12.5C2 11.1167 2.26267 9.821 2.788 8.613C3.31267 7.40433 4.02933 6.346 4.938 5.438C5.846 4.52933 6.90833 3.81233 8.125 3.287C9.34167 2.76233 10.6333 2.5 12 2.5C13.3833 2.5 14.679 2.76233 15.887 3.287C17.0957 3.81233 18.154 4.52933 19.062 5.438C19.9707 6.346 20.6873 7.40433 21.212 8.613C21.7373 9.821 22 11.1167 22 12.5V13.95C22 14.9333 21.6627 15.7707 20.988 16.462C20.3127 17.154 19.4833 17.5 18.5 17.5C17.9 17.5 17.3417 17.3667 16.825 17.1C16.3083 16.8333 15.8833 16.4833 15.55 16.05C15.1 16.5 14.571 16.8543 13.963 17.113C13.3543 17.371 12.7 17.5 12 17.5C10.6167 17.5 9.43767 17.0123 8.463 16.037C7.48767 15.0623 7 13.8833 7 12.5C7 11.1167 7.48767 9.93733 8.463 8.962C9.43767 7.98733 10.6167 7.5 12 7.5C13.3833 7.5 14.5627 7.98733 15.538 8.962C16.5127 9.93733 17 11.1167 17 12.5V13.95C17 14.4333 17.15 14.8123 17.45 15.087C17.75 15.3623 18.1 15.5 18.5 15.5C18.9 15.5 19.25 15.3623 19.55 15.087C19.85 14.8123 20 14.4333 20 13.95V12.5C20 10.3167 19.2123 8.43733 17.637 6.862C16.0623 5.28733 14.1833 4.5 12 4.5C9.81667 4.5 7.93733 5.28733 6.362 6.862C4.78733 8.43733 4 10.3167 4 12.5C4 14.6833 4.78733 16.5623 6.362 18.137C7.93733 19.7123 9.81667 20.5 12 20.5H16C16.2833 20.5 16.5207 20.596 16.712 20.788C16.904 20.9793 17 21.2167 17 21.5C17 21.7833 16.904 22.0207 16.712 22.212C16.5207 22.404 16.2833 22.5 16 22.5H12ZM12 15.5C12.8333 15.5 13.5417 15.2083 14.125 14.625C14.7083 14.0417 15 13.3333 15 12.5C15 11.6667 14.7083 10.9583 14.125 10.375C13.5417 9.79167 12.8333 9.5 12 9.5C11.1667 9.5 10.4583 9.79167 9.875 10.375C9.29167 10.9583 9 11.6667 9 12.5C9 13.3333 9.29167 14.0417 9.875 14.625C10.4583 15.2083 11.1667 15.5 12 15.5Z" fill="#14B8A6"/>
</g>
</svg>
