<svg width="21" height="21" viewBox="0 0 21 21" fill="none" xmlns="http://www.w3.org/2000/svg">
<path d="M18 12.5H20V6.025C20 5.69166 19.925 5.38333 19.775 5.1C19.625 4.81666 19.4167 4.58333 19.15 4.4L14.15 0.824997C13.8 0.574997 13.4167 0.449997 13 0.449997C12.5833 0.449997 12.2 0.574997 11.85 0.824997L6.85 4.4C6.58333 4.58333 6.375 4.81666 6.225 5.1C6.075 5.38333 6 5.69166 6 6.025V7.5H8V6L13 2.5L18 6V12.5ZM14 6.5C13.8667 6.5 13.75 6.45 13.65 6.35C13.55 6.25 13.5 6.13333 13.5 6C13.5 5.86666 13.55 5.75 13.65 5.65C13.75 5.55 13.8667 5.5 14 5.5C14.1333 5.5 14.25 5.55 14.35 5.65C14.45 5.75 14.5 5.86666 14.5 6C14.5 6.13333 14.45 6.25 14.35 6.35C14.25 6.45 14.1333 6.5 14 6.5ZM12 6.5C11.8667 6.5 11.75 6.45 11.65 6.35C11.55 6.25 11.5 6.13333 11.5 6C11.5 5.86666 11.55 5.75 11.65 5.65C11.75 5.55 11.8667 5.5 12 5.5C12.1333 5.5 12.25 5.55 12.35 5.65C12.45 5.75 12.5 5.86666 12.5 6C12.5 6.13333 12.45 6.25 12.35 6.35C12.25 6.45 12.1333 6.5 12 6.5ZM14 8.5C13.8667 8.5 13.75 8.45 13.65 8.35C13.55 8.25 13.5 8.13333 13.5 8C13.5 7.86666 13.55 7.75 13.65 7.65C13.75 7.55 13.8667 7.5 14 7.5C14.1333 7.5 14.25 7.55 14.35 7.65C14.45 7.75 14.5 7.86666 14.5 8C14.5 8.13333 14.45 8.25 14.35 8.35C14.25 8.45 14.1333 8.5 14 8.5ZM12 8.5C11.8667 8.5 11.75 8.45 11.65 8.35C11.55 8.25 11.5 8.13333 11.5 8C11.5 7.86666 11.55 7.75 11.65 7.65C11.75 7.55 11.8667 7.5 12 7.5C12.1333 7.5 12.25 7.55 12.35 7.65C12.45 7.75 12.5 7.86666 12.5 8C12.5 8.13333 12.45 8.25 12.35 8.35C12.25 8.45 12.1333 8.5 12 8.5ZM12.95 18.9L18.9 17.05C18.8167 16.9 18.696 16.771 18.538 16.663C18.3793 16.5543 18.2 16.5 18 16.5H12.95C12.5 16.5 12.1417 16.4833 11.875 16.45C11.6083 16.4167 11.3333 16.35 11.05 16.25L9.625 15.775C9.35833 15.6917 9.16667 15.525 9.05 15.275C8.93333 15.025 8.91667 14.7667 9 14.5C9.08333 14.2333 9.246 14.0373 9.488 13.912C9.72933 13.7873 9.98333 13.7667 10.25 13.85L11.3 14.2C11.5833 14.2833 11.9043 14.35 12.263 14.4C12.621 14.45 13.1083 14.4833 13.725 14.5H14C14 14.3167 13.946 14.1417 13.838 13.975C13.7293 13.8083 13.6 13.7 13.45 13.65L7.6 11.5H6V17L12.95 18.9ZM12.425 20.85L6 19.05C5.86667 19.4833 5.60433 19.8333 5.213 20.1C4.821 20.3667 4.41667 20.5 4 20.5H2C1.45 20.5 0.979333 20.3043 0.588 19.913C0.196 19.521 0 19.05 0 18.5V11.5C0 10.95 0.196 10.479 0.588 10.087C0.979333 9.69566 1.45 9.5 2 9.5H7.6C7.71667 9.5 7.83333 9.51233 7.95 9.537C8.06667 9.56233 8.175 9.59166 8.275 9.625L14.15 11.8C14.7 12 15.146 12.35 15.488 12.85C15.8293 13.35 16 13.9 16 14.5H18C18.8333 14.5 19.5417 14.775 20.125 15.325C20.7083 15.875 21 16.6 21 17.5C21 17.8667 20.904 18.1543 20.712 18.363C20.5207 18.571 20.225 18.7417 19.825 18.875L13.575 20.825C13.3917 20.8917 13.2 20.925 13 20.925C12.8 20.925 12.6083 20.9 12.425 20.85ZM2 18.5H4V11.5H2V18.5Z" fill="#14B8A6"/>
</svg>
