<svg width="24" height="25" viewBox="0 0 24 25" fill="none" xmlns="http://www.w3.org/2000/svg">
<mask id="mask0_486_2296" style="mask-type:alpha" maskUnits="userSpaceOnUse" x="0" y="0" width="24" height="25">
<rect y="0.5" width="24" height="24" fill="#D9D9D9"/>
</mask>
<g mask="url(#mask0_486_2296)">
<path d="M12 11.5C11.7167 11.5 11.4793 11.404 11.288 11.212C11.096 11.0207 11 10.7833 11 10.5C11 10.2167 11.096 9.979 11.288 9.787C11.4793 9.59567 11.7167 9.5 12 9.5C12.2833 9.5 12.521 9.59567 12.713 9.787C12.9043 9.979 13 10.2167 13 10.5C13 10.7833 12.9043 11.0207 12.713 11.212C12.521 11.404 12.2833 11.5 12 11.5ZM16 11.5C15.7167 11.5 15.4793 11.404 15.288 11.212C15.096 11.0207 15 10.7833 15 10.5C15 10.2167 15.096 9.979 15.288 9.787C15.4793 9.59567 15.7167 9.5 16 9.5C16.2833 9.5 16.5207 9.59567 16.712 9.787C16.904 9.979 17 10.2167 17 10.5C17 10.7833 16.904 11.0207 16.712 11.212C16.5207 11.404 16.2833 11.5 16 11.5ZM20 11.5C19.7167 11.5 19.4793 11.404 19.288 11.212C19.096 11.0207 19 10.7833 19 10.5C19 10.2167 19.096 9.979 19.288 9.787C19.4793 9.59567 19.7167 9.5 20 9.5C20.2833 9.5 20.5207 9.59567 20.712 9.787C20.904 9.979 21 10.2167 21 10.5C21 10.7833 20.904 11.0207 20.712 11.212C20.5207 11.404 20.2833 11.5 20 11.5ZM19.95 21.5C17.8 21.5 15.7043 21.0207 13.663 20.062C11.621 19.104 9.81267 17.8373 8.238 16.262C6.66267 14.6873 5.396 12.879 4.438 10.837C3.47933 8.79567 3 6.7 3 4.55C3 4.25 3.1 4 3.3 3.8C3.5 3.6 3.75 3.5 4.05 3.5H8.1C8.33333 3.5 8.54167 3.575 8.725 3.725C8.90833 3.875 9.01667 4.06667 9.05 4.3L9.7 7.8C9.73333 8.03333 9.72933 8.24567 9.688 8.437C9.646 8.629 9.55 8.8 9.4 8.95L6.975 11.4C7.675 12.6 8.55433 13.725 9.613 14.775C10.671 15.825 11.8333 16.7333 13.1 17.5L15.45 15.15C15.6 15 15.796 14.8873 16.038 14.812C16.2793 14.7373 16.5167 14.7167 16.75 14.75L20.2 15.45C20.4333 15.5 20.625 15.6123 20.775 15.787C20.925 15.9623 21 16.1667 21 16.4V20.45C21 20.75 20.9 21 20.7 21.2C20.5 21.4 20.25 21.5 19.95 21.5ZM6.025 9.5L7.675 7.85L7.25 5.5H5.025C5.10833 6.18333 5.225 6.85833 5.375 7.525C5.525 8.19167 5.74167 8.85 6.025 9.5ZM14.975 18.45C15.625 18.7333 16.2877 18.9583 16.963 19.125C17.6377 19.2917 18.3167 19.4 19 19.45V17.25L16.65 16.775L14.975 18.45Z" fill="#14B8A6"/>
</g>
</svg>
