<svg width="24" height="25" viewBox="0 0 24 25" fill="none" xmlns="http://www.w3.org/2000/svg">
<mask id="mask0_474_2001" style="mask-type:alpha" maskUnits="userSpaceOnUse" x="0" y="0" width="24" height="25">
<rect y="0.5" width="24" height="24" fill="#D9D9D9"/>
</mask>
<g mask="url(#mask0_474_2001)">
<path d="M3 22.5C2.71667 22.5 2.47933 22.404 2.288 22.212C2.096 22.0207 2 21.7833 2 21.5V13.5C2 13.2167 2.096 12.979 2.288 12.787C2.47933 12.5957 2.71667 12.5 3 12.5H6V8.5C6 6.83333 6.58333 5.41667 7.75 4.25C8.91667 3.08333 10.3333 2.5 12 2.5H16C17.6667 2.5 19.0833 3.08333 20.25 4.25C21.4167 5.41667 22 6.83333 22 8.5V21.5C22 21.7833 21.904 22.0207 21.712 22.212C21.5207 22.404 21.2833 22.5 21 22.5C20.7167 22.5 20.4793 22.404 20.288 22.212C20.096 22.0207 20 21.7833 20 21.5V19.5H16V21.5C16 21.7833 15.9043 22.0207 15.713 22.212C15.521 22.404 15.2833 22.5 15 22.5H3ZM16 17.5H20V8.5C20 7.4 19.6083 6.45833 18.825 5.675C18.0417 4.89167 17.1 4.5 16 4.5H12C10.9 4.5 9.95833 4.89167 9.175 5.675C8.39167 6.45833 8 7.4 8 8.5V12.5H15C15.2833 12.5 15.521 12.5957 15.713 12.787C15.9043 12.979 16 13.2167 16 13.5V17.5ZM11 10.5C10.7167 10.5 10.4793 10.404 10.288 10.212C10.096 10.0207 10 9.78333 10 9.5C10 9.21667 10.096 8.979 10.288 8.787C10.4793 8.59567 10.7167 8.5 11 8.5H17C17.2833 8.5 17.5207 8.59567 17.712 8.787C17.904 8.979 18 9.21667 18 9.5C18 9.78333 17.904 10.0207 17.712 10.212C17.5207 10.404 17.2833 10.5 17 10.5H11ZM9 17.35L14 14.5H4L9 17.35ZM4 20.5H14V16.25L10 18.525C9.85 18.6083 9.69167 18.675 9.525 18.725C9.35833 18.775 9.18333 18.8 9 18.8C8.81667 18.8 8.64167 18.775 8.475 18.725C8.30833 18.675 8.15 18.6083 8 18.525L4 16.25V20.5ZM4 15.15C4 15 4 15 4 15.15C4 14.9833 4 14.9833 4 15.15Z" fill="#14B8A6"/>
</g>
</svg>
