<svg width="24" height="25" viewBox="0 0 24 25" fill="none" xmlns="http://www.w3.org/2000/svg">
<mask id="mask0_486_2290" style="mask-type:alpha" maskUnits="userSpaceOnUse" x="0" y="0" width="24" height="25">
<rect y="0.5" width="24" height="24" fill="#D9D9D9"/>
</mask>
<g mask="url(#mask0_486_2290)">
<path d="M2 21.5V9.5L10 3.5L15.4 7.55C15 7.6 14.6127 7.696 14.238 7.838C13.8627 7.97933 13.5083 8.16667 13.175 8.4L10 6L4 10.5V19.5H8V21.5H2ZM10 21.5V19.6C10 19.25 10.0873 18.9207 10.262 18.612C10.4373 18.304 10.675 18.0583 10.975 17.875C11.7417 17.425 12.5457 17.0833 13.387 16.85C14.229 16.6167 15.1 16.5 16 16.5C16.9 16.5 17.771 16.6167 18.613 16.85C19.4543 17.0833 20.2583 17.425 21.025 17.875C21.325 18.0583 21.5627 18.304 21.738 18.612C21.9127 18.9207 22 19.25 22 19.6V21.5H10ZM12.15 19.5H19.85C19.2667 19.1667 18.65 18.9167 18 18.75C17.35 18.5833 16.6833 18.5 16 18.5C15.3167 18.5 14.65 18.5833 14 18.75C13.35 18.9167 12.7333 19.1667 12.15 19.5ZM16 15.5C15.1667 15.5 14.4583 15.2083 13.875 14.625C13.2917 14.0417 13 13.3333 13 12.5C13 11.6667 13.2917 10.9583 13.875 10.375C14.4583 9.79167 15.1667 9.5 16 9.5C16.8333 9.5 17.5417 9.79167 18.125 10.375C18.7083 10.9583 19 11.6667 19 12.5C19 13.3333 18.7083 14.0417 18.125 14.625C17.5417 15.2083 16.8333 15.5 16 15.5ZM16 13.5C16.2833 13.5 16.5207 13.404 16.712 13.212C16.904 13.0207 17 12.7833 17 12.5C17 12.2167 16.904 11.979 16.712 11.787C16.5207 11.5957 16.2833 11.5 16 11.5C15.7167 11.5 15.4793 11.5957 15.288 11.787C15.096 11.979 15 12.2167 15 12.5C15 12.7833 15.096 13.0207 15.288 13.212C15.4793 13.404 15.7167 13.5 16 13.5Z" fill="#14B8A6"/>
</g>
</svg>
