<svg width="24" height="25" viewBox="0 0 24 25" fill="none" xmlns="http://www.w3.org/2000/svg">
<mask id="mask0_474_1955" style="mask-type:alpha" maskUnits="userSpaceOnUse" x="0" y="0" width="24" height="25">
<rect y="0.5" width="24" height="24" fill="#D9D9D9"/>
</mask>
<g mask="url(#mask0_474_1955)">
<path d="M6 21.5C5.71667 21.5 5.479 21.404 5.287 21.212C5.09567 21.0207 5 20.7833 5 20.5V5.5C5 5.21667 5.09567 4.979 5.287 4.787C5.479 4.59567 5.71667 4.5 6 4.5H13.175C13.4083 4.5 13.6167 4.575 13.8 4.725C13.9833 4.875 14.1 5.06667 14.15 5.3L14.4 6.5H19C19.2833 6.5 19.5207 6.59567 19.712 6.787C19.904 6.979 20 7.21667 20 7.5V15.5C20 15.7833 19.904 16.0207 19.712 16.212C19.5207 16.404 19.2833 16.5 19 16.5H13.825C13.5917 16.5 13.3833 16.425 13.2 16.275C13.0167 16.125 12.9 15.9333 12.85 15.7L12.6 14.5H7V20.5C7 20.7833 6.90433 21.0207 6.713 21.212C6.521 21.404 6.28333 21.5 6 21.5ZM14.65 14.5H18V8.5H12.75L12.35 6.5H7V12.5H14.25L14.65 14.5Z" fill="#14B8A6"/>
</g>
</svg>
