<svg width="24" height="25" viewBox="0 0 24 25" fill="none" xmlns="http://www.w3.org/2000/svg">
<mask id="mask0_486_2311" style="mask-type:alpha" maskUnits="userSpaceOnUse" x="0" y="0" width="24" height="25">
<rect y="0.5" width="24" height="24" fill="#D9D9D9"/>
</mask>
<g mask="url(#mask0_486_2311)">
<path d="M12 23.5C11.45 23.5 10.9793 23.3043 10.588 22.913C10.196 22.521 10 22.05 10 21.5C10 20.95 10.196 20.479 10.588 20.087C10.9793 19.6957 11.45 19.5 12 19.5C12.55 19.5 13.021 19.6957 13.413 20.087C13.8043 20.479 14 20.95 14 21.5C14 22.05 13.8043 22.521 13.413 22.913C13.021 23.3043 12.55 23.5 12 23.5ZM6 5.5C5.45 5.5 4.97933 5.304 4.588 4.912C4.196 4.52067 4 4.05 4 3.5C4 2.95 4.196 2.479 4.588 2.087C4.97933 1.69567 5.45 1.5 6 1.5C6.55 1.5 7.02067 1.69567 7.412 2.087C7.804 2.479 8 2.95 8 3.5C8 4.05 7.804 4.52067 7.412 4.912C7.02067 5.304 6.55 5.5 6 5.5ZM6 11.5C5.45 11.5 4.97933 11.304 4.588 10.912C4.196 10.5207 4 10.05 4 9.5C4 8.95 4.196 8.479 4.588 8.087C4.97933 7.69567 5.45 7.5 6 7.5C6.55 7.5 7.02067 7.69567 7.412 8.087C7.804 8.479 8 8.95 8 9.5C8 10.05 7.804 10.5207 7.412 10.912C7.02067 11.304 6.55 11.5 6 11.5ZM6 17.5C5.45 17.5 4.97933 17.3043 4.588 16.913C4.196 16.521 4 16.05 4 15.5C4 14.95 4.196 14.479 4.588 14.087C4.97933 13.6957 5.45 13.5 6 13.5C6.55 13.5 7.02067 13.6957 7.412 14.087C7.804 14.479 8 14.95 8 15.5C8 16.05 7.804 16.521 7.412 16.913C7.02067 17.3043 6.55 17.5 6 17.5ZM18 5.5C17.45 5.5 16.979 5.304 16.587 4.912C16.1957 4.52067 16 4.05 16 3.5C16 2.95 16.1957 2.479 16.587 2.087C16.979 1.69567 17.45 1.5 18 1.5C18.55 1.5 19.021 1.69567 19.413 2.087C19.8043 2.479 20 2.95 20 3.5C20 4.05 19.8043 4.52067 19.413 4.912C19.021 5.304 18.55 5.5 18 5.5ZM12 17.5C11.45 17.5 10.9793 17.3043 10.588 16.913C10.196 16.521 10 16.05 10 15.5C10 14.95 10.196 14.479 10.588 14.087C10.9793 13.6957 11.45 13.5 12 13.5C12.55 13.5 13.021 13.6957 13.413 14.087C13.8043 14.479 14 14.95 14 15.5C14 16.05 13.8043 16.521 13.413 16.913C13.021 17.3043 12.55 17.5 12 17.5ZM18 17.5C17.45 17.5 16.979 17.3043 16.587 16.913C16.1957 16.521 16 16.05 16 15.5C16 14.95 16.1957 14.479 16.587 14.087C16.979 13.6957 17.45 13.5 18 13.5C18.55 13.5 19.021 13.6957 19.413 14.087C19.8043 14.479 20 14.95 20 15.5C20 16.05 19.8043 16.521 19.413 16.913C19.021 17.3043 18.55 17.5 18 17.5ZM18 11.5C17.45 11.5 16.979 11.304 16.587 10.912C16.1957 10.5207 16 10.05 16 9.5C16 8.95 16.1957 8.479 16.587 8.087C16.979 7.69567 17.45 7.5 18 7.5C18.55 7.5 19.021 7.69567 19.413 8.087C19.8043 8.479 20 8.95 20 9.5C20 10.05 19.8043 10.5207 19.413 10.912C19.021 11.304 18.55 11.5 18 11.5ZM12 11.5C11.45 11.5 10.9793 11.304 10.588 10.912C10.196 10.5207 10 10.05 10 9.5C10 8.95 10.196 8.479 10.588 8.087C10.9793 7.69567 11.45 7.5 12 7.5C12.55 7.5 13.021 7.69567 13.413 8.087C13.8043 8.479 14 8.95 14 9.5C14 10.05 13.8043 10.5207 13.413 10.912C13.021 11.304 12.55 11.5 12 11.5ZM12 5.5C11.45 5.5 10.9793 5.304 10.588 4.912C10.196 4.52067 10 4.05 10 3.5C10 2.95 10.196 2.479 10.588 2.087C10.9793 1.69567 11.45 1.5 12 1.5C12.55 1.5 13.021 1.69567 13.413 2.087C13.8043 2.479 14 2.95 14 3.5C14 4.05 13.8043 4.52067 13.413 4.912C13.021 5.304 12.55 5.5 12 5.5Z" fill="#14B8A6"/>
</g>
</svg>
