<svg width="24" height="25" viewBox="0 0 24 25" fill="none" xmlns="http://www.w3.org/2000/svg">
<mask id="mask0_474_1971" style="mask-type:alpha" maskUnits="userSpaceOnUse" x="0" y="0" width="24" height="25">
<rect y="0.5" width="24" height="24" fill="#D9D9D9"/>
</mask>
<g mask="url(#mask0_474_1971)">
<path d="M12 22.5C11.7167 22.5 11.4793 22.404 11.288 22.212C11.096 22.0207 11 21.7833 11 21.5V18.5H6.625C6.425 18.5 6.229 18.4583 6.037 18.375C5.84567 18.2917 5.68333 18.1833 5.55 18.05L4.05 16.55C3.9 16.4 3.79167 16.2333 3.725 16.05C3.65833 15.8667 3.625 15.6833 3.625 15.5C3.625 15.3167 3.65833 15.1333 3.725 14.95C3.79167 14.7667 3.9 14.6 4.05 14.45L5.55 12.95C5.68333 12.8167 5.84567 12.7083 6.037 12.625C6.229 12.5417 6.425 12.5 6.625 12.5H11V10.5H5.5C5.08333 10.5 4.72933 10.354 4.438 10.062C4.146 9.77067 4 9.41667 4 9V6C4 5.58333 4.146 5.22933 4.438 4.938C4.72933 4.646 5.08333 4.5 5.5 4.5H11V3.5C11 3.21667 11.096 2.979 11.288 2.787C11.4793 2.59567 11.7167 2.5 12 2.5C12.2833 2.5 12.521 2.59567 12.713 2.787C12.9043 2.979 13 3.21667 13 3.5V4.5H17.375C17.575 4.5 17.7707 4.54167 17.962 4.625C18.154 4.70833 18.3167 4.81667 18.45 4.95L19.95 6.45C20.1 6.6 20.2083 6.76667 20.275 6.95C20.3417 7.13333 20.375 7.31667 20.375 7.5C20.375 7.68333 20.3417 7.86667 20.275 8.05C20.2083 8.23333 20.1 8.4 19.95 8.55L18.45 10.05C18.3167 10.1833 18.154 10.2917 17.962 10.375C17.7707 10.4583 17.575 10.5 17.375 10.5H13V12.5H18.5C18.9167 12.5 19.2707 12.646 19.562 12.938C19.854 13.2293 20 13.5833 20 14V17C20 17.4167 19.854 17.7707 19.562 18.062C19.2707 18.354 18.9167 18.5 18.5 18.5H13V21.5C13 21.7833 12.9043 22.0207 12.713 22.212C12.521 22.404 12.2833 22.5 12 22.5ZM6 8.5H17.175L18.175 7.5L17.175 6.5H6V8.5ZM6.825 16.5H18V14.5H6.825L5.825 15.5L6.825 16.5Z" fill="#14B8A6"/>
</g>
</svg>
