<svg width="24" height="25" viewBox="0 0 24 25" fill="none" xmlns="http://www.w3.org/2000/svg">
<mask id="mask0_486_2067" style="mask-type:alpha" maskUnits="userSpaceOnUse" x="0" y="0" width="24" height="25">
<rect y="0.5" width="24" height="24" fill="#D9D9D9"/>
</mask>
<g mask="url(#mask0_486_2067)">
<path d="M3 20.5C2.71667 20.5 2.47933 20.404 2.288 20.212C2.096 20.0207 2 19.7833 2 19.5V10.925C2 10.7917 2.025 10.6623 2.075 10.537C2.125 10.4123 2.2 10.3 2.3 10.2L7.3 5.2C7.4 5.1 7.50833 5.029 7.625 4.987C7.74167 4.94567 7.86667 4.925 8 4.925C8.13333 4.925 8.25833 4.94567 8.375 4.987C8.49167 5.029 8.6 5.1 8.7 5.2L13.7 10.2C13.8 10.3 13.875 10.4123 13.925 10.537C13.975 10.6623 14 10.7917 14 10.925V19.5C14 19.7833 13.9043 20.0207 13.713 20.212C13.521 20.404 13.2833 20.5 13 20.5H3ZM4 18.5H7V16.5C7 16.2167 7.09567 15.979 7.287 15.787C7.479 15.5957 7.71667 15.5 8 15.5C8.28333 15.5 8.521 15.5957 8.713 15.787C8.90433 15.979 9 16.2167 9 16.5V18.5H12V11.325L8 7.325L4 11.325V18.5ZM8 13.5C7.71667 13.5 7.479 13.404 7.287 13.212C7.09567 13.0207 7 12.7833 7 12.5C7 12.2167 7.09567 11.979 7.287 11.787C7.479 11.5957 7.71667 11.5 8 11.5C8.28333 11.5 8.521 11.5957 8.713 11.787C8.90433 11.979 9 12.2167 9 12.5C9 12.7833 8.90433 13.0207 8.713 13.212C8.521 13.404 8.28333 13.5 8 13.5ZM17 20.5C16.7167 20.5 16.4793 20.404 16.288 20.212C16.096 20.0207 16 19.7833 16 19.5V9.875C16 9.84167 15.95 9.725 15.85 9.525L12.525 6.2C12.2083 5.88333 12.1333 5.52067 12.3 5.112C12.4667 4.704 12.775 4.5 13.225 4.5C13.3583 4.5 13.4917 4.529 13.625 4.587C13.7583 4.64567 13.8667 4.71667 13.95 4.8L17.7 8.55C17.8 8.65 17.875 8.76233 17.925 8.887C17.975 9.01233 18 9.14167 18 9.275V19.5C18 19.7833 17.904 20.0207 17.712 20.212C17.5207 20.404 17.2833 20.5 17 20.5ZM21 20.5C20.7167 20.5 20.4793 20.404 20.288 20.212C20.096 20.0207 20 19.7833 20 19.5V8.225C20 8.19167 19.95 8.075 19.85 7.875L18.175 6.2C17.8583 5.88333 17.7833 5.52067 17.95 5.112C18.1167 4.704 18.425 4.5 18.875 4.5C19.0083 4.5 19.1417 4.529 19.275 4.587C19.4083 4.64567 19.5167 4.71667 19.6 4.8L21.7 6.9C21.8 7 21.875 7.11267 21.925 7.238C21.975 7.36267 22 7.49167 22 7.625V19.5C22 19.7833 21.904 20.0207 21.712 20.212C21.5207 20.404 21.2833 20.5 21 20.5Z" fill="#14B8A6"/>
</g>
</svg>
