<svg width="24" height="25" viewBox="0 0 24 25" fill="none" xmlns="http://www.w3.org/2000/svg">
<mask id="mask0_486_2088" style="mask-type:alpha" maskUnits="userSpaceOnUse" x="0" y="0" width="24" height="25">
<rect y="0.5" width="24" height="24" fill="#D9D9D9"/>
</mask>
<g mask="url(#mask0_486_2088)">
<path d="M14 13.5C13.1667 13.5 12.4583 13.2083 11.875 12.625C11.2917 12.0417 11 11.3333 11 10.5C11 9.66667 11.2917 8.95833 11.875 8.375C12.4583 7.79167 13.1667 7.5 14 7.5C14.8333 7.5 15.5417 7.79167 16.125 8.375C16.7083 8.95833 17 9.66667 17 10.5C17 11.3333 16.7083 12.0417 16.125 12.625C15.5417 13.2083 14.8333 13.5 14 13.5ZM7 16.5C6.45 16.5 5.97933 16.304 5.588 15.912C5.196 15.5207 5 15.05 5 14.5V6.5C5 5.95 5.196 5.47933 5.588 5.088C5.97933 4.696 6.45 4.5 7 4.5H21C21.55 4.5 22.021 4.696 22.413 5.088C22.8043 5.47933 23 5.95 23 6.5V14.5C23 15.05 22.8043 15.5207 22.413 15.912C22.021 16.304 21.55 16.5 21 16.5H7ZM9 14.5H19C19 13.95 19.1957 13.479 19.587 13.087C19.979 12.6957 20.45 12.5 21 12.5V8.5C20.45 8.5 19.979 8.304 19.587 7.912C19.1957 7.52067 19 7.05 19 6.5H9C9 7.05 8.804 7.52067 8.412 7.912C8.02067 8.304 7.55 8.5 7 8.5V12.5C7.55 12.5 8.02067 12.6957 8.412 13.087C8.804 13.479 9 13.95 9 14.5ZM3 20.5C2.45 20.5 1.97933 20.3043 1.588 19.913C1.196 19.521 1 19.05 1 18.5V8.5C1 8.21667 1.096 7.979 1.288 7.787C1.47933 7.59567 1.71667 7.5 2 7.5C2.28333 7.5 2.521 7.59567 2.713 7.787C2.90433 7.979 3 8.21667 3 8.5V18.5H19C19.2833 18.5 19.5207 18.596 19.712 18.788C19.904 18.9793 20 19.2167 20 19.5C20 19.7833 19.904 20.0207 19.712 20.212C19.5207 20.404 19.2833 20.5 19 20.5H3Z" fill="#14B8A6"/>
</g>
</svg>
