<svg width="24" height="25" viewBox="0 0 24 25" fill="none" xmlns="http://www.w3.org/2000/svg">
<mask id="mask0_486_2073" style="mask-type:alpha" maskUnits="userSpaceOnUse" x="0" y="0" width="24" height="25">
<rect y="0.5" width="24" height="24" fill="#D9D9D9"/>
</mask>
<g mask="url(#mask0_486_2073)">
<path d="M5.75 17.5C5.96667 17.5 6.14567 17.4293 6.287 17.288C6.429 17.146 6.5 16.9667 6.5 16.75V16H17.5V16.75C17.5 16.9667 17.5707 17.146 17.712 17.288C17.854 17.4293 18.0333 17.5 18.25 17.5C18.4667 17.5 18.646 17.4293 18.788 17.288C18.9293 17.146 19 16.9667 19 16.75V13.65C19 13.3 18.9333 12.9707 18.8 12.662C18.6667 12.354 18.4833 12.0833 18.25 11.85V9.5C18.25 8.95 18.0543 8.479 17.663 8.087C17.271 7.69567 16.8 7.5 16.25 7.5H13C12.8167 7.5 12.6417 7.525 12.475 7.575C12.3083 7.625 12.15 7.7 12 7.8C11.85 7.7 11.6917 7.625 11.525 7.575C11.3583 7.525 11.1833 7.5 11 7.5H7.75C7.2 7.5 6.72933 7.69567 6.338 8.087C5.946 8.479 5.75 8.95 5.75 9.5V11.85C5.51667 12.0833 5.33333 12.354 5.2 12.662C5.06667 12.9707 5 13.3 5 13.65V16.75C5 16.9667 5.071 17.146 5.213 17.288C5.35433 17.4293 5.53333 17.5 5.75 17.5ZM12.75 11V9H16.75V11H12.75ZM7.25 11V9H11.25V11H7.25ZM6.5 14.5V13.5C6.5 13.2167 6.59567 12.979 6.787 12.787C6.979 12.5957 7.21667 12.5 7.5 12.5H16.5C16.7833 12.5 17.0207 12.5957 17.212 12.787C17.404 12.979 17.5 13.2167 17.5 13.5V14.5H6.5ZM4 22.5C3.45 22.5 2.97933 22.3043 2.588 21.913C2.196 21.521 2 21.05 2 20.5V4.5C2 3.95 2.196 3.479 2.588 3.087C2.97933 2.69567 3.45 2.5 4 2.5H20C20.55 2.5 21.021 2.69567 21.413 3.087C21.8043 3.479 22 3.95 22 4.5V20.5C22 21.05 21.8043 21.521 21.413 21.913C21.021 22.3043 20.55 22.5 20 22.5H4ZM4 20.5H20V4.5H4V20.5Z" fill="#14B8A6"/>
</g>
</svg>
