<svg width="24" height="25" viewBox="0 0 24 25" fill="none" xmlns="http://www.w3.org/2000/svg">
<mask id="mask0_474_2007" style="mask-type:alpha" maskUnits="userSpaceOnUse" x="0" y="0" width="24" height="25">
<rect y="0.5" width="24" height="24" fill="#D9D9D9"/>
</mask>
<g mask="url(#mask0_474_2007)">
<path d="M12 16.5L12.512 16.062C12.854 15.7707 13.225 15.396 13.625 14.938C14.025 14.4793 14.396 13.9707 14.738 13.412C15.0793 12.854 15.25 12.3 15.25 11.75C15.25 10.85 14.9333 10.0833 14.3 9.45C13.6667 8.81667 12.9 8.5 12 8.5C11.1 8.5 10.3333 8.81667 9.7 9.45C9.06667 10.0833 8.75 10.85 8.75 11.75C8.75 12.3 8.92067 12.854 9.262 13.412C9.604 13.9707 9.975 14.4793 10.375 14.938C10.775 15.396 11.146 15.7707 11.488 16.062L12 16.5ZM12 12.5C11.7167 12.5 11.4793 12.404 11.288 12.212C11.096 12.0207 11 11.7833 11 11.5C11 11.2167 11.096 10.979 11.288 10.787C11.4793 10.5957 11.7167 10.5 12 10.5C12.2833 10.5 12.521 10.5957 12.713 10.787C12.9043 10.979 13 11.2167 13 11.5C13 11.7833 12.9043 12.0207 12.713 12.212C12.521 12.404 12.2833 12.5 12 12.5ZM8 19.5C6.05 19.5 4.396 18.8207 3.038 17.462C1.67933 16.104 1 14.45 1 12.5C1 10.55 1.67933 8.89567 3.038 7.537C4.396 6.179 6.05 5.5 8 5.5H16C17.95 5.5 19.604 6.179 20.962 7.537C22.3207 8.89567 23 10.55 23 12.5C23 14.45 22.3207 16.104 20.962 17.462C19.604 18.8207 17.95 19.5 16 19.5H8ZM8 17.5H16C17.3833 17.5 18.5627 17.0123 19.538 16.037C20.5127 15.0623 21 13.8833 21 12.5C21 11.1167 20.5127 9.93733 19.538 8.962C18.5627 7.98733 17.3833 7.5 16 7.5H8C6.61667 7.5 5.43767 7.98733 4.463 8.962C3.48767 9.93733 3 11.1167 3 12.5C3 13.8833 3.48767 15.0623 4.463 16.037C5.43767 17.0123 6.61667 17.5 8 17.5Z" fill="#14B8A6"/>
</g>
</svg>
